<ttFont>
<head>
    <!-- Most of this table will be recalculated by the compiler -->
    <tableVersion value="1.0"/>
    <fontRevision value="1.0"/>
    <checkSumAdjustment value="0xb7d71132"/>
    <magicNumber value="0x5f0f3cf5"/>
    <flags value="00000000 00000011"/>
    <unitsPerEm value="2048"/>
    <created value="Thu Aug 15 19:10:43 2019"/>
    <modified value="Fri Aug 16 02:19:20 2019"/>
    <xMin value="-472"/>
    <yMin value="-513"/>
    <xMax value="3649"/>
    <yMax value="2003"/>
<macStyle value="00000000 00000010"/>
    <lowestRecPPEM value="3"/>
    <fontDirectionHint value="2"/>
    <indexToLocFormat value="0"/>
    <glyphDataFormat value="0"/>
  </head>
          <CharString index="0">
            -73 callsubr
            48 -71 115 hhcurveto
            return
          </CharString>
          <CharString index="1">
            rmoveto
            -248 128 -127 152 return
          </CharString>
          <CharString index="2">
            rmoveto
            -434 -54 -21 -93 86 -15 return
          </CharString>
          <CharString index="3">
            rmoveto
            -35 callsubr
            32 callsubr
            endchar
          </CharString>
          <CharString index="4">
            44 callsubr
            endchar
          </CharString>
          <CharString index="5">
            134 callsubr
            endchar
          </CharString>
          <CharString index="6">
            130 callsubr
            endchar
          </CharString>
          <CharString index="7">
            -219 -46 93 -149 205 160 callsubr
            50 -71 116 hhcurveto
            return
          </CharString>
          <CharString index="8">
            21 97 -625 0 -20 -97 return
          </CharString>
          <CharString index="9">
            rmoveto
            -1095 hlineto
            -20 callsubr
            -31 callsubr
            1134 -42 callsubr
            -51 callsubr
            endchar
          </CharString>
          <CharString index="10">
            rlineto
            51 -11 10 -18 -11 -49 -121 -570 rcurveline
            -158 -34 54 -79 131 hhcurveto
            return
          </CharString>
          <CharString index="11">
            101 115 -14 callsubr
            -36 return
          </CharString>
          <CharString index="12">
            26 callsubr
            endchar
          </CharString>
          <CharString index="13">
            rmoveto
            322 239 202 371 81 hvcurveto
            149 672 20 93 23 19 135 21 rlinecurve
            20 97 -461 0 27 callsubr
            rlineto
            127 -21 16 -19 -21 -93 -130 -614 rcurveline
            -23 callsubr
            endchar
          </CharString>
          <CharString index="14">
            148 -14 12 -20 -18 -86 rlinecurve
            -215 47 callsubr
            -65 callgsubr
            endchar
          </CharString>
          <CharString index="15">
            rmoveto
            215 1010 18 86 20 17 155 17 rlinecurve
            return
          </CharString>
          <CharString index="16">
            4 callsubr
            endchar
          </CharString>
          <CharString index="17">
            rmoveto
            64 callgsubr
            return
          </CharString>
          <CharString index="18">
            -168 -790 268 0 return
          </CharString>
          <CharString index="19">
            1564 rmoveto
            204 145 138 -145 return
          </CharString>
          <CharString index="20">
            1216 rmoveto
            85 68 68 85 78 return
          </CharString>
          <CharString index="21">
            -60 callsubr
            endchar
          </CharString>
          <CharString index="22">
            1860 233 callsubr
            return
          </CharString>
          <CharString index="23">
            1881 rmoveto
            -205 -145 return
          </CharString>
          <CharString index="24">
            61 callsubr
            124 -13 callsubr
            return
          </CharString>
          <CharString index="25">
            1225 rmoveto
            80 -76 callsubr
            return
          </CharString>
          <CharString index="26">
            188 352 -106 callsubr
            return
          </CharString>
          <CharString index="27">
            rmoveto
            -389 -53 -19 -95 77 -13 55 -11 16 -17 3 -46 rlinecurve
            51 -871 -116 -109 -190 -152 -145 -100 rlinecurve
            -24 293 vlineto
            104 115 93 108 84 99 62 71 58 70 55 67 rrcurveto
            317 397 150 275 139 vvcurveto
            95 -65 64 -91 -88 -67 -62 -83 73 callgsubr
            endchar
          </CharString>
          <CharString index="28">
            -97 -461 rlineto
            -158 -32 52 -79 131 hhcurveto
            101 116 46 63 53 hvcurveto
            22 99 rlineto
            -29 -37 -51 -11 -32 hhcurveto
            -49 -14 34 59 13 hvcurveto
            93 432 rlineto
            222 47 -82 221 callsubr
            return
          </CharString>
          <CharString index="29">
            1860 rmoveto
            -220 -296 104 0 return
          </CharString>
          <CharString index="30">
            364 285 rlineto
            10 vlineto
            return
          </CharString>
          <CharString index="31">
            64 64 80 73 -56 57 -77 return
          </CharString>
          <CharString index="32">
            rmoveto
            196 -541 -85 -405 -18 -85 -22 -17 -172 -18 rlinecurve
            -20 -96 660 0 21 96 -164 18 -15 17 18 85 rlinecurve
            87 410 192 callsubr
            endchar
          </CharString>
          <CharString index="33">
            rmoveto
            -71 -60 -58 -72 -66 51 -52 70 72 59 57 73 67 -51 51 -70 hvcurveto
            endchar
          </CharString>
          <CharString index="34">
            146 117 86 157 69 vhcurveto
            -1 -5 -6 -31 -6 vvcurveto
            -124 -22 return
          </CharString>
          <CharString index="35">
            rmoveto
            84 -80 138 154 1 1 57 -38 rlineto
            -87 131 return
          </CharString>
          <CharString index="36">
            1209 rmoveto
            89 72 71 90 82 -63 63 -86 return
          </CharString>
          <CharString index="37">
            rmoveto
            -388 -53 -20 -95 77 -13 rlineto
            54 -10 return
          </CharString>
          <CharString index="38">
            -421 -101 callgsubr
            return
          </CharString>
          <CharString index="39">
            rmoveto
            52 callgsubr
            return
          </CharString>
          <CharString index="40">
            49 -71 115 hhcurveto
            100 114 -14 callsubr
            -36 -34 callgsubr
            return
          </CharString>
          <CharString index="41">
            0 -127 296 -175 0 -252 -296 rlineto
            return
          </CharString>
          <CharString index="42">
            1556 rmoveto
            -283 -14 hlineto
            return
          </CharString>
          <CharString index="43">
            -59 61 -82 -96 callgsubr
            return
          </CharString>
          <CharString index="44">
            -321 28 -59 callgsubr
            65 callgsubr
            return
          </CharString>
          <CharString index="45">
            1556 rmoveto
            -233 -197 -146 197 return
          </CharString>
          <CharString index="46">
            rmoveto
            79 63 61 77 -1 hvcurveto
            70 -56 54 -76 -79 return
          </CharString>
          <CharString index="47">
            -50 -11 -33 hhcurveto
            -49 -13 34 59 12 hvcurveto
            return
          </CharString>
          <CharString index="48">
            19 callsubr
            446 hmoveto
            80 return
          </CharString>
          <CharString index="49">
            -88 -73 -71 -90 -82 63 -63 86 hvcurveto
            return
          </CharString>
          <CharString index="50">
            rmoveto
            326 107 281 -107 22 100 return
          </CharString>
          <CharString index="51">
            rmoveto
            60 57 45 59 13 hvcurveto
            60 return
          </CharString>
          <CharString index="52">
            -436 115 callgsubr
            return
          </CharString>
          <CharString index="53">
            420 rlineto
            -87 hlineto
            -109 return
          </CharString>
          <CharString index="54">
            268 23 callgsubr
            return
          </CharString>
          <CharString index="55">
            rmoveto
            282 247 127 207 146 -99 96 -198 36 hvcurveto
            -198 36 rlineto
            -93 17 -20 25 -1 33 -1 37 36 30 53 17 rrcurveto
            -8 38 42 -4 46 hhcurveto
            281 161 177 206 62 -17 59 -35 50 hvcurveto
            226 -31 27 135 -357 -13 rlineto
            34 -63 -83 20 -104 hhcurveto
            -277 -164 -168 -211 -122 67 -108 132 -54 hvcurveto
            -144 -38 -76 -71 1 -94 1 -64 34 -57 77 -35 rrcurveto
            -178 -33 -111 -86 -101 vvcurveto
            -162 203 -90 265 vhcurveto
            -10 1090 rmoveto
            140 62 159 123 95 47 -86 -104 -142 -64 -156 -122 -95 -46 85 104 vhcurveto
            -246 -808 rmoveto
            72 57 53 110 37 vhcurveto
            4 4 -1 -1 4 hvcurveto
            190 -33 rlineto
            131 -22 47 -47 -66 vvcurveto
            -97 -126 -60 -150 -167 -104 67 98 vhcurveto
            endchar
          </CharString>
          <CharString index="56">
            -261 -10 rrcurveto
            -236 -8 121 571 rlineto
            226 hlineto
            68 17 -29 -171 -7 hvcurveto
            82 hlineto
            108 510 rlineto
            -81 hlineto
            -173 -70 -27 -26 -66 hhcurveto
            -226 hlineto
            114 538 229 -8 218 -7 53 -39 5 -214 rlinecurve
            86 hlineto
            return
          </CharString>
          <CharString index="57">
            -39 -61 -37 callgsubr
            107 508 148 callsubr
            -114 -538 rlineto
            -216 -45 89 -133 199 hhcurveto
            return
          </CharString>
          <CharString index="58">
            rmoveto
            423 245 318 298 209 110 -118 -220 8 vhcurveto
            3 callgsubr
            return
          </CharString>
          <CharString index="59">
            rmoveto
            -71 -59 -58 -72 -66 50 -52 70 72 59 57 73 67 -51 51 -70 hvcurveto
            endchar
          </CharString>
          <CharString index="60">
            1556 rmoveto
            -247 -384 124 -13 callsubr
            return
          </CharString>
          <CharString index="61">
            1629 rmoveto
            547 hlineto
            31 147 rlineto
            -546 hlineto
            return
          </CharString>
          <CharString index="62">
            1556 rmoveto
            -241 -10 hlineto
            237 -374 rlineto
            return
          </CharString>
          <CharString index="63">
            1583 rmoveto
            177 112 118 197 return
          </CharString>
          <CharString index="64">
            rmoveto
            564 hlineto
            31 145 rlineto
            -564 hlineto
            endchar
          </CharString>
          <CharString index="65">
            0 102 -54 callsubr
            -265 -62 -25 return
          </CharString>
          <CharString index="66">
            -140 145 -107 -103 callgsubr
            return
          </CharString>
          <CharString index="67">
            rmoveto
            170 99 18 callsubr
            return
          </CharString>
          <CharString index="68">
            282 -370 rlineto
            111 hlineto
            return
          </CharString>
          <CharString index="69">
            51 -11 10 -18 -10 -49 rlinecurve
            return
          </CharString>
          <CharString index="70">
            rmoveto
            -431 -2 296 -251 387 hhcurveto
            190 196 60 68 91 hvcurveto
            84 390 18 86 16 18 136 14 rlinecurve
            20 96 -583 0 -20 -96 rlineto
            159 -16 11 -15 -18 -86 -71 -337 rcurveline
            -31 -45 -80 -17 -71 hhcurveto
            -240 -157 199 299 423 246 318 298 209 109 -118 -220 8 hvcurveto
            87 -5 57 320 rlineto
            79 -94 92 callgsubr
            endchar
          </CharString>
          <CharString index="71">
            1353 1608 1444 rmoveto
            -1250 hlineto
            -12 callsubr
            55 callsubr
            103 callsubr
            661 0 20 96 -164 18 -14 17 18 85 rlinecurve
            91 callsubr
            return
          </CharString>
          <CharString index="72">
            -150 1152 -239 0 -640 -1147 -89 -160 -29 -24 -128 -16 rlinecurve
            -21 -97 470 0 20 97 -147 21 -12 27 80 149 rlinecurve
            98 183 464 0 21 -183 return
          </CharString>
          <CharString index="73">
            -432 -3 293 -250 383 hhcurveto
            183 169 50 67 86 hvcurveto
            72 329 rlineto
            29 callgsubr
          </CharString>
          <CharString index="74">
            110 459 rlineto
            -87 hlineto
            -128 -294 -85 -39 -206 -8 rrcurveto
            -198 -6 return
          </CharString>
          <CharString index="75">
            1860 rmoveto
            -228 -10 hlineto
            248 -285 rlineto
            90 hlineto
            return
          </CharString>
          <CharString index="76">
            -216 -1010 -19 -86 -20 -17 -154 -17 rlinecurve
            -21 -97 return
          </CharString>
          <CharString index="77">
            102 0 -126 296 -176 0 -251 -296 rlineto
            return
          </CharString>
          <CharString index="78">
            98 callsubr
            hvcurveto
            -70 1 56 -54 76 hhcurveto
            endchar
          </CharString>
          <CharString index="79">
            1233 648 1031 -90 callsubr
            return
          </CharString>
          <CharString index="80">
            1180 rmoveto
            196 125 136 230 return
          </CharString>
          <CharString index="81">
            1588 rmoveto
            71 59 57 73 66 -50 51 return
          </CharString>
          <CharString index="82">
            -140 145 -108 0 128 -297 return
          </CharString>
          <CharString index="83">
            1618 827 28 callsubr
            return
          </CharString>
          <CharString index="84">
            -414 -88 236 -217 328 hhcurveto
            return
          </CharString>
          <CharString index="85">
            751 1499 29 callsubr
            return
          </CharString>
          <CharString index="86">
            -18 -85 rlineto
            26 hlineto
            82 43 -30 -51 -46 return
          </CharString>
          <CharString index="87">
            -20 -97 147 -17 14 -17 -18 -86 rlinecurve
            return
          </CharString>
          <CharString index="88">
            -70 -72 -59 -57 -74 -65 51 -51 70 hvcurveto
            return
          </CharString>
          <CharString index="89">
            143 -653 -140 -17 -83 rlineto
            return
          </CharString>
          <CharString index="90">
            -40 -30 -72 -1 hvcurveto
            -58 1 -48 16 return
          </CharString>
          <CharString index="91">
            -80 -65 -64 -80 -74 56 -56 78 hvcurveto
            return
          </CharString>
          <CharString index="92">
            1596 rmoveto
            66 55 54 69 return
          </CharString>
          <CharString index="93">
            46 63 54 hvcurveto
            21 99 rlineto
            -29 return
          </CharString>
          <CharString index="94">
            0 428 370 rlineto
            14 vlineto
            return
          </CharString>
          <CharString index="95">
            -91 -380 rlineto
            87 hlineto
            88 return
          </CharString>
          <CharString index="96">
            rmoveto
            101 -1152 235 0 531 1044 73 -1044 239 0 589 1148 82 161 35 23 126 15 rlinecurve
            21 97 -466 0 -21 -97 144 -16 7 -29 -71 -147 rlinecurve
            -430 -893 -55 889 -9 150 15 25 157 21 rlinecurve
            20 97 -599 0 -21 -97 144 -16 6 -29 -70 -147 rlinecurve
            -429 -893 -55 889 -10 150 16 25 156 21 rlinecurve
            21 97 -619 0 -20 -97 114 -15 29 -23 14 -157 rlinecurve
            endchar
          </CharString>
          <CharString index="97">
            rmoveto
            100 468 141 0 261 -685 357 0 20 91 -70 23 -41 48 -84 215 rlinecurve
            -197 503 250 228 191 172 55 45 135 22 rlinecurve
            20 97 -513 0 -21 -97 145 -13 13 -38 -123 -123 rlinecurve
            -377 -373 -138 0 91 427 18 86 21 19 140 15 rlinecurve
            21 97 -611 -48 callgsubr
            -215 47 callsubr
            611 0 19 97 -132 15 -13 19 18 86 rlinecurve
            endchar
          </CharString>
          <CharString index="98">
            -22 -18 -146 -15 rlinecurve
            -20 -97 618 0 21 97 -145 15 -17 21 19 87 rlinecurve
            214 1004 19 87 24 21 153 15 rlinecurve
            19 97 -618 0 -21 -97 139 -15 15 -18 -19 -87 rlinecurve
            -91 -430 50 callgsubr
            -20 -97 147 -17 15 -20 -18 -86 rlinecurve
            -215 -1004 -18 -86 -22 -20 -155 -17 rlinecurve
            -21 -97 return
          </CharString>
          <CharString index="99">
            rmoveto
            102 91 72 143 30 hvcurveto
            -108 hlineto
            -50 -10 -30 -22 -39 hhcurveto
            -25 -26 8 14 -35 hvcurveto
            -28 13 rlineto
            18 -42 -41 12 -49 hhcurveto
            -101 -91 -72 -142 -31 hvcurveto
            108 hlineto
            50 11 29 21 41 hhcurveto
            25 24 -7 -15 35 hvcurveto
            30 -13 rlineto
            -17 40 41 -13 49 hhcurveto
            return
          </CharString>
          <CharString index="100">
            237 1116 18 85 21 17 166 18 rlinecurve
            20 96 -636 0 -20 -97 rlineto
            148 -16 12 -17 -18 -87 -215 -1010 rcurveline
            -18 -85 -20 -18 -155 -17 -21 -97 rcurveline
            return
          </CharString>
          <CharString index="101">
            267 1255 -435 -55 -21 -93 86 -15 rlineto
            52 -11 9 -18 -11 -49 -63 -296 rcurveline
            110 callgsubr
            return
          </CharString>
          <CharString index="102">
            rmoveto
            138 137 54 96 72 hvcurveto
            22 102 rlineto
            133 callsubr
            -302 206 -144 201 vhcurveto
            endchar
          </CharString>
          <CharString index="103">
            rmoveto
            205 962 18 86 20 17 155 17 rlinecurve
            20 97 -624 0 -20 -97 147 -17 return
          </CharString>
          <CharString index="104">
            1628 558 217 rmoveto
            98 461 604 0 -98 -461 -18 -87 return
          </CharString>
          <CharString index="105">
            rmoveto
            -415 -101 callgsubr
            -89 callsubr
            141 callsubr
            endchar
          </CharString>
          <CharString index="106">
            12 10 callsubr
            -12 hvcurveto
            -59 -13 38 -45 60 hhcurveto
            373 hmoveto
            60 return
          </CharString>
          <CharString index="107">
            -82 callgsubr
            -129 384 -195 0 -292 -384 rlineto
            return
          </CharString>
          <CharString index="108">
            1588 rmoveto
            71 60 57 73 66 -51 51 -19 callsubr
            return
          </CharString>
          <CharString index="109">
            1186 1130 hmoveto
            -33 callsubr
            -7 callsubr
            return
          </CharString>
          <CharString index="110">
            rmoveto
            -170 -397 148 0 292 384 rlineto
            13 vlineto
            endchar
          </CharString>
          <CharString index="111">
            97 115 46 63 53 hvcurveto
            22 99 rlineto
            198 callsubr
            return
          </CharString>
          <CharString index="112">
            1545 rmoveto
            588 -94 21 98 -574 164 rlineto
            return
          </CharString>
          <CharString index="113">
            1545 rmoveto
            36 168 -644 -164 -20 -98 rlineto
            return
          </CharString>
          <CharString index="114">
            1266 rmoveto
            606 hlineto
            34 161 rlineto
            -606 hlineto
            return
          </CharString>
          <CharString index="115">
            41 -29 -44 -46 -45 -29 -70 99 callgsubr
          </CharString>
          <CharString index="116">
            772 495 -19 109 callsubr
            return
          </CharString>
          <CharString index="117">
            -38 44 -60 hhcurveto
            -13 hlineto
            -60 -57 -44 -60 return
          </CharString>
          <CharString index="118">
            1352 rmoveto
            -127 108 -82 return
          </CharString>
          <CharString index="119">
            -491 rmoveto
            106 callsubr
            return
          </CharString>
          <CharString index="120">
            30 rlineto
            40 -47 -48 24 -60 hhcurveto
            return
          </CharString>
          <CharString index="121">
            -38 hhcurveto
            -27 -23 14 25 -28 hvcurveto
            return
          </CharString>
          <CharString index="122">
            rlinecurve
            20 97 -618 0 -20 -97 return
          </CharString>
          <CharString index="123">
            rmoveto
            -70 -60 97 callsubr
          </CharString>
          <CharString index="124">
            217 -92 callsubr
            return
          </CharString>
          <CharString index="125">
            70 122 111 -82 71 return
          </CharString>
          <CharString index="126">
            -64 -80 -74 56 -56 77 hvcurveto
            return
          </CharString>
          <CharString index="127">
            rmoveto
            -141 -162 -44 -25 -130 -14 rrcurveto
            -21 -97 487 0 20 97 -148 21 1 30 106 128 rlinecurve
            270 330 141 -329 55 -127 -15 -31 -158 -21 rlinecurve
            -20 -97 641 0 20 97 -100 22 -37 24 -49 114 rlinecurve
            -211 490 348 405 134 154 43 26 131 14 rlinecurve
            21 97 -486 0 -20 -97 148 -21 0 -29 -107 -129 rlinecurve
            -257 -316 -136 316 -55 127 14 31 158 21 rlinecurve
            21 97 -641 0 -21 -97 rlineto
            104 -22 34 -24 49 -113 206 -478 rcurveline
            endchar
          </CharString>
          <CharString index="128">
            326 hlineto
            19 91 rlineto
            -73 18 -36 43 -85 207 -123 304 rcurveline
            208 66 157 131 212 vvcurveto
            237 -200 135 -349 vhcurveto
            -570 hlineto
            -21 214 callsubr
            -19 -17 -156 -15 rlinecurve
            -20 -97 612 0 20 97 rlineto
            -134 15 -12 18 19 86 84 397 rcurveline
            122 hlineto
            27 27 1 2 27 hvcurveto
            334 446 rmoveto
            -207 -151 -120 -244 -7 vhcurveto
            -118 -3 128 605 95 -2 rlineto
            188 -6 102 -92 -168 vvcurveto
            return
          </CharString>
          <CharString index="129">
            21 97 rlineto
            -169 16 -12 27 18 83 69 323 rcurveline
            149 hlineto
            397 308 161 324 257 -185 156 -388 hvcurveto
            -552 hlineto
            -20 -97 rlineto
            151 -14 13 -22 -19 -85 -215 -1008 rcurveline
            -18 -85 -22 -22 -156 -14 -21 -97 rcurveline
            745 1332 rmoveto
            83 -4 rlineto
            184 -7 117 -92 -186 vvcurveto
            -256 -178 -118 -245 -8 vhcurveto
            -105 -4 rlineto
            endchar
          </CharString>
          <CharString index="130">
            rmoveto
            -259 149 -192 275 334 228 283 324 152 -53 133 -111 79 vhcurveto
            -11 44 50 -7 50 hhcurveto
            186 125 78 148 86 -40 73 -55 43 hvcurveto
            -84 hlineto
            5 -16 4 -26 -26 vvcurveto
            -154 -120 -118 -157 vhcurveto
            -80 -66 23 -110 hhcurveto
            -336 -238 -265 -348 hvcurveto
            274 -74 rmoveto
            89 callsubr
            -97 -62 84 168 vhcurveto
            endchar
          </CharString>
          <CharString index="131">
            rmoveto
            -484 hlineto
            -20 -97 140 -15 10 -28 -24 -104 rlinecurve
            -223 -972 -21 -91 -23 -21 -145 -19 rlinecurve
            -21 -97 465 0 21 97 -141 19 -10 21 19 91 rlinecurve
            197 952 182 -1180 148 0 200 365 464 813 -187 -964 -17 -85 -19 -18 -156 -14 rlinecurve
            -21 -97 618 0 20 97 -20 callgsubr
            endchar
          </CharString>
          <CharString index="132">
            322 238 202 371 82 hvcurveto
            187 833 rlineto
            -1 11 11 -1 12 hhcurveto
            166 108 80 141 84 -42 80 -52 46 hvcurveto
            -91 hlineto
            8 -17 3 -28 -29 vvcurveto
            -154 -106 -132 -212 vhcurveto
            -117 hlineto
            27 callsubr
            127 -21 16 -19 -21 -93 rlinecurve
            endchar
          </CharString>
          <CharString index="133">
            rmoveto
            136 136 53 97 74 hvcurveto
            22 102 rlineto
            138 callsubr
            -302 197 -144 210 vhcurveto
            134 942 rmoveto
            67 34 -42 -74 -128 -132 -91 -191 -59 hvcurveto
            -41 -13 rlineto
            248 13 115 159 135 hhcurveto
            return
          </CharString>
          <CharString index="134">
            -21 -97 rlineto
            148 -22 12 -18 -20 -93 -135 -653 rcurveline
            -286 -60 -173 -120 -184 hhcurveto
            -213 -137 137 316 68 hvcurveto
            130 606 20 93 24 18 154 22 rlinecurve
            19 97 -607 0 -21 -97 return
          </CharString>
          <CharString index="135">
            rmoveto
            380 -284 237 -456 vhcurveto
            -516 hlineto
            -20 -97 rlineto
            146 -17 15 -16 -18 -87 -216 -1010 rcurveline
            -19 -86 -20 -17 -154 -17 -21 -97 rcurveline
            562 hlineto
            584 417 341 486 hvcurveto
            return
          </CharString>
          <CharString index="136">
            rmoveto
            -435 -55 -20 -93 86 -15 rlineto
            51 -11 9 -18 -10 -49 -221 -1038 rcurveline
            -158 -34 54 -79 131 hhcurveto
            102 114 -14 callsubr
            -36 -60 callsubr
            return
          </CharString>
          <CharString index="137">
            rmoveto
            -435 -56 -20 -92 87 -15 rlineto
            50 -11 9 -18 -10 -49 -94 -445 rcurveline
            -220 -46 92 -148 206 160 callsubr
            177 callsubr
            endchar
          </CharString>
          <CharString index="138">
            rmoveto
            215 177 137 75 callgsubr
          </CharString>
          <CharString index="139">
            16 -149 -23 -27 -157 -21 rlinecurve
            -21 -97 627 0 -49 callgsubr
            -724 304 rmoveto
            321 600 67 -600 rlineto
            return
          </CharString>
          <CharString index="140">
            1588 rmoveto
            70 60 101 callsubr
            return
          </CharString>
          <CharString index="141">
            111 callsubr
            113 0 -129 384 -195 0 -292 -384 rlineto
            return
          </CharString>
          <CharString index="142">
            hvcurveto
            63 1 -47 48 -65 hhcurveto
            -67 -55 -54 -70 -1 hvcurveto
            -62 48 -48 65 vhcurveto
            return
          </CharString>
          <CharString index="143">
            1596 rmoveto
            83 callgsubr
            346 hmoveto
            83 callgsubr
            return
          </CharString>
          <CharString index="144">
            58 45 59 12 hvcurveto
            60 13 -39 44 -59 hhcurveto
            -13 hlineto
            -60 -57 -44 -60 return
          </CharString>
          <CharString index="145">
            rmoveto
            -363 -2 234 -306 427 hhcurveto
            178 callsubr
            endchar
          </CharString>
          <CharString index="146">
            98 461 604 0 -98 -461 -18 -87 -9 callsubr
            return
          </CharString>
          <CharString index="147">
            -114 0 130 -384 194 0 291 384 rlineto
            return
          </CharString>
          <CharString index="148">
            87 140 22 hvcurveto
            -109 hlineto
            -57 -15 -93 -39 -115 hhcurveto
            return
          </CharString>
          <CharString index="149">
            1859 rmoveto
            31 143 -653 -140 -17 -82 rlineto
            return
          </CharString>
          <CharString index="150">
            1266 rmoveto
            607 hlineto
            34 161 rlineto
            -607 hlineto
            return
          </CharString>
          <CharString index="151">
            101 113 -14 callsubr
            -37 210 callsubr
            return
          </CharString>
          <CharString index="152">
            1861 rmoveto
            -193 -7 hlineto
            192 -290 rlineto
            return
          </CharString>
          <CharString index="153">
            1546 rmoveto
            -196 -126 -137 -229 return
          </CharString>
          <CharString index="154">
            -1010 -18 -86 -20 -17 -155 -17 rlinecurve
            -21 -97 return
          </CharString>
          <CharString index="155">
            rmoveto
            564 hlineto
            30 145 rlineto
            -564 hlineto
            endchar
          </CharString>
          <CharString index="156">
            -238 171 -62 0 -308 -171 rlineto
            return
          </CharString>
          <CharString index="157">
            -237 171 -62 0 -308 -171 rlineto
            return
          </CharString>
          <CharString index="158">
            -21 -36 -42 hvcurveto
            -19 -80 rlineto
            5 17 33 5 return
          </CharString>
          <CharString index="159">
            -35 22 -21 -92 rcurveline
            -36 50 68 -23 84 hhcurveto
            return
          </CharString>
          <CharString index="160">
            rmoveto
            608 hlineto
            28 131 rlineto
            -609 hlineto
            return
          </CharString>
          <CharString index="161">
            624 hlineto
            24 111 rlineto
            -624 hlineto
            return
          </CharString>
          <CharString index="162">
            225 69 34 252 8 rrcurveto
            52 1 return
          </CharString>
          <CharString index="163">
            148 103 165 28 hvcurveto
            -107 hlineto
            -67 return
          </CharString>
          <CharString index="164">
            -74 46 67 13 hvcurveto
            -107 hlineto
            -165 -44 return
          </CharString>
          <CharString index="165">
            rmoveto
            79 62 61 77 58 callgsubr
          </CharString>
          <CharString index="166">
            39 57 11 hvcurveto
            -110 hlineto
            -140 return
          </CharString>
          <CharString index="167">
            26 hvcurveto
            -110 hlineto
            -43 -8 -30 -19 return
          </CharString>
          <CharString index="168">
            1556 rmoveto
            -248 -384 return
          </CharString>
          <CharString index="169">
            -108 hlineto
            -115 -17 -27 -28 return
          </CharString>
          <CharString index="170">
            187 0 252 297 rlineto
            return
          </CharString>
          <CharString index="171">
            -23 rlineto
            -33 40 40 -19 50 hhcurveto
            return
          </CharString>
          <CharString index="172">
            -80 18 83 -595 140 rlineto
            return
          </CharString>
          <CharString index="173">
            rmoveto
            -77 55 -59 83 95 65 58 211 125 vhcurveto
            59 100 36 -108 rlineto
            -185 61 67 -74 124 hhcurveto
            96 78 43 62 42 hvcurveto
            21 99 rlineto
            -23 -28 -33 -15 -36 hhcurveto
            -57 -45 36 151 -49 hvcurveto
            -72 214 103 160 39 59 30 42 25 30 rlinecurve
            -43 22 44 -29 51 hhcurveto
            78 59 63 76 76 -55 59 -83 -96 -68 -57 -211 -120 hvcurveto
            -66 -115 -125 372 -346 -51 -19 -95 80 -12 59 -10 15 -16 18 -53 rlinecurve
            113 -334 -97 -147 -39 -58 -30 -42 -25 -30 rlinecurve
            42 -22 -44 29 -52 hhcurveto
            -77 -59 -62 -76 hvcurveto
            endchar
          </CharString>
          <CharString index="174">
            rmoveto
            247 -129 127 -152 -142 -115 -81 -151 -70 vhcurveto
            50 222 -69 callsubr
            -225 -1057 -12 -58 -22 -14 -134 -23 rlinecurve
            -20 -98 614 0 21 98 rlineto
            -171 25 -20 11 12 59 68 325 rcurveline
            -47 43 72 -34 100 101 callgsubr
            -1 -100 -305 -205 hhcurveto
            -78 -53 37 42 -11 hvcurveto
            88 410 rlineto
            185 39 94 96 94 hhcurveto
            84 50 -65 -164 -1 hvcurveto
            endchar
          </CharString>
          <CharString index="175">
            rmoveto
            308 248 179 278 167 -83 120 -193 118 hvcurveto
            -77 47 rlineto
            -146 90 -55 72 98 vvcurveto
            124 107 79 144 181 107 -104 -199 11 vhcurveto
            86 hlineto
            51 320 rlineto
            62 -77 -172 55 -185 hhcurveto
            -344 -189 -188 -236 -169 91 -118 193 -119 hvcurveto
            78 -47 rlineto
            145 -90 46 -74 -103 vvcurveto
            -143 -123 -85 -151 -190 -133 112 200 -10 vhcurveto
            -86 hlineto
            -53 -325 rlineto
            -63 84 202 -58 185 hhcurveto
            return
          </CharString>
          <CharString index="176">
            rmoveto
            298 240 236 400 59 hvcurveto
            280 38 -81 147 -152 hhcurveto
            -95 -78 -87 -130 11 hvcurveto
            158 -37 53 -147 -28 -173 rrcurveto
            -196 -31 -121 -135 -151 hhcurveto
            -136 -47 83 155 33 hvcurveto
            7 32 64 266 17 80 rrcurveto
            198 41 -72 81 -159 hhcurveto
            -86 -81 -30 -30 -51 hvcurveto
            -20 -94 rlineto
            4 11 17 5 24 hhcurveto
            69 44 -36 -100 -21 hvcurveto
            -20 -94 -60 -261 -11 -47 rrcurveto
            -221 -47 102 -149 262 hhcurveto
            endchar
          </CharString>
          <CharString index="177">
            rmoveto
            -63 69 138 -45 153 hhcurveto
            267 152 150 172 125 -53 89 -144 84 hvcurveto
            -74 41 rlineto
            -95 56 -35 40 65 vvcurveto
            72 55 49 98 124 77 -78 -132 2 vhcurveto
            86 hlineto
            51 253 rlineto
            47 -71 -112 30 -157 hhcurveto
            -252 -156 -131 -180 -122 66 -90 137 -79 hvcurveto
            75 -41 rlineto
            95 -57 29 -43 -68 vvcurveto
            -79 -1 -58 -52 -106 hhcurveto
            -126 -96 83 156 -6 hvcurveto
            -86 hlineto
            return
          </CharString>
          <CharString index="178">
            rmoveto
            -425 hlineto
            -20 -97 141 -14 8 -29 -23 -104 rlinecurve
            -213 -970 -21 -95 -24 -20 -134 -18 rlinecurve
            -21 -97 463 0 20 97 -148 20 -11 17 19 96 rlinecurve
            181 915 499 -1145 264 0 268 1214 21 96 23 19 135 18 rlinecurve
            20 97 -462 0 -21 -97 rlineto
            149 -19 10 -18 -19 -96 -180 -914 rcurveline
            return
          </CharString>
          <CharString index="179">
            1648 931 -31 rmoveto
            440 345 345 469 382 -288 312 -404 -435 -350 -346 -468 -383 294 -311 398 hvcurveto
            -1 86 rmoveto
            -338 -256 268 340 428 322 300 367 343 250 -270 -338 -430 -315 -298 -373 hvcurveto
            return
          </CharString>
          <CharString index="180">
            1522 795 -31 rmoveto
            322 239 202 371 81 hvcurveto
            149 672 20 93 23 19 135 21 rlinecurve
            20 97 -461 0 27 callsubr
            rlineto
            127 -21 16 -19 -21 -93 -130 -614 rcurveline
            -23 callsubr
            return
          </CharString>
          <CharString index="181">
            -13 hvcurveto
            -59 -13 39 -45 60 hhcurveto
            373 hmoveto
            60 57 45 59 12 hvcurveto
            60 14 -39 44 -59 hhcurveto
            -14 hlineto
            -60 -56 -44 -60 -13 hvcurveto
            -59 -13 38 -45 60 hhcurveto
            -334 -126 -90 callsubr
            -100 callsubr
            -91 callsubr
          </CharString>
          <CharString index="182">
            750 1445 rmoveto
            -86 hlineto
            -276 -115 -14 -68 145 25 7 1 3 -4 -1 -6 rlinecurve
            -103 -489 -12 -55 -34 -13 -121 -11 rlinecurve
            -13 -68 485 0 14 68 -115 11 -30 14 12 55 rlinecurve
            return
          </CharString>
          <CharString index="183">
            rmoveto
            162 -122 132 -219 30 vhcurveto
            219 26 174 113 3 195 rrcurveto
            205 3 -179 128 -381 hhcurveto
            -539 hlineto
            -20 -97 rlineto
            147 -17 14 -17 179 callsubr
            endchar
          </CharString>
          <CharString index="184">
            rmoveto
            -139 -712 rlineto
            -231 -45 99 -97 175 hhcurveto
            120 118 49 68 72 hvcurveto
            20 93 rlineto
            -27 -43 -54 -11 -58 hhcurveto
            -117 -53 59 139 33 hvcurveto
            163 670 rlineto
            endchar
          </CharString>
          <CharString index="185">
            589 624 rmoveto
            251 144 247 244 -2 hvcurveto
            182 -95 -72 callgsubr
            -181 95 -167 199 vhcurveto
            return
          </CharString>
          <CharString index="186">
            -22 hvcurveto
            -25 22 rlineto
            33 -40 -40 19 -50 hhcurveto
            -86 -68 callgsubr
            22 19 -11 -20 22 hvcurveto
            25 64 callsubr
            return
          </CharString>
          <CharString index="187">
            13 47 hhcurveto
            70 33 -25 -41 -52 -57 -51 -89 -53 hvcurveto
            104 hlineto
            131 54 83 57 82 vvcurveto
            79 -72 61 -111 vhcurveto
            return
          </CharString>
          <CharString index="188">
            rmoveto
            185 56 callsubr
            -16 -93 -46 -112 hhcurveto
            -112 57 callsubr
            106 -103 185 hhcurveto
            endchar
          </CharString>
          <CharString index="189">
            49 16 53 hhcurveto
            78 37 -30 -47 -61 -64 -61 -101 -62 hvcurveto
            120 hlineto
            -91 callgsubr
            -83 73 return
          </CharString>
          <CharString index="190">
            -40 hhcurveto
            -25 -25 8 15 -35 hvcurveto
            -29 12 rlineto
            18 -41 -41 12 -49 hhcurveto
            -101 -92 -72 -143 -30 hvcurveto
            return
          </CharString>
          <CharString index="191">
            rmoveto
            170 98 18 callsubr
            -103 -68 -54 -21 -36 -42 hvcurveto
            146 callsubr
            76 hhcurveto
            endchar
          </CharString>
          <CharString index="192">
            1247 659 1030 rmoveto
            -69 callsubr
            -89 callsubr
            149 callsubr
            return
          </CharString>
          <CharString index="193">
            -130 -194 -87 rlinecurve
            30 -87 340 100 126 148 65 302 rlinecurve
            endchar
          </CharString>
          <CharString index="194">
            119 hlineto
            272 384 rmoveto
            -227 -10 hlineto
            133 -374 rlineto
            111 hlineto
            return
          </CharString>
          <CharString index="195">
            118 hlineto
            273 384 rmoveto
            -228 -10 hlineto
            134 -374 rlineto
            110 hlineto
            return
          </CharString>
          <CharString index="196">
            239 88 322 190 97 62 -84 -168 -239 -88 -322 -190 return
          </CharString>
          <CharString index="197">
            -250 -144 -248 -244 2 vhcurveto
            -182 95 -166 199 vhcurveto
            return
          </CharString>
          <CharString index="198">
            237 1116 51 -1 249 -8 55 -34 -8 -225 rlinecurve
            87 hlineto
            return
          </CharString>
          <CharString index="199">
            1 hvcurveto
            63 -47 48 -65 -67 -55 -54 -70 vhcurveto
            -62 -1 48 -48 65 hhcurveto
            return
          </CharString>
          <CharString index="200">
            hvcurveto
            -95 hlineto
            -96 -18 -68 -56 -108 hhcurveto
            -94 -65 56 70 10 1 10 return
          </CharString>
          <CharString index="201">
            95 hlineto
            216 297 rmoveto
            -182 -7 hlineto
            109 -290 rlineto
            return
          </CharString>
          <CharString index="202">
            55 43 -43 -132 4 hvcurveto
            -220 2 -75 -263 -125 hhcurveto
            return
          </CharString>
          <CharString index="203">
            -56 -42 43 132 -4 hvcurveto
            220 -2 75 263 125 hhcurveto
            return
          </CharString>
          <CharString index="204">
            -58 -72 -66 51 -52 70 72 59 57 73 67 -52 51 -70 hvcurveto
            endchar
          </CharString>
          <CharString index="205">
            rmoveto
            79 63 61 77 hvcurveto
            70 -1 -56 54 -76 hhcurveto
            -78 -64 -61 -77 return
          </CharString>
          <CharString index="206">
            1596 rmoveto
            88 67 -62 callgsubr
            -22 -19 11 21 return
          </CharString>
          <CharString index="207">
            1556 rmoveto
            -170 -398 148 -89 callgsubr
            return
          </CharString>
          <CharString index="208">
            57 73 66 -51 51 -70 -72 -59 -57 -74 -65 52 -51 70 hvcurveto
            return
          </CharString>
          <CharString index="209">
            1900 rmoveto
            -85 -72 -31 -38 -37 hvcurveto
            -17 -73 rlineto
            18 return
          </CharString>
          <CharString index="210">
            -237 -1116 -18 -85 -23 -17 -170 -18 rlinecurve
            -21 -96 return
          </CharString>
          <CharString index="211">
            58 58 73 66 -51 51 -69 -72 -59 -57 -73 -67 51 -51 return
          </CharString>
          <CharString index="212">
            1540 779 1444 71 callsubr
            return
          </CharString>
          <CharString index="213">
            177 105 81 119 101 -72 70 -120 15 hvcurveto
            return
          </CharString>
          <CharString index="214">
            14 -17 -102 callgsubr
            156 callsubr
            endchar
          </CharString>
          <CharString index="215">
            -101 -82 -74 -247 -29 hvcurveto
            108 hlineto
            116 17 return
          </CharString>
          <CharString index="216">
            rmoveto
            116 127 51 69 55 hvcurveto
            20 100 rlineto
            -35 return
          </CharString>
          <CharString index="217">
            1898 rmoveto
            -178 -111 -117 -198 return
          </CharString>
          <CharString index="218">
            1172 rmoveto
            233 197 146 -197 return
          </CharString>
          <CharString index="219">
            346 hmoveto
            66 55 54 69 35 callsubr
            return
          </CharString>
          <CharString index="220">
            -60 61 -82 -84 -69 -68 -86 -78 59 -60 83 hvcurveto
            return
          </CharString>
          <CharString index="221">
            -74 -247 -29 hvcurveto
            108 hlineto
            116 17 27 return
          </CharString>
          <CharString index="222">
            rmoveto
            564 hlineto
            31 145 rlineto
            -565 hlineto
            endchar
          </CharString>
          <CharString index="223">
            rmoveto
            216 177 136 75 callgsubr
          </CharString>
          <CharString index="224">
            1596 rmoveto
            87 68 60 202 23 hvcurveto
            return
          </CharString>
          <CharString index="225">
            1134 972 -17 128 callsubr
            return
          </CharString>
          <CharString index="226">
            76 -27 93 hhcurveto
            125 129 76 205 return
          </CharString>
          <CharString index="227">
            44 -30 -51 -46 -41 -30 -71 -1 hvcurveto
            -58 1 return
          </CharString>
          <CharString index="228">
            -64 -61 -77 1 vhcurveto
            -70 56 -54 77 vhcurveto
            endchar
          </CharString>
          <CharString index="229">
            hvcurveto
            -26 22 rlineto
            33 -39 -41 19 -50 hhcurveto
            -86 return
          </CharString>
          <CharString index="230">
            hhcurveto
            26 26 -7 -12 36 hvcurveto
            31 -11 rlineto
            -15 return
          </CharString>
          <CharString index="231">
            rmoveto
            624 hlineto
            23 111 rlineto
            -623 hlineto
            return
          </CharString>
          <CharString index="232">
            rmoveto
            -72 60 -54 73 77 61 58 70 38 -16 34 -25 23 vhcurveto
            14 36 42 8 47 hhcurveto
            140 86 -88 -208 -29 hvcurveto
            -5 -35 -152 -12 rlineto
            -332 -26 -180 -114 -195 vvcurveto
            -158 127 -97 171 189 127 118 163 45 vhcurveto
            -185 52 141 -96 175 hhcurveto
            149 127 61 87 68 hvcurveto
            22 101 rlineto
            -57 -68 -83 -28 -84 hhcurveto
            -162 -97 114 206 hvcurveto
            7 0 6 6 vvcurveto
            58 4 rlineto
            403 23 138 132 157 vvcurveto
            150 -126 94 -201 -126 -118 -51 -90 -93 vhcurveto
            89 -62 -111 52 -159 hhcurveto
            -218 -167 -108 -141 hvcurveto
            1038 126 rmoveto
            70 44 -41 -71 -105 -85 -96 -235 -21 hvcurveto
            -43 -3 rlineto
            201 27 97 136 125 hhcurveto
            -895 -644 rmoveto
            111 89 66 200 18 vhcurveto
            100 10 -3 -19 rlineto
            -235 -32 -87 -87 -122 hhcurveto
            -85 -60 47 89 hvcurveto
            endchar
          </CharString>
          <CharString index="233">
            rmoveto
            -1078 hlineto
            -805 -1171 -96 -140 -38 -23 -128 -13 rlinecurve
            -20 -97 489 0 21 97 -151 18 -9 27 86 131 rlinecurve
            186 280 451 0 -59 -310 -20 -113 -11 -17 -157 -16 rlinecurve
            -20 -97 1126 0 104 420 rlineto
            -84 hlineto
            -104 -252 -78 -35 -253 -11 rrcurveto
            -239 -10 106 566 rlineto
            219 hlineto
            68 18 -28 -168 -8 hvcurveto
            84 hlineto
            105 511 rlineto
            -83 hlineto
            -170 -67 -27 -26 -66 hhcurveto
            -220 hlineto
            100 535 224 -9 239 -10 31 -39 10 -209 rlinecurve
            85 hlineto
            -960 260 rmoveto
            82 hlineto
            -123 -651 rlineto
            -392 hlineto
            endchar
          </CharString>
          <CharString index="234">
            1412 558 217 rmoveto
            100 468 141 0 261 -685 357 0 20 91 -70 23 -41 48 -84 215 rlinecurve
            -197 503 250 228 191 172 55 45 135 22 rlinecurve
            20 97 -513 0 -21 -97 145 -13 13 -38 -123 -123 rlinecurve
            -377 -373 -138 0 91 427 18 86 21 19 140 15 rlinecurve
            21 97 -611 -48 callgsubr
            -215 47 callsubr
            611 0 19 97 -132 15 -13 19 18 86 rlinecurve
            return
          </CharString>
          <CharString index="235">
            rmoveto
            93 74 42 61 44 hvcurveto
            21 100 rlineto
            -23 -25 -31 -14 -34 hhcurveto
            -54 -43 37 155 -54 hvcurveto
            -106 310 119 95 169 135 73 37 98 18 rlinecurve
            16 81 -460 0 -17 -81 130 -12 12 -28 -120 -102 rlinecurve
            -311 -265 206 970 -435 115 callgsubr
            268 0 86 406 106 82 71 -222 rlineto
            -197 63 71 -86 121 hhcurveto
            return
          </CharString>
          <CharString index="236">
            1188 1216 666 rmoveto
            53 callgsubr
            678 -435 115 callgsubr
            202 callsubr
            return
          </CharString>
          <CharString index="237">
            rmoveto
            477 295 400 428 76 callgsubr
            hvcurveto
            -364 -2 234 -306 427 hhcurveto
            -18 132 rmoveto
            -198 -133 154 313 389 188 378 292 198 133 -153 -314 -389 -192 -378 -288 hvcurveto
            return
          </CharString>
          <CharString index="238">
            -153 -624 rmoveto
            159 hlineto
            1241 1444 rlineto
            -160 hlineto
            -1086 -729 -24 callgsubr
            993 -733 rmoveto
            251 144 247 244 -2 hvcurveto
            182 -96 -72 callgsubr
            -182 95 -166 200 vhcurveto
            return
          </CharString>
          <CharString index="239">
            25 hvcurveto
            -109 hlineto
            -43 -9 -29 -19 -41 hhcurveto
            -26 -27 7 12 -36 hvcurveto
            -30 11 rlineto
            15 -43 -42 11 -50 hhcurveto
            -103 -92 116 callgsubr
            25 -7 -13 36 hvcurveto
            31 -10 rlineto
            -15 43 42 -11 50 hhcurveto
            -305 -1576 -101 callsubr
          </CharString>
          <CharString index="240">
            -67 -75 -90 -20 -69 hhcurveto
            -157 -106 119 202 264 135 193 173 28 25 -4 -8 21 hvcurveto
            -47 -22 -32 -47 -54 vvcurveto
            -76 59 -57 76 84 63 61 82 139 -116 107 219 callsubr
            return
          </CharString>
          <CharString index="241">
            rmoveto
            334 228 285 327 259 -149 192 -275 -334 -228 -285 -327 -259 148 -192 276 hvcurveto
            9 125 rmoveto
            -97 -62 84 168 89 callsubr
            hvcurveto
            return
          </CharString>
          <CharString index="242">
            75 -27 94 hhcurveto
            125 129 76 205 -63 callgsubr
            -57 25 -101 61 rrcurveto
            -61 37 557 604 20 94 -761 0 -86 -335 rlineto
            87 hlineto
            110 42 24 16 86 hhcurveto
            313 hlineto
            return
          </CharString>
          <CharString index="243">
            rmoveto
            180 109 63 83 78 hvcurveto
            22 100 rlineto
            -63 -81 -104 -34 -121 hhcurveto
            -111 -73 47 75 75 40 50 155 55 hvcurveto
            37 12 rlineto
            197 67 119 84 181 vvcurveto
            168 return
          </CharString>
          <CharString index="244">
            -41 hhcurveto
            -26 -26 7 13 -36 hvcurveto
            -30 10 rlineto
            15 -43 -42 11 -50 hhcurveto
            -104 -92 -61 -122 -25 hvcurveto
            110 hlineto
            43 9 30 19 40 123 callsubr
            43 41 -11 50 hhcurveto
            return
          </CharString>
          <CharString index="245">
            -67 -75 -93 -20 -71 hhcurveto
            -138 -101 90 177 -17 hvcurveto
            53 15 rlineto
            325 94 207 109 185 vvcurveto
            139 -123 89 -184 -291 -267 -255 -362 return
          </CharString>
          <CharString index="246">
            hvcurveto
            50 12 -37 38 -57 hhcurveto
            -13 hlineto
            -85 callgsubr
            158 callsubr
            return
          </CharString>
          <CharString index="247">
            rmoveto
            253 3 173 156 213 vvcurveto
            131 -76 71 -91 -111 -67 -98 -112 -2 vhcurveto
            81 -14 53 -45 -69 vvcurveto
            -78 -75 -57 -118 -7 vhcurveto
            endchar
          </CharString>
          <CharString index="248">
            131 666 rlineto
            102 70 113 54 126 hhcurveto
            40 37 -5 -10 24 hvcurveto
            11 21 12 39 37 vvcurveto
            79 -38 51 -71 -98 -77 -78 -207 -138 vhcurveto
            return
          </CharString>
          <CharString index="249">
            22 109 -260 0 38 160 -272 -22 -30 -138 -161 0 -22 -109 160 0 -254 -1197 -53 callsubr
            return
          </CharString>
          <CharString index="250">
            rmoveto
            236 101 305 204 78 53 -37 -42 12 vhcurveto
            -88 -410 rlineto
            -185 -39 -94 -96 -94 hhcurveto
            -84 -50 64 165 1 hvcurveto
            endchar
          </CharString>
          <CharString index="251">
            25 -102 61 rrcurveto
            -61 37 557 604 21 94 -762 0 -86 -335 rlineto
            87 hlineto
            110 43 24 16 86 hhcurveto
            312 hlineto
            return
          </CharString>
          <CharString index="252">
            vhcurveto
            -2 95 -63 72 -107 31 117 14 116 65 -2 113 rrcurveto
            122 -120 62 -124 -140 -118 -82 -140 return
          </CharString>
          <CharString index="253">
            -18 -80 rlineto
            5 16 33 5 28 hhcurveto
            56 41 -29 -44 -46 -45 -29 -70 -46 -43 15 17 -33 hvcurveto
            -19 -85 rlineto
            -26 39 66 -20 return
          </CharString>
          <CharString index="254">
            -41 hhcurveto
            -26 -27 7 12 -35 hvcurveto
            -31 11 rlineto
            15 -42 -42 11 -51 hhcurveto
            -103 -92 116 callgsubr
            225 callsubr
            endchar
          </CharString>
          <CharString index="255">
            283 0 27 128 -284 -10 51 236 -279 -39 -44 -201 -163 -27 -18 -87 157 0 return
          </CharString>
          <CharString index="256">
            122 580 rlineto
            175 37 116 123 103 hhcurveto
            86 46 -69 -128 -27 hvcurveto
            -79 callsubr
            return
          </CharString>
          <CharString index="257">
            0 235 1105 19 90 20 14 150 16 15 callsubr
            140 -15 20 -16 -19 -89 rlinecurve
            endchar
          </CharString>
          <CharString index="258">
            1556 rmoveto
            -140 -398 141 0 256 384 rlineto
            14 vlineto
            -569 -346 rmoveto
            73 return
          </CharString>
          <CharString index="259">
            877 653 1030 rmoveto
            -415 -101 callgsubr
            -89 callsubr
            141 callsubr
            return
          </CharString>
          <CharString index="260">
            rmoveto
            80 62 61 77 hvcurveto
            70 -1 -55 54 -76 hhcurveto
            -79 -64 -61 -77 1 hvcurveto
            -70 56 -54 76 vhcurveto
            endchar
          </CharString>
          <CharString index="261">
            91 rmoveto
            -57 -42 43 132 -3 hvcurveto
            220 -2 74 263 126 hhcurveto
            95 callsubr
            return
          </CharString>
          <CharString index="262">
            65 81 11 1 11 2 8 hvcurveto
            -104 hlineto
            -11 -29 -8 -39 -36 vvcurveto
            -152 119 -110 return
          </CharString>
          <CharString index="263">
            -107 -120 -237 -143 rlinecurve
            27 -81 389 155 203 128 81 377 rlinecurve
            return
          </CharString>
          <CharString index="264">
            481 1227 rmoveto
            -215 -1010 rlineto
            -19 -90 -24 -15 -149 -15 -21 -97 rcurveline
            return
          </CharString>
          <CharString index="265">
            53 37 51 10 hvcurveto
            50 11 -97 callgsubr
            -50 -12 hvcurveto
            -51 -10 36 -37 57 hhcurveto
            return
          </CharString>
          <CharString index="266">
            -22 -103 rlineto
            375 hlineto
            32 142 rmoveto
            -237 hlineto
            303 310 rlineto
            endchar
          </CharString>
          <CharString index="267">
            hhcurveto
            145 125 85 158 82 hvcurveto
            -1 -5 -7 -31 -6 vvcurveto
            -124 -21 return
          </CharString>
          <CharString index="268">
            hhcurveto
            68 32 -22 -34 -8 hvcurveto
            -7 -33 -40 -22 -85 -17 rrcurveto
            72 -52 125 28 return
          </CharString>
          <CharString index="269">
            1782 rmoveto
            105 91 62 121 25 hvcurveto
            -110 hlineto
            -43 -8 -30 -19 return
          </CharString>
          <CharString index="270">
            -285 -790 rmoveto
            160 hlineto
            1240 1444 rlineto
            -159 hlineto
            return
          </CharString>
          <CharString index="271">
            -152 -181 -112 -100 -133 vhcurveto
            174 -6 rmoveto
            83 55 56 return
          </CharString>
          <CharString index="272">
            9 hvcurveto
            -103 -100 callgsubr
            -71 65 81 11 2 11 1 8 hvcurveto
            return
          </CharString>
          <CharString index="273">
            7 93 callsubr
            -70 callgsubr
            110 -94 150 hhcurveto
            return
          </CharString>
          <CharString index="274">
            rmoveto
            477 295 401 428 157 -43 146 -84 115 hvcurveto
            168 165 -80 82 -163 -161 rlineto
            103 -110 -154 63 -193 hhcurveto
            -477 -293 -401 -428 -2 hvcurveto
            -1 -157 43 -147 84 -115 rrcurveto
            -168 -165 80 -82 164 161 rlineto
            -102 110 154 -63 193 hhcurveto
            -349 600 rmoveto
            389 188 377 291 126 100 -62 -125 56 vhcurveto
            -748 -735 rlineto
            -9 46 -4 52 58 vvcurveto
            332 -468 rmoveto
            -126 -100 62 126 -56 hvcurveto
            748 735 rlineto
            9 -47 4 -52 -57 vvcurveto
            -390 -193 -377 -286 vhcurveto
            endchar
          </CharString>
          <CharString index="275">
            rmoveto
            -226 -14 120 -168 223 hhcurveto
            159 110 92 175 58 hvcurveto
            -171 5 125 -96 168 hhcurveto
            298 191 281 338 12 hvcurveto
            279 10 -118 165 -152 hhcurveto
            -102 -73 -91 -126 10 hvcurveto
            168 -36 103 -131 -6 -181 rrcurveto
            -186 -7 -110 -156 -136 hhcurveto
            -135 -80 97 281 66 hvcurveto
            50 218 -241 0 -45 -216 rlineto
            -280 -60 -70 -100 -110 hhcurveto
            -94 -51 69 167 7 hvcurveto
            9 260 111 220 166 116 rrcurveto
            -41 65 -313 -94 -197 -271 -14 -294 rlinecurve
            endchar
          </CharString>
          <CharString index="276">
            rmoveto
            153 119 89 169 108 hvcurveto
            -176 17 64 -76 123 hhcurveto
            67 76 41 43 36 hvcurveto
            20 94 rlineto
            -8 -12 -28 -7 -23 hhcurveto
            -82 -36 23 227 -38 hvcurveto
            -10 63 319 558 rlineto
            -272 hlineto
            -20 -85 -46 -123 -42 -107 rrcurveto
            237 -24 -96 102 -183 hhcurveto
            -258 -223 -273 -379 -15 hvcurveto
            -241 -16 103 -171 219 hhcurveto
            -30 449 rmoveto
            300 9 111 176 124 hhcurveto
            104 21 -100 -374 28 hvcurveto
            1 -22 rlineto
            -178 -88 -88 -78 -90 hhcurveto
            -93 -48 86 190 9 hvcurveto
            endchar
          </CharString>
          <CharString index="277">
            718 1233 rmoveto
            3 -114 -167 -23 -121 -9 -15 -76 rcurveline
            2 14 19 2 25 -32 callgsubr
            -86 -54 -88 hhcurveto
            -42 -32 8 12 -23 hvcurveto
            16 16 10 22 24 vvcurveto
            47 87 callgsubr
            92 174 vhcurveto
            -2 94 -63 72 -107 31 117 14 116 65 -2 114 rrcurveto
            122 -120 61 -124 -140 -118 -82 -139 -45 vhcurveto
            56 -24 rlineto
            74 39 59 41 76 hhcurveto
            89 44 -51 -49 1 hvcurveto
            return
          </CharString>
          <CharString index="278">
            123 582 rlineto
            172 37 108 124 99 hhcurveto
            82 43 -69 -115 -25 hvcurveto
            -146 -694 267 0 124 582 rlineto
            172 36 107 124 100 hhcurveto
            82 43 -69 -125 -27 hvcurveto
            -97 -464 rlineto
            -158 -33 53 -79 131 hhcurveto
            -96 callsubr
            -34 callgsubr
            94 435 rlineto
            223 48 -85 138 -205 hhcurveto
            -153 -118 -106 -152 -64 hvcurveto
            147 10 -78 111 -184 hhcurveto
            -150 -113 -86 -175 -80 hvcurveto
            54 251 -69 callsubr
            return
          </CharString>
          <CharString index="279">
            rmoveto
            223 171 70 116 94 hvcurveto
            18 102 rlineto
            -68 -74 -156 -55 -150 hhcurveto
            -145 -72 56 84 125 112 52 227 hvcurveto
            46 hlineto
            15 175 rlineto
            -73 hlineto
            -193 -57 51 79 93 77 66 164 77 61 -13 -20 44 hvcurveto
            -32 -24 -16 -41 -34 vvcurveto
            -64 1 51 -53 76 hhcurveto
            73 54 55 78 124 -108 109 -287 -321 -168 -136 -182 -107 70 -84 139 -30 hvcurveto
            -190 -25 -129 -90 -160 vvcurveto
            -142 130 -107 248 vhcurveto
            endchar
          </CharString>
          <CharString index="280">
            rmoveto
            333 224 286 326 99 -22 90 -43 73 hvcurveto
            116 115 -77 78 -107 -108 rlineto
            65 -70 -97 37 -121 hhcurveto
            -333 -224 -286 -325 -102 22 -91 45 -73 hvcurveto
            -110 -109 77 -78 102 102 rlineto
            -63 70 95 -36 120 hhcurveto
            128 939 rmoveto
            69 53 -43 -86 24 hvcurveto
            -428 -426 rlineto
            234 89 321 193 vhcurveto
            -120 -817 rmoveto
            -68 -52 41 83 -25 hvcurveto
            426 425 rlineto
            -239 -3 -88 -310 -190 hhcurveto
            endchar
          </CharString>
          <CharString index="281">
            rmoveto
            -11 -63 -157 -23 -18 -88 157 0 -150 -887 -42 -250 -57 -83 -75 -19 rlinecurve
            7 16 5 18 19 vvcurveto
            70 -54 53 -64 -68 -55 -53 -74 -95 76 -73 134 229 181 195 563 99 vhcurveto
            106 600 244 0 28 129 -255 -8 20 125 35 208 62 80 88 3 rlinecurve
            -15 -21 -9 -25 -27 vvcurveto
            -71 55 -53 67 71 58 55 74 100 -94 82 -162 -233 -147 -175 -302 -56 vhcurveto
            endchar
          </CharString>
          <CharString index="282">
            rmoveto
            -86 66 -67 103 174 137 105 329 233 vhcurveto
            566 798 78 111 32 20 135 16 rlinecurve
            20 97 -492 0 -20 -97 174 -20 -4 -10 -78 -116 rlinecurve
            -414 -622 -153 622 -29 116 1 10 183 20 rlinecurve
            20 97 -652 0 -20 -97 129 -16 24 -19 32 -112 rlinecurve
            254 -897 -71 -96 -65 -64 -70 -33 rlinecurve
            1 5 0 6 6 vvcurveto
            83 -64 60 -79 -84 -67 -67 -82 vhcurveto
            endchar
          </CharString>
          <CharString index="283">
            273 hlineto
            118 562 rlineto
            219 46 103 97 111 hhcurveto
            83 67 -61 -173 -36 hvcurveto
            -21 -105 -174 -805 -42 -194 rrcurveto
            274 hlineto
            236 1139 rlineto
            248 51 -116 113 -190 hhcurveto
            -167 -116 -102 -156 -74 hvcurveto
            185 17 -70 62 -126 hhcurveto
            -78 -73 -23 -36 -61 hvcurveto
            -20 -93 rlineto
            4 13 17 4 26 hhcurveto
            64 47 -34 -118 -21 hvcurveto
            -18 -112 -115 -507 -28 -114 rrcurveto
            endchar
          </CharString>
          <CharString index="284">
            49 -71 117 hhcurveto
            96 116 45 64 53 hvcurveto
            21 99 rlineto
            -30 -37 -50 -11 -33 hhcurveto
            -48 -14 35 58 12 hvcurveto
            152 715 rlineto
            -1 12 12 -1 13 hhcurveto
            132 95 70 131 83 -41 72 -55 43 hvcurveto
            -84 hlineto
            6 -16 3 -26 -27 vvcurveto
            -153 -94 -107 -277 -37 vhcurveto
            -137 -19 -18 -87 80 -15 rlineto
            50 -12 10 -17 -10 -49 -81 -377 rcurveline
            -161 -34 -98 -108 -115 hhcurveto
            -89 -49 64 126 26 hvcurveto
            return
          </CharString>
          <CharString index="285">
            476 296 400 429 234 -97 211 -181 119 hvcurveto
            -6 36 40 -4 43 hhcurveto
            181 150 77 155 87 -45 80 -60 49 hvcurveto
            -91 hlineto
            8 -17 3 -28 -29 vvcurveto
            -151 -97 -135 -174 vhcurveto
            -126 -88 27 -161 hhcurveto
            -477 -293 -400 -429 -2 hvcurveto
            310 -69 rmoveto
            389 188 377 291 94 callgsubr
            -199 -133 154 314 vhcurveto
            return
          </CharString>
          <CharString index="286">
            -18 -87 -216 -1009 rcurveline
            -19 -86 -20 -17 -153 -17 -21 -97 rcurveline
            581 hlineto
            465 301 165 288 hvcurveto
            -246 644 rmoveto
            -172 -127 -116 -211 vhcurveto
            -135 hlineto
            111 523 96 -3 rlineto
            173 -5 93 -73 -154 vvcurveto
            -70 -657 rmoveto
            -206 -147 -112 -307 -8 vhcurveto
            -98 -3 126 587 135 -2 rlineto
            186 -1 105 -93 -162 vvcurveto
            return
          </CharString>
          <CharString index="287">
            rmoveto
            -1070 hlineto
            -20 -97 148 -17 13 -17 -18 -86 rlinecurve
            -216 -1010 -19 -86 -19 -17 -155 -17 rlinecurve
            -21 -97 642 0 21 96 rlineto
            -164 18 -14 17 18 85 97 458 rcurveline
            202 hlineto
            68 18 -27 -171 -8 hvcurveto
            81 hlineto
            108 509 rlineto
            -82 hlineto
            -173 -69 -26 -26 -66 hhcurveto
            -202 hlineto
            116 546 202 -7 219 -8 54 -37 4 -216 rlinecurve
            88 hlineto
            endchar
          </CharString>
          <CharString index="288">
            rmoveto
            -320 hlineto
            -15 -68 82 -10 4 -18 -13 -57 rlinecurve
            -117 -511 -11 -47 -14 -13 -83 -9 rlinecurve
            -16 -69 279 0 16 223 callsubr
            106 0 144 285 1 0 214 339 -94 -491 -9 -45 -11 -11 -89 -9 rlinecurve
            -15 -68 388 0 16 68 -83 9 -9 10 9 46 rlinecurve
            104 534 9 45 12 12 89 9 rlinecurve
            15 68 -333 1 -291 -510 rlineto
            return
          </CharString>
          <CharString index="289">
            rmoveto
            79 77 27 37 39 hvcurveto
            20 95 rlineto
            -16 -21 -30 -11 -32 hhcurveto
            -61 -44 47 86 69 29 74 46 58 hvcurveto
            303 30 203 271 308 vvcurveto
            259 -149 192 -275 -335 -227 -285 -327 -238 125 -181 233 -28 vhcurveto
            -124 -78 -71 -101 -105 vvcurveto
            -105 85 -78 130 vhcurveto
            55 588 rmoveto
            -97 -62 84 168 89 callsubr
            hvcurveto
            endchar
          </CharString>
          <CharString index="290">
            rmoveto
            92 85 58 52 42 hvcurveto
            21 101 rlineto
            -26 -42 -31 -11 -31 hhcurveto
            -48 -43 26 67 -35 hvcurveto
            -191 350 87 91 62 66 44 48 35 35 rlinecurve
            -54 20 48 -36 64 hhcurveto
            78 67 64 82 -1 hvcurveto
            75 -1 -51 69 -97 hhcurveto
            -102 -76 -77 -167 -147 hvcurveto
            -242 -286 111 520 51 callgsubr
            105 489 182 -332 rlineto
            -120 57 54 -54 104 hhcurveto
            endchar
          </CharString>
          <CharString index="291">
            -61 -40 55 80 65 27 67 58 61 hvcurveto
            464 12 286 394 422 vvcurveto
            363 -232 307 -427 -477 -293 -401 -428 -2 vhcurveto
            -2 -338 202 -289 372 -38 rrcurveto
            -134 -80 -84 -100 -104 vvcurveto
            -106 92 -74 129 vhcurveto
            67 591 rmoveto
            -199 -133 154 314 389 188 377 291 94 callgsubr
            hvcurveto
            endchar
          </CharString>
          <CharString index="292">
            14 -18 3 -43 52 -799 rcurveline
            193 hlineto
            137 175 120 201 71 168 26 -544 rcurveline
            186 hlineto
            268 266 286 420 195 vvcurveto
            95 -65 64 -91 -88 -67 -62 -83 -74 60 -62 76 -5 vhcurveto
            -57 -194 -120 -184 -154 -174 rrcurveto
            -36 829 -245 -41 6 -133 -18 -216 -127 -222 -117 -191 rlinecurve
            return
          </CharString>
          <CharString index="293">
            619 hlineto
            20 97 -136 16 -19 16 18 88 rlinecurve
            7 34 775 732 -163 -766 -19 -90 -20 -14 -149 -16 rlinecurve
            -20 -97 618 0 20 97 -140 45 callgsubr
            -618 0 -20 -97 140 -15 16 -15 -19 -90 rlinecurve
            -9 -43 -775 -732 164 775 19 88 23 16 147 16 15 callsubr
            35 callgsubr
            endchar
          </CharString>
          <CharString index="294">
            rmoveto
            -435 -55 -20 -93 88 -16 rlineto
            48 -8 11 -20 -10 -48 -77 -365 rcurveline
            -274 -58 122 -175 321 hhcurveto
            291 216 151 222 213 -175 95 -222 -72 -69 -10 -13 -42 hvcurveto
            -56 -270 rmoveto
            33 158 rlineto
            10 31 49 7 45 hhcurveto
            133 69 -71 -128 -151 -93 -95 -124 -124 -58 86 184 39 hvcurveto
            endchar
          </CharString>
          <CharString index="295">
            1087 -827 rmoveto
            102 420 rlineto
            -88 hlineto
            -108 -264 -83 -24 -257 -10 rrcurveto
            -285 -10 990 1241 20 91 -1018 0 -12 callsubr
            212 57 38 235 8 rrcurveto
            282 10 -989 -1241 -20 -91 rlineto
            -330 855 -59 callgsubr
            65 callgsubr
            endchar
          </CharString>
          <CharString index="296">
            1398 503 rmoveto
            214 -156 172 -377 vhcurveto
            -167 hlineto
            71 338 19 89 26 13 156 18 rlinecurve
            21 97 -631 0 -20 -97 rlineto
            142 -17 17 -15 -18 -88 -215 -1011 rcurveline
            -18 -87 -20 -15 -154 -17 -21 -97 rcurveline
            633 hlineto
            413 299 196 307 hvcurveto
            return
          </CharString>
          <CharString index="297">
            149 -1152 239 0 641 1147 88 160 29 24 129 16 rlinecurve
            20 97 -469 0 -20 -97 146 -21 13 -26 -81 -150 rlinecurve
            -482 -904 -100 905 -16 148 23 27 157 21 rlinecurve
            21 97 -628 0 -20 -97 116 -16 25 -24 20 -155 rlinecurve
            return
          </CharString>
          <CharString index="298">
            rmoveto
            338 211 288 321 259 -157 195 -276 -338 -211 -288 -321 -259 157 -195 276 hvcurveto
            1 125 rmoveto
            -101 -58 85 170 232 94 326 179 100 58 -85 -170 -232 -93 -326 -179 hvcurveto
            endchar
          </CharString>
          <CharString index="299">
            424 536 117 147 35 22 117 16 rlinecurve
            21 97 -456 0 -21 -97 146 -17 0 -33 -102 -134 rlinecurve
            -316 -420 -141 420 -45 134 15 33 154 17 rlinecurve
            20 97 -622 0 -20 -97 109 -16 28 -27 51 -142 rlinecurve
            return
          </CharString>
          <CharString index="300">
            rmoveto
            -1079 hlineto
            -20 -97 144 -17 16 -15 -19 -87 rlinecurve
            -214 -1012 -19 -87 -20 -15 -154 -17 rlinecurve
            -21 -97 646 0 21 97 -167 19 -15 15 18 85 rlinecurve
            236 1116 211 -9 240 -10 33 -39 9 -210 rlinecurve
            85 hlineto
            endchar
          </CharString>
          <CharString index="301">
            1398 1403 453 rmoveto
            162 -122 132 -219 30 vhcurveto
            219 26 174 113 3 195 rrcurveto
            205 3 -179 128 -381 hhcurveto
            -539 hlineto
            -20 -97 rlineto
            147 -17 14 -17 179 callsubr
            return
          </CharString>
          <CharString index="302">
            -276 -38 -122 -576 rlineto
            -158 -33 -108 -120 -114 hhcurveto
            -82 -35 64 115 25 hvcurveto
            150 713 -277 -36 -122 -578 rlineto
            -158 -33 -108 -120 -112 hhcurveto
            -82 -35 66 113 24 hvcurveto
            148 return
          </CharString>
          <CharString index="303">
            -491 rmoveto
            82 79 28 36 34 hvcurveto
            20 95 rlineto
            -17 -27 -34 -11 -41 hhcurveto
            -60 -41 29 64 78 53 79 143 86 hvcurveto
            102 60 -105 0 -123 -61 rlineto
            -207 -109 -80 -91 -105 vvcurveto
            -96 84 -65 121 vhcurveto
            endchar
          </CharString>
          <CharString index="304">
            19 -16 -19 -88 rlinecurve
            -235 -1105 -524 0 236 1107 18 89 18 15 146 14 rlinecurve
            20 97 -605 0 -21 -97 136 -12 16 -18 -19 -88 rlinecurve
            -235 -1107 -525 150 callsubr
          </CharString>
          <CharString index="305">
            -29 -38 -50 -11 -33 hhcurveto
            -48 -14 34 59 12 hvcurveto
            169 787 -431 -61 -19 -87 81 -15 rlineto
            49 -12 10 -17 -10 -49 -81 -377 rcurveline
            -161 -34 -97 -107 -116 hhcurveto
            -88 -50 63 126 27 hvcurveto
            return
          </CharString>
          <CharString index="306">
            13 -18 4 -43 57 -799 rcurveline
            193 hlineto
            267 266 293 415 200 vvcurveto
            95 -64 64 -91 -88 -67 -62 -83 -76 61 -63 78 -2 vhcurveto
            -59 -192 -131 -189 -148 -170 rrcurveto
            return
          </CharString>
          <CharString index="307">
            0 -43 -201 rlineto
            -334 -8 -165 -171 -224 vvcurveto
            -155 95 -116 181 -108 vhcurveto
            50 -30 -102 -480 -154 11 -108 78 -7 219 rlinecurve
            -85 hlineto
            -49 -314 82 -60 return
          </CharString>
          <CharString index="308">
            152 182 112 101 132 128 -108 81 -152 -181 -113 -100 -133 vhcurveto
            175 -6 rmoveto
            83 55 56 61 55 34 -39 -64 -83 -56 -56 -61 -55 -33 40 63 vhcurveto
            endchar
          </CharString>
          <CharString index="309">
            147 0 100 99 rlineto
            -67 36 81 -55 129 101 callgsubr
            -101 -305 -204 -78 -54 37 42 -11 vhcurveto
            88 410 rlineto
            185 39 94 96 94 hhcurveto
            84 50 -65 -164 -1 hvcurveto
            return
          </CharString>
          <CharString index="310">
            -264 -82 -24 -257 -10 rrcurveto
            -285 -10 990 1241 19 91 -1017 0 -12 callsubr
            212 56 38 236 8 rrcurveto
            282 10 -990 -1241 -19 -91 rlineto
            return
          </CharString>
          <CharString index="311">
            -89 -380 rlineto
            86 hlineto
            99 237 57 20 211 8 rrcurveto
            86 3 -237 -1116 -18 -84 -19 -17 -172 -18 rlinecurve
            -20 -97 656 0 20 97 rlineto
            -161 18 -15 17 18 84 97 return
          </CharString>
          <CharString index="312">
            -100 -469 rcurveline
            -196 -41 66 -148 200 hhcurveto
            121 141 61 180 96 hvcurveto
            -142 -4 76 -99 170 hhcurveto
            124 145 69 188 94 hvcurveto
            -1 -6 -9 -40 -6 vvcurveto
            return
          </CharString>
          <CharString index="313">
            vvcurveto
            209 147 86 149 38 33 -5 -8 28 vhcurveto
            -29 -21 -19 -33 -44 vvcurveto
            -68 46 -58 79 73 56 57 72 130 -132 103 -230 -265 -246 -157 -303 -1 vhcurveto
            return
          </CharString>
          <CharString index="314">
            1900 rmoveto
            -84 -73 -31 -38 -37 hvcurveto
            -16 -73 rlineto
            18 28 43 13 47 hhcurveto
            70 34 -25 -41 -52 -58 -51 -89 -53 hvcurveto
            104 hlineto
            132 54 82 57 82 vvcurveto
            79 -72 61 -111 vhcurveto
            return
          </CharString>
          <CharString index="315">
            1037 205 282 rmoveto
            66 -49 118 -36 147 -8 rrcurveto
            -40 -189 85 0 40 188 rlineto
            284 9 147 146 178 vvcurveto
            118 -55 90 -169 84 vhcurveto
            return
          </CharString>
          <CharString index="316">
            558 1475 rmoveto
            -76 -48 -44 -95 -13 hvcurveto
            -9 -64 -3 -87 -1 -127 rrcurveto
            -2 -206 77 0 72 177 rlineto
            71 174 39 88 67 vvcurveto
            68 1 -36 49 -72 hhcurveto
            return
          </CharString>
          <CharString index="317">
            -50 -11 -32 hhcurveto
            -50 -13 34 59 13 hvcurveto
            165 773 -146 0 -102 -99 rlineto
            67 -37 -80 55 -129 hhcurveto
            -315 -222 -317 -371 hvcurveto
            -28 callgsubr
            return
          </CharString>
          <CharString index="318">
            0 -21 -97 rlineto
            156 -18 18 -23 -30 -131 -37 -157 -29 -118 -64 -234 -62 -225 -62 -167 -75 -97 rrcurveto
            63 -16 -53 43 -73 hhcurveto
            -88 -66 -69 -84 return
          </CharString>
          <CharString index="319">
            -25 -25 -36 102 callgsubr
            -94 -76 -67 -222 -25 hvcurveto
            100 hlineto
            104 15 26 25 return
          </CharString>
          <CharString index="320">
            -45 -60 -13 hvcurveto
            -59 -12 37 -44 60 hhcurveto
            374 hmoveto
            60 57 44 59 13 hvcurveto
            60 13 -39 45 -60 hhcurveto
            -13 hlineto
            -59 -57 -45 -60 -13 hvcurveto
            -59 -13 38 -44 60 hhcurveto
            return
          </CharString>
          <CharString index="321">
            -97 149 -14 14 -17 -19 -87 rlinecurve
            -217 -1014 -18 -86 return
          </CharString>
          <CharString index="322">
            1786 rmoveto
            62 47 41 55 -1 hvcurveto
            55 -1 -50 41 return
          </CharString>
          <CharString index="323">
            1425 442 1152 rmoveto
            190 callsubr
            return
          </CharString>
          <CharString index="324">
            1309 1503 1444 rmoveto
            -1121 hlineto
            -18 return
          </CharString>
          <CharString index="325">
            -317 -380 -257 182 -208 243 -70 vhcurveto
            return
          </CharString>
          <CharString index="326">
            -192 -1 vhcurveto
            -316 -1 -240 -271 -345 vvcurveto
            return
          </CharString>
          <CharString index="327">
            -170 -199 -143 -152 -191 -154 94 -107 return
          </CharString>
          <CharString index="328">
            142 -208 hhcurveto
            -157 -118 -91 -170 -83 hvcurveto
            return
          </CharString>
          <CharString index="329">
            102 -177 19 vhcurveto
            39 187 -85 0 -39 -184 rlineto
            return
          </CharString>
          <CharString index="330">
            69 -82 9 -6 13 10 47 rlinecurve
            99 482 104 -620 return
          </CharString>
          <CharString index="331">
            57 53 37 51 10 hvcurveto
            50 12 -37 38 -57 hhcurveto
            -13 hlineto
            return
          </CharString>
          <CharString index="332">
            26 -7 -13 36 hvcurveto
            31 -10 rlineto
            -15 42 42 -11 50 hhcurveto
            return
          </CharString>
          <CharString index="333">
            25 7 34 32 vvcurveto
            130 -1 -110 94 -150 hhcurveto
            return
          </CharString>
          <CharString index="334">
            17 22 -35 hvcurveto
            -21 -92 rlineto
            -36 50 68 -23 84 hhcurveto
            endchar
          </CharString>
          <CharString index="335">
            -35 vhcurveto
            -41 -194 rlineto
            -19 672 rmoveto
            220 108 return
          </CharString>
          <CharString index="336">
            -96 hlineto
            -11 -25 -7 -35 -33 vvcurveto
            -137 1 112 -99 return
          </CharString>
          <CharString index="337">
            -106 -434 rlineto
            90 hlineto
            199 89 75 34 227 hhcurveto
            return
          </CharString>
          <CharString index="338">
            vhcurveto
            -151 -714 rlineto
            -67 55 -40 88 117 vvcurveto
            endchar
          </CharString>
          <CharString index="339">
            hhcurveto
            27 31 -5 -7 31 hvcurveto
            7 17 6 26 23 vvcurveto
            48 return
          </CharString>
          <CharString index="340">
            rmoveto
            -219 -296 104 0 363 285 rlineto
            10 vlineto
            return
          </CharString>
          <CharString index="341">
            rmoveto
            96 74 66 222 26 hvcurveto
            -101 hlineto
            -104 -15 -25 -25 return
          </CharString>
        <CharString name=".notdef">
          2048 6 -494 rmoveto
          187 hlineto
          519 2444 rlineto
          -187 hlineto
          -109 91 callgsubr
          -109 91 callgsubr
          -110 91 callgsubr
          -109 91 callgsubr
          endchar
        </CharString>
        <CharString name=".null">
          0 endchar
        </CharString>
        <CharString name="A">
          1425 1290 292 -104 callsubr
        </CharString>
        <CharString name="AE">
          2016 2159 1444 126 callsubr
        </CharString>
        <CharString name="AEacute">
          2016 1621 -85 callsubr
          290 -415 126 callsubr
        </CharString>
        <CharString name="AEmacron">
          2016 1250 -46 callsubr
          877 -332 126 callsubr
        </CharString>
        <CharString name="Aacute">
          1425 1135 -78 callsubr
          -77 callsubr
          -93 -1567 -104 callsubr
        </CharString>
        <CharString name="Abreve">
          1425 1066 -44 callsubr
          6 93 callsubr
          2 6 hvcurveto
          -95 hlineto
          -10 -25 -7 -55 callgsubr
          224 -1291 -104 callsubr
        </CharString>
        <CharString name="Abreveacute">
          1425 1397 1859 rmoveto
          30 143 -653 -140 -17 -82 rlineto
          257 -256 rmoveto
          190 148 41 callsubr
          -114 -78 59 callsubr
          -38 111 -87 190 hhcurveto
          276 -1232 -104 callsubr
        </CharString>
        <CharString name="Abrevecyrillic">
          1425 1015 1581 rmoveto
          178 54 callgsubr
          -24 4 7 -20 59 callgsubr
          151 vhcurveto
          275 -1289 -104 callsubr
        </CharString>
        <CharString name="Abrevedotbelow">
          1425 1066 -44 callsubr
          6 93 callsubr
          2 6 hvcurveto
          -95 hlineto
          -10 -25 -7 -55 callgsubr
          224 -1291 rmoveto
          -35 callsubr
          32 callsubr
          -363 -776 -74 callsubr
        </CharString>
        <CharString name="Abrevegrave">
          1425 774 1859 rmoveto
          607 -79 17 82 -595 140 rlineto
          211 -478 rmoveto
          190 148 41 callsubr
          -114 -78 59 callsubr
          -38 111 -87 190 hhcurveto
          276 -1232 -104 callsubr
        </CharString>
        <CharString name="Abrevehookabove">
          1425 1091 2001 rmoveto
          -79 -78 -23 -28 -49 hvcurveto
          -15 -67 rlineto
          12 32 57 14 51 hhcurveto
          70 35 -22 -34 -7 hvcurveto
          -8 -10 callgsubr
          190 148 41 callsubr
          -114 -78 59 callsubr
          -38 111 -87 190 hhcurveto
          276 -1232 -104 callsubr
        </CharString>
        <CharString name="Abrevetilde">
          1425 1203 61 callgsubr
          137 callsubr
          -189 -278 rmoveto
          190 148 41 callsubr
          -114 -78 59 callsubr
          -38 111 -87 190 hhcurveto
          276 -1232 -104 callsubr
        </CharString>
        <CharString name="Acaron">
          1425 1264 1881 rmoveto
          -204 -145 -140 145 -108 0 127 -297 187 0 253 297 rlineto
          -89 -1589 -104 callsubr
        </CharString>
        <CharString name="Acircumflex">
          1425 856 -88 callsubr
          102 -66 callsubr
          544 -1272 -104 callsubr
        </CharString>
        <CharString name="Acircumflexacute">
          1425 1392 1839 rmoveto
          31 143 -654 -140 -17 -83 rlineto
          -56 -270 -68 callsubr
          576 -1282 -104 callsubr
        </CharString>
        <CharString name="Acircumflexdotbelow">
          1425 856 -88 callsubr
          102 -66 callsubr
          544 -1272 rmoveto
          -35 callsubr
          32 callsubr
          -363 -776 -74 callsubr
        </CharString>
        <CharString name="Acircumflexgrave">
          1425 769 1839 rmoveto
          607 65 callsubr
          -103 -493 -68 callsubr
          576 -1282 -104 callsubr
        </CharString>
        <CharString name="Acircumflexhookabove">
          1425 1363 -76 callgsubr
          32 55 13 48 161 callsubr
          85 42 16 79 rlinecurve
          79 17 -86 45 -111 hhcurveto
          -667 -469 -68 callsubr
          576 -1282 -104 callsubr
        </CharString>
        <CharString name="Acircumflextilde">
          1425 1199 162 callsubr
          137 callsubr
          -503 -293 -68 callsubr
          576 -1282 -104 callsubr
        </CharString>
        <CharString name="Acyrillic">
          1425 1290 292 -104 callsubr
        </CharString>
        <CharString name="Adblgrave">
          1425 867 1861 rmoveto
          -193 -7 hlineto
          191 -290 rlineto
          94 callsubr
          88 hlineto
          99 -1272 -104 callsubr
        </CharString>
        <CharString name="Adieresis">
          1425 877 36 callsubr
          67 -1304 -104 callsubr
        </CharString>
        <CharString name="Adieresismacron">
          1425 769 1835 rmoveto
          623 hlineto
          24 111 rlineto
          -624 hlineto
          51 -397 rmoveto
          224 callsubr
          -57 -53 -38 -50 -11 hvcurveto
          -51 -11 37 -37 57 hhcurveto
          356 hmoveto
          57 53 37 51 11 hvcurveto
          50 11 -37 38 -58 hhcurveto
          -12 hlineto
          -57 -53 -38 -50 -11 hvcurveto
          -51 -11 36 -37 58 hhcurveto
          117 -1257 -104 callsubr
        </CharString>
        <CharString name="Adotaccent">
          1425 1050 -26 callsubr
          -19 callsubr
          240 -1296 -104 callsubr
        </CharString>
        <CharString name="Adotbelow">
          1425 1290 292 rmoveto
          -35 callsubr
          32 callsubr
          -363 -776 -74 callsubr
        </CharString>
        <CharString name="Adotmacron">
          1425 763 1810 124 callsubr
          254 -380 rmoveto
          61 47 41 55 hvcurveto
          54 -1 -51 41 -61 hhcurveto
          -61 -47 -41 -54 hvcurveto
          -55 1 50 -41 62 hhcurveto
          249 -1249 -104 callsubr
        </CharString>
        <CharString name="Agrave">
          1425 987 1860 -53 callgsubr
          193 -1273 -104 callsubr
        </CharString>
        <CharString name="Ahookabove">
          1425 1085 1900 -66 callgsubr
          68 callgsubr
          57 82 vvcurveto
          79 -72 61 -110 vhcurveto
          205 -1608 -104 callsubr
        </CharString>
        <CharString name="Ainvertedbreve">
          1425 1053 1898 rmoveto
          -177 -112 -117 -198 -88 callgsubr
          0 callgsubr
          -110 94 -150 hhcurveto
          237 -1606 -104 callsubr
        </CharString>
        <CharString name="Alphagreek">
          1425 1290 292 -104 callsubr
        </CharString>
        <CharString name="Alphatonosgreek">
          1425 1290 292 rmoveto
          -35 callsubr
          16 -149 -23 -27 -157 -21 rlinecurve
          -21 -97 627 0 -49 callgsubr
          -834 1152 rmoveto
          -171 -397 149 0 292 384 rlineto
          13 vlineto
          -160 -848 rmoveto
          321 600 67 -600 rlineto
          endchar
        </CharString>
        <CharString name="Amacron">
          1425 764 1629 rmoveto
          546 hlineto
          31 147 rlineto
          -546 hlineto
          495 -1484 -104 callsubr
        </CharString>
        <CharString name="Aogonek">
          1425 1072 -486 rmoveto
          82 64 29 35 37 hvcurveto
          20 95 rlineto
          -16 -21 -29 -11 -31 hhcurveto
          -62 -40 56 84 72 31 76 68 66 hvcurveto
          239 hlineto
          -49 callgsubr
          -35 callsubr
          rlineto
          16 -149 -23 -27 -157 -21 -21 -97 rcurveline
          279 hlineto
          -141 -84 -90 -108 -114 vvcurveto
          -106 91 -74 130 vhcurveto
          -506 1082 rmoveto
          321 600 67 -600 rlineto
          endchar
        </CharString>
        <CharString name="Aring">
          1425 815 1750 -29 callgsubr
          317 -1453 -104 callsubr
        </CharString>
        <CharString name="Aringacute">
          1425 1393 1843 rmoveto
          30 -18 callsubr
          299 -257 rmoveto
          130 92 46 69 14 hvcurveto
          69 16 -74 45 -130 hhcurveto
          -83 hlineto
          -128 -94 -45 -69 -14 hvcurveto
          -69 -15 40 callgsubr
          43 hhcurveto
          58 hlineto
          44 19 -17 -25 -5 hvcurveto
          -26 -5 -28 -17 -43 hhcurveto
          235 -1286 -104 callsubr
        </CharString>
        <CharString name="Aringbelow">
          1425 1290 292 rmoveto
          -35 callsubr
          32 callsubr
          -647 -909 rmoveto
          -112 3 110 100 callgsubr
          -110 73 -151 hhcurveto
          -182 -111 -92 -111 5 hvcurveto
          175 -5 rmoveto
          67 -3 53 43 60 hhcurveto
          55 35 -32 -51 3 hvcurveto
          -67 3 -53 -43 -61 hhcurveto
          -54 -36 32 51 -2 hvcurveto
          endchar
        </CharString>
        <CharString name="Atilde">
          1425 1158 117 callsubr
          -95 hlineto
          -93 -13 15 callgsubr
          13 23 -38 callgsubr
          64 callsubr
          132 -1304 -104 callsubr
        </CharString>
        <CharString name="B">
          1398 1403 453 76 callsubr
        </CharString>
        <CharString name="Bdotaccent">
          1398 1007 1 callsubr
          396 -1135 76 callsubr
        </CharString>
        <CharString name="Bdotbelow">
          194 callsubr
          -477 -620 -74 callsubr
        </CharString>
        <CharString name="Becyrillic">
          1392 1411 473 rmoveto
          207 -156 165 -376 vhcurveto
          -176 hlineto
          102 486 239 -9 242 -10 34 -39 11 -209 rlinecurve
          88 hlineto
          69 380 -1128 0 -20 -97 rlineto
          158 -18 15 -14 -19 -88 -214 -1011 rcurveline
          86 callgsubr
          184 289 hvcurveto
          -308 -4 rmoveto
          -190 -148 -153 -300 -9 vhcurveto
          -108 -4 129 612 rlineto
          128 hlineto
          188 111 -82 -174 hvcurveto
          endchar
        </CharString>
        <CharString name="Betagreek">
          1398 1403 453 76 callsubr
        </CharString>
        <CharString name="Blinebelow">
          194 callsubr
          -778 -816 115 callsubr
        </CharString>
        <CharString name="C">
          1432 563 601 -49 callsubr
          -34 callsubr
        </CharString>
        <CharString name="Cacute">
          1432 1259 -85 callsubr
          -944 -1258 -49 callsubr
          -34 callsubr
        </CharString>
        <CharString name="Ccaron">
          1432 1389 -84 callsubr
          -41 callsubr
          -940 -1280 -49 callsubr
          -34 callsubr
        </CharString>
        <CharString name="Ccedilla">
          1432 563 601 -49 callsubr
          -3 -394 243 -242 333 -40 rrcurveto
          -103 -111 -21 callsubr
          -17 callsubr
          52 callsubr
          106 callsubr
          41 callgsubr
        </CharString>
        <CharString name="Ccedillaacute">
          1432 1259 -85 callsubr
          -944 -1258 -49 callsubr
          -3 -394 243 -242 333 -40 rrcurveto
          -103 -111 -21 callsubr
          -17 callsubr
          52 callsubr
          106 callsubr
          41 callgsubr
        </CharString>
        <CharString name="Ccircumflex">
          1432 980 -88 callsubr
          -30 callsubr
          -308 -963 -49 callsubr
          -34 callsubr
        </CharString>
        <CharString name="Cdotaccent">
          1432 1175 33 callsubr
          -612 -987 -49 callsubr
          -34 callsubr
        </CharString>
        <CharString name="Checyrillic">
          1599 1136 217 rmoveto
          -19 -90 -22 -12 -159 -18 rrcurveto
          -20 -97 630 0 21 97 -141 15 -19 15 19 90 rlinecurve
          214 1010 19 90 24 15 149 15 rlinecurve
          21 97 -618 0 -21 -97 rlineto
          140 -15 16 -16 -19 -89 -104 -490 rcurveline
          -27 -100 -90 -19 -103 hhcurveto
          -195 -86 109 242 53 hvcurveto
          40 187 19 87 20 18 141 13 rlinecurve
          20 97 -610 0 -20 -97 rlineto
          144 -14 15 -17 -18 -87 -41 -192 rcurveline
          -329 -70 165 -152 360 hhcurveto
          137 88 27 30 104 hvcurveto
          endchar
        </CharString>
        <CharString name="Chigreek">
          1386 338 298 20 callsubr
        </CharString>
        <CharString name="D">
          1559 -24 callsubr
          -63 callsubr
          endchar
        </CharString>
        <CharString name="Dbar">
          1559 201 685 rmoveto
          168 hlineto
          -100 -468 rlineto
          -19 -86 -20 -17 -154 -17 -21 -97 rcurveline
          562 hlineto
          585 416 341 486 380 -284 237 -456 hvcurveto
          -516 hlineto
          -20 -97 rlineto
          146 -17 15 -16 -18 -87 -93 -432 rcurveline
          -167 hlineto
          1072 60 -59 callgsubr
          122 573 251 0 23 110 -251 0 114 537 72 -4 rlineto
          286 -16 144 -193 -264 vvcurveto
          endchar
        </CharString>
        <CharString name="Dcaron">
          1559 1204 -84 callsubr
          -41 callsubr
          300 -1054 28 callsubr
          -63 callsubr
          endchar
        </CharString>
        <CharString name="Dcircumflexbelow">
          1559 -24 callsubr
          -63 callsubr
          -916 -1332 31 callsubr
        </CharString>
        <CharString name="Dcommaaccent">
          1559 -24 callsubr
          -63 callsubr
          -741 -1346 84 callsubr
        </CharString>
        <CharString name="Ddotaccent">
          1559 989 1 callsubr
          629 -761 28 callsubr
          -63 callsubr
          endchar
        </CharString>
        <CharString name="Ddotbelow">
          1559 -24 callsubr
          -63 callsubr
          -704 -1035 -48 callsubr
        </CharString>
        <CharString name="Decyrillic">
          1522 649 770 rmoveto
          55 205 50 197 36 148 rrcurveto
          481 hlineto
          -256 -1196 rlineto
          -633 hlineto
          103 127 69 178 95 341 rrcurveto
          870 -646 rmoveto
          -214 hlineto
          234 1103 19 88 24 15 150 17 rlinecurve
          20 97 -1264 0 -21 -97 rlineto
          160 -18 16 -24 -35 -153 -33 -138 -34 -127 -33 -114 -87 -310 -78 -212 -138 -127 rrcurveto
          -144 hlineto
          -98 -428 rlineto
          103 hlineto
          263 127 37 41 179 hhcurveto
          708 hlineto
          185 20 -41 -263 15 hvcurveto
          103 hlineto
          endchar
        </CharString>
        <CharString name="Deltagreek">
          1217 16 1 rmoveto
          1185 hlineto
          18 90 -198 1354 -227 0 -758 -1353 rlineto
          165 26 rmoveto
          570 1061 136 -1061 rlineto
          endchar
        </CharString>
        <CharString name="Djecyrillic">
          1724 1725 417 rmoveto
          277 -178 135 -309 -106 -77 -13 -19 -73 vhcurveto
          113 535 106 -3 220 -6 43 -25 -3 -234 rlinecurve
          87 hlineto
          72 380 -1264 0 204 callsubr
          455 rcurveline
          16 67 68 8 76 hhcurveto
          171 99 -88 -193 -295 -142 -283 -306 -149 hvcurveto
          29 -81 rlineto
          461 153 247 307 351 vvcurveto
          endchar
        </CharString>
        <CharString name="Dlinebelow">
          1559 -24 callsubr
          -63 callsubr
          -1005 -1231 -43 callsubr
        </CharString>
        <CharString name="Dzecyrillic">
          1169 612 -31 68 callsubr
          endchar
        </CharString>
        <CharString name="Dzhecyrillic">
          1616 157 callsubr
          537 hlineto
          99 18 -21 -283 -15 hvcurveto
          103 hlineto
          283 105 26 21 100 hhcurveto
          537 hlineto
          20 97 -144 17 -17 15 18 88 rlinecurve
          215 1010 18 88 22 15 154 17 15 callsubr
          135 -16 18 -16 -19 -88 rlinecurve
          -236 -1105 -595 150 callsubr
        </CharString>
        <CharString name="E">
          1277 1457 1444 -98 callsubr
        </CharString>
        <CharString name="Eacute">
          1277 1064 -85 callsubr
          145 -415 -98 callsubr
        </CharString>
        <CharString name="Ebreve">
          1277 995 -44 callsubr
          166 callsubr
          462 -139 -98 callsubr
        </CharString>
        <CharString name="Ecaron">
          1277 1194 -84 callsubr
          -41 callsubr
          149 -437 -98 callsubr
        </CharString>
        <CharString name="Ecedilla">
          1277 547 -491 rmoveto
          177 -51 callgsubr
          98 105 453 -42 callsubr
          -51 callsubr
          71 380 -1095 0 -20 callsubr
          -31 callsubr
          -23 callgsubr
        </CharString>
        <CharString name="Ecedillabreve">
          1277 995 -44 callsubr
          166 callsubr
          -448 -2074 rmoveto
          177 -51 callgsubr
          98 105 453 -42 callsubr
          -51 callsubr
          71 380 -1095 0 -20 callsubr
          -31 callsubr
          -23 callgsubr
        </CharString>
        <CharString name="Ecircumflex">
          1277 785 -88 callsubr
          103 -66 callsubr
          781 -120 -98 callsubr
        </CharString>
        <CharString name="Ecircumflexacute">
          1277 1321 1839 rmoveto
          31 143 -654 -140 -17 -83 rlineto
          -56 -270 -68 callsubr
          814 -130 -98 callsubr
        </CharString>
        <CharString name="Ecircumflexbelow">
          1277 1457 1444 rmoveto
          -1095 hlineto
          -20 callsubr
          -31 callsubr
          1134 -42 callsubr
          -51 callsubr
          -1007 -1541 8 callgsubr
        </CharString>
        <CharString name="Ecircumflexdotbelow">
          1277 785 -88 callsubr
          103 -66 callsubr
          781 -120 rmoveto
          -1095 hlineto
          -20 callsubr
          -31 callsubr
          1134 -42 callsubr
          -51 callsubr
          -795 -1244 16 callsubr
        </CharString>
        <CharString name="Ecircumflexgrave">
          1277 698 1839 rmoveto
          607 65 callsubr
          -103 -493 -68 callsubr
          814 -130 -98 callsubr
        </CharString>
        <CharString name="Ecircumflexhookabove">
          1277 1292 -76 callgsubr
          32 55 13 48 161 callsubr
          85 42 16 79 rlinecurve
          79 17 -86 45 -111 hhcurveto
          -667 -469 -68 callsubr
          814 -130 -98 callsubr
        </CharString>
        <CharString name="Ecircumflextilde">
          1277 1128 162 callsubr
          137 callsubr
          -503 -293 -68 callsubr
          814 -130 -98 callsubr
        </CharString>
        <CharString name="Ecyrillic">
          1436 563 601 rmoveto
          25 1 25 1 24 vhcurveto
          629 -5 28 133 -641 -5 rlineto
          321 63 212 223 250 hhcurveto
          209 110 -118 -220 8 hvcurveto
          3 callgsubr
          -34 callsubr
        </CharString>
        <CharString name="Edblgrave">
          1277 796 45 callsubr
          94 callsubr
          88 hlineto
          336 -120 -98 callsubr
        </CharString>
        <CharString name="Edieresis">
          1277 807 -15 callsubr
          92 callsubr
          346 hmoveto
          66 55 54 69 92 callsubr
          304 -152 -98 callsubr
        </CharString>
        <CharString name="Edotaccent">
          1277 980 1588 rmoveto
          71 59 101 callsubr
          477 -144 -98 callsubr
        </CharString>
        <CharString name="Edotbelow">
          1277 1457 1444 rmoveto
          -1095 hlineto
          -20 callsubr
          -31 callsubr
          1134 -42 callsubr
          -51 callsubr
          -795 -1244 16 callsubr
        </CharString>
        <CharString name="Efcyrillic">
          1918 210 688 rmoveto
          -271 230 -174 421 -30 vhcurveto
          -6 -25 -18 -84 -20 -16 -156 -15 rlinecurve
          -21 -97 622 0 21 97 rlineto
          -145 15 -19 16 18 84 5 22 rcurveline
          619 23 246 230 1 293 -1 271 -229 174 -421 30 rrcurveto
          5 25 18 84 23 16 153 15 rlinecurve
          21 97 -622 0 -20 -97 rlineto
          147 -15 16 -16 -18 -84 -4 -22 rcurveline
          -620 -24 -246 -230 -292 vvcurveto
          319 -12 rmoveto
          249 122 162 399 24 vhcurveto
          -163 -774 rlineto
          -253 30 -105 122 187 vvcurveto
          1161 92 rmoveto
          -1 -249 -122 -163 -400 -23 rrcurveto
          164 774 253 -30 105 -122 1 -187 rlinecurve
          endchar
        </CharString>
        <CharString name="Egrave">
          1277 917 -32 callsubr
          430 -121 -98 callsubr
        </CharString>
        <CharString name="Ehookabove">
          1277 1014 207 callsubr
          443 -456 -98 callsubr
        </CharString>
        <CharString name="Einvertedbreve">
          1277 983 110 callsubr
          -88 callgsubr
          36 callgsubr
          474 -454 -98 callsubr
        </CharString>
        <CharString name="Elcyrillic">
          1547 222 -31 rmoveto
          215 120 194 493 133 hvcurveto
          81 301 46 182 42 183 rrcurveto
          461 hlineto
          -236 -1105 -19 -90 -19 -14 -150 -16 rlinecurve
          -20 -97 618 0 21 97 -141 45 callgsubr
          -1244 211 callsubr
          -94 63 -67 105 hvcurveto
          endchar
        </CharString>
        <CharString name="Emacron">
          1277 693 -46 callsubr
          732 -332 -98 callsubr
        </CharString>
        <CharString name="Emacronacute">
          1277 1326 1860 rmoveto
          30 -18 callsubr
          -43 -198 rmoveto
          54 callsubr
          790 -249 -98 callsubr
        </CharString>
        <CharString name="Emacrongrave">
          1277 703 1860 rmoveto
          607 -80 17 83 -595 140 rlineto
          -89 -421 rmoveto
          54 callsubr
          790 -249 -98 callsubr
        </CharString>
        <CharString name="Emcyrillic">
          1853 854 1444 24 callsubr
        </CharString>
        <CharString name="Encyrillic">
          -3 callsubr
          -9 callsubr
          -64 callgsubr
          endchar
        </CharString>
        <CharString name="Eogonek">
          1277 929 -486 rmoveto
          83 65 29 35 36 hvcurveto
          19 95 rlineto
          -16 -20 -29 -11 -32 hhcurveto
          -61 -41 56 84 72 32 76 67 66 hvcurveto
          141 hlineto
          102 -54 callsubr
          -265 -62 -25 -51 callsubr
          71 380 -1095 0 -20 -97 rlineto
          147 -17 14 -17 -18 -86 -216 -1010 rcurveline
          -19 -86 -20 -17 -154 -17 -21 -97 rcurveline
          885 90 callgsubr
        </CharString>
        <CharString name="Epsilongreek">
          1277 1457 1444 -98 callsubr
        </CharString>
        <CharString name="Epsilontonosgreek">
          1651 1831 1444 rmoveto
          -1094 hlineto
          -21 -97 147 -17 14 -17 -18 -86 rlinecurve
          -216 -1010 -19 -86 -20 -17 -154 -17 rlinecurve
          -20 -97 1133 -42 callsubr
          -260 -10 rrcurveto
          -236 -8 120 571 rlineto
          226 hlineto
          68 18 -29 -171 -8 hvcurveto
          82 hlineto
          109 510 rlineto
          -82 hlineto
          -173 -70 -27 -26 -66 hhcurveto
          -226 hlineto
          115 538 228 -8 219 -7 52 -39 5 -214 rlinecurve
          86 hlineto
          -1367 380 3 callsubr
        </CharString>
        <CharString name="Ercyrillic">
          1357 703 hmoveto
          22 callsubr
        </CharString>
        <CharString name="Ereversedcyrillic">
          1474 434 1343 rmoveto
          -76 -324 rlineto
          86 hlineto
          227 96 134 98 173 hhcurveto
          253 121 -212 -312 hvcurveto
          -7 0 -8 -6 vvcurveto
          -616 4 -28 -135 634 5 rlineto
          -326 -44 -195 -249 -290 hhcurveto
          -211 -133 104 216 -7 hvcurveto
          -87 hlineto
          -45 -325 rlineto
          -54 61 220 -70 217 hhcurveto
          501 339 358 454 435 -280 259 -394 -160 -170 -54 -78 -99 hvcurveto
          endchar
        </CharString>
        <CharString name="Escyrillic">
          1432 563 601 -49 callsubr
          -34 callsubr
        </CharString>
        <CharString name="Etagreek">
          -3 callsubr
          -9 callsubr
          -64 callgsubr
          endchar
        </CharString>
        <CharString name="Etatonosgreek">
          2003 932 217 rmoveto
          98 461 605 0 -98 -461 -19 -87 -22 -18 -146 -15 rlinecurve
          -20 -97 619 0 20 97 -145 15 -17 21 19 87 rlinecurve
          214 1004 19 87 24 21 153 15 rlinecurve
          20 97 -619 0 -21 -97 139 -15 15 -18 -19 -87 rlinecurve
          -91 -430 50 callgsubr
          -19 -97 147 -17 14 -20 -18 -86 rlinecurve
          -214 -1004 -19 -86 -22 -20 -155 -17 rlinecurve
          -21 -97 620 0 20 97 -136 16 -17 18 18 86 rlinecurve
          -539 1227 3 callsubr
        </CharString>
        <CharString name="Etilde">
          1277 1087 99 callsubr
          -21 122 callsubr
          -68 callgsubr
          111 callgsubr
          370 -152 -98 callsubr
        </CharString>
        <CharString name="Etildebelow">
          1277 1457 1444 rmoveto
          -1095 hlineto
          -20 callsubr
          -31 callsubr
          1134 -42 callsubr
          -51 callsubr
          -684 -1508 234 callsubr
          -35 hhcurveto
          -25 -22 13 23 -26 hvcurveto
          -31 26 rlineto
          36 -43 -47 callgsubr
          2 callgsubr
        </CharString>
        <CharString name="F">
          1176 1432 1444 180 callsubr
        </CharString>
        <CharString name="Fdotaccent">
          1176 989 1 callsubr
          443 -144 180 callsubr
        </CharString>
        <CharString name="G">
          1579 250 651 -37 callsubr
        </CharString>
        <CharString name="Gacute">
          1579 1243 -85 callsubr
          -1241 -1208 -37 callsubr
        </CharString>
        <CharString name="Gammagreek">
          1227 1476 1444 rmoveto
          -1106 hlineto
          -21 -97 158 -18 16 -14 -19 -87 rlinecurve
          -214 -1012 -19 -87 -22 -14 -165 -18 rlinecurve
          -21 -97 667 0 20 97 -174 20 -15 15 18 84 rlinecurve
          236 1116 225 -9 241 -10 32 -39 9 -210 rlinecurve
          84 hlineto
          endchar
        </CharString>
        <CharString name="Gbreve">
          1579 1174 -44 callsubr
          7 93 callsubr
          -70 callgsubr
          109 -94 151 hhcurveto
          -924 -932 -37 callsubr
        </CharString>
        <CharString name="Gcaron">
          1579 1373 -84 callsubr
          -41 callsubr
          -1237 -1230 -37 callsubr
        </CharString>
        <CharString name="Gcircumflex">
          1579 964 -88 callsubr
          103 -66 callsubr
          -605 -913 -37 callsubr
        </CharString>
        <CharString name="Gcommaaccent">
          1579 250 651 rmoveto
          -431 -2 296 -251 387 hhcurveto
          190 196 60 68 91 hvcurveto
          84 390 18 86 16 18 136 14 rlinecurve
          20 96 -583 0 -20 -96 rlineto
          159 -16 11 -15 -18 -86 -71 -337 rcurveline
          -31 -45 -80 -17 -71 hhcurveto
          -240 -157 199 299 423 246 318 298 209 109 -118 -220 8 hvcurveto
          87 -5 57 320 rlineto
          79 -94 92 callgsubr
          552 -1142 84 callsubr
        </CharString>
        <CharString name="Gdotaccent">
          1579 1159 1588 rmoveto
          71 59 101 callsubr
          -909 -937 -37 callsubr
        </CharString>
        <CharString name="Geacutecyrillic">
          1190 1040 -85 callsubr
          151 -415 193 callsubr
        </CharString>
        <CharString name="Gecyrillic">
          1190 1439 1444 193 callsubr
        </CharString>
        <CharString name="Germandbls">
          1559 537 hmoveto
          280 1332 173 -6 rlineto
          247 -9 93 -82 -154 vvcurveto
          -130 -94 -92 -174 -24 vhcurveto
          -38 -173 rlineto
          179 -72 80 -119 -150 vvcurveto
          -143 -82 -80 -124 -131 -87 103 203 6 vhcurveto
          -88 hlineto
          -62 -320 rlineto
          -66 73 134 -49 159 hhcurveto
          248 222 145 275 180 -79 153 -176 96 hvcurveto
          162 19 137 105 175 vvcurveto
          208 -164 119 -319 vhcurveto
          -732 hlineto
          -21 -97 rlineto
          150 -17 16 -17 -18 -85 -213 -1012 rcurveline
          -18 -87 -21 -15 -158 -17 -20 -97 rcurveline
          endchar
        </CharString>
        <CharString name="Geupturncyrillic">
          1171 1396 1325 rmoveto
          90 424 rlineto
          -103 hlineto
          -262 -121 -32 -43 -174 hhcurveto
          -696 hlineto
          -20 -97 144 -17 15 -15 -18 -87 rlinecurve
          -215 -1012 -18 -87 -20 -15 -154 -17 rlinecurve
          -21 -97 645 0 20 97 rlineto
          -154 18 -27 17 18 84 236 1109 rcurveline
          endchar
        </CharString>
        <CharString name="Gmacron">
          1579 872 -46 callsubr
          -654 -1125 -37 callsubr
        </CharString>
        <CharString name="H">
          -3 callsubr
          -9 callsubr
          -64 callgsubr
          endchar
        </CharString>
        <CharString name="Hacyrillic">
          1386 338 298 20 callsubr
        </CharString>
        <CharString name="Hardsigncyrillic">
          1577 1647 503 rmoveto
          214 -156 172 -376 vhcurveto
          -168 hlineto
          72 338 18 89 26 13 157 18 rlinecurve
          19 97 -882 0 -90 -380 rlineto
          88 hlineto
          100 236 55 22 201 6 rrcurveto
          40 2 -236 -1114 rlineto
          -19 -87 -19 -15 -154 -17 -21 -97 rcurveline
          634 hlineto
          412 299 196 307 hvcurveto
          -309 -3 rmoveto
          -206 -147 -168 -300 -9 vhcurveto
          -109 -4 78 callgsubr
        </CharString>
        <CharString name="Hbar">
          -3 callsubr
          -19 -18 -145 -15 rlinecurve
          -21 -97 614 0 20 97 -146 15 -14 18 18 87 rlinecurve
          172 807 168 0 23 109 -168 0 20 94 19 87 23 18 152 15 rlinecurve
          20 97 -614 0 -20 -97 139 -15 11 -18 -19 -87 rlinecurve
          -20 -94 -604 0 20 94 18 86 21 18 144 16 rlinecurve
          20 97 -614 -48 callgsubr
          -20 -94 -168 0 -23 -109 167 0 -171 -807 -18 -86 -20 -17 -155 -17 rlinecurve
          -21 -97 614 0 21 97 -137 16 -13 18 18 86 rlinecurve
          124 580 rmoveto
          48 227 604 0 -48 -227 rlineto
          endchar
        </CharString>
        <CharString name="Hbrevebelow">
          -3 callsubr
          -9 callsubr
          -64 callgsubr
          198 -686 9 callgsubr
          10 1 10 1 6 hvcurveto
          229 callsubr
          155 hhcurveto
          endchar
        </CharString>
        <CharString name="Hcaron">
          1628 1390 1881 rmoveto
          -205 -146 -140 146 -107 -103 callgsubr
          -946 -1664 rmoveto
          39 callsubr
          -64 callgsubr
          endchar
        </CharString>
        <CharString name="Hcedilla">
          1628 245 12 callsubr
          99 105 239 0 19 97 -135 16 -17 18 18 86 rlinecurve
          39 callsubr
          258 0 -127 -136 -18 -85 rlineto
          26 hlineto
          82 44 -30 -51 -46 -42 -31 -70 -58 -49 227 callsubr
        </CharString>
        <CharString name="Hcircumflex">
          1628 981 -88 callsubr
          103 -66 callsubr
          -314 -1347 rmoveto
          39 callsubr
          -64 callgsubr
          endchar
        </CharString>
        <CharString name="Hdieresis">
          1628 1003 1595 rmoveto
          28 callgsubr
          346 hmoveto
          28 callgsubr
          -791 -1378 rmoveto
          39 callsubr
          -64 callgsubr
          endchar
        </CharString>
        <CharString name="Hdotaccent">
          1628 1176 1587 rmoveto
          71 59 58 73 65 -51 52 -70 -72 -59 -57 -74 -65 52 -52 70 hvcurveto
          -618 -1370 rmoveto
          39 callsubr
          -64 callgsubr
          endchar
        </CharString>
        <CharString name="Hdotbelow">
          -3 callsubr
          -9 callsubr
          -64 callgsubr
          196 -397 16 callsubr
        </CharString>
        <CharString name="I">
          735 558 17 callsubr
          -99 callsubr
          -93 callsubr
        </CharString>
        <CharString name="IAcyrillic">
          1455 372 977 rmoveto
          -163 92 -105 161 -44 vhcurveto
          -194 -221 -145 -165 -151 -163 -85 -26 rlinecurve
          -21 -90 334 0 524 607 rlineto
          -1 17 18 -1 18 hhcurveto
          135 hlineto
          -83 -388 -18 -90 -24 -15 -146 -15 rlinecurve
          -20 -97 618 0 20 97 rlineto
          -143 15 -17 15 19 90 215 1011 rcurveline
          19 88 19 15 154 16 20 97 rcurveline
          -629 hlineto
          -469 -238 -185 -282 hvcurveto
          304 -7 rmoveto
          219 139 130 302 9 vhcurveto
          111 3 -128 -605 rlineto
          -130 hlineto
          -183 -111 84 160 hvcurveto
          endchar
        </CharString>
        <CharString name="IJ">
          1471 1303 266 rmoveto
          206 962 18 86 20 17 154 17 rlinecurve
          20 97 -623 0 -21 -97 147 -17 14 -17 -102 callgsubr
          -106 -120 -238 -143 rlinecurve
          27 -81 389 155 204 128 80 377 rlinecurve
          -745 -49 -92 callsubr
          -99 callsubr
          -93 callsubr
        </CharString>
        <CharString name="IJacute">
          1471 808 -78 callsubr
          -77 callsubr
          481 1 233 callsubr
          -482 -1593 rmoveto
          206 962 18 86 20 17 154 17 rlinecurve
          20 97 -623 0 -21 -97 147 -17 14 -17 -102 callgsubr
          -106 -120 -238 -143 rlinecurve
          27 -81 389 155 204 128 80 377 rlinecurve
          -745 -49 -92 callsubr
          -99 callsubr
          -93 callsubr
        </CharString>
        <CharString name="IUcyrillic">
          2258 53 hmoveto
          619 hlineto
          20 97 rlineto
          -136 16 -19 16 18 88 98 461 rcurveline
          239 hlineto
          -1 -17 -1 -18 -17 vvcurveto
          -360 223 -297 421 457 331 395 454 360 -223 299 -421 -2 vhcurveto
          -399 -2 -302 -298 -71 -378 rrcurveto
          -228 hlineto
          91 430 19 88 23 16 147 16 15 callsubr
          35 callgsubr
          1463 1 rmoveto
          -211 -115 167 293 362 161 426 303 211 115 -167 -293 -362 -162 -426 -302 hvcurveto
          endchar
        </CharString>
        <CharString name="Iacute">
          735 808 -78 callsubr
          -77 callsubr
          -498 -1642 -92 callsubr
          -99 callsubr
          -93 callsubr
        </CharString>
        <CharString name="Ibreve">
          735 739 -44 callsubr
          6 hvcurveto
          -95 hlineto
          -96 -18 -68 -56 -108 hhcurveto
          -94 57 callgsubr
          -181 -1366 -92 callsubr
          -99 callsubr
          -93 callsubr
        </CharString>
        <CharString name="Icaron">
          735 938 -84 callsubr
          -25 callsubr
          63 callsubr
          -494 -1664 -92 callsubr
          -99 callsubr
          -93 callsubr
        </CharString>
        <CharString name="Icircumflex">
          735 529 -88 callsubr
          102 0 -127 296 -175 0 -251 -296 rlineto
          138 -1347 -92 callsubr
          -99 callsubr
          -93 callsubr
        </CharString>
        <CharString name="Icyrillic">
          735 558 17 callsubr
          -99 callsubr
          -93 callsubr
        </CharString>
        <CharString name="Idblgrave">
          735 540 45 callsubr
          94 hlineto
          216 297 rmoveto
          -181 -7 hlineto
          108 -290 rlineto
          88 hlineto
          -306 -1347 -92 callsubr
          -99 callsubr
          -93 callsubr
        </CharString>
        <CharString name="Idieresis">
          735 550 36 callsubr
          -338 -1379 -92 callsubr
          -99 callsubr
          -93 callsubr
        </CharString>
        <CharString name="Idieresisacute">
          735 1069 42 callsubr
          86 -231 rmoveto
          56 53 37 51 11 hvcurveto
          50 12 -38 38 -56 hhcurveto
          -13 hlineto
          -85 callgsubr
          -4 callgsubr
          -287 -1332 -92 callsubr
          -99 callsubr
          -93 callsubr
        </CharString>
        <CharString name="Idotaccent">
          735 723 1 callsubr
          -165 -1371 -92 callsubr
          -99 callsubr
          -93 callsubr
        </CharString>
        <CharString name="Idotbelow">
          735 558 17 callsubr
          -99 callsubr
          148 -14 12 -20 -18 -86 rlinecurve
          -215 47 callsubr
          -65 callgsubr
          -253 -397 -48 callsubr
        </CharString>
        <CharString name="Iecyrillic">
          1277 1457 1444 -98 callsubr
        </CharString>
        <CharString name="Igrave">
          735 660 1860 rmoveto
          -227 -10 hlineto
          247 -285 rlineto
          91 hlineto
          -213 -1348 -92 callsubr
          -99 callsubr
          -93 callsubr
        </CharString>
        <CharString name="Ihookabove">
          735 758 1900 -66 callgsubr
          48 hhcurveto
          70 33 -25 -41 -52 -58 -51 -89 -53 hvcurveto
          105 hlineto
          131 54 83 57 82 vvcurveto
          79 -73 61 -110 vhcurveto
          -200 -1683 -92 callsubr
          -99 callsubr
          -93 callsubr
        </CharString>
        <CharString name="Iicyrillic">
          1637 53 hmoveto
          186 callsubr
        </CharString>
        <CharString name="Iinvertedbreve">
          735 727 1898 rmoveto
          -178 -112 -117 -198 -88 callgsubr
          0 callgsubr
          -109 94 -150 hhcurveto
          -169 -1681 -92 callsubr
          -99 callsubr
          -93 callsubr
        </CharString>
        <CharString name="Iishortcyrillic">
          1637 1158 1581 rmoveto
          178 148 96 195 63 hvcurveto
          -103 30 rlineto
          -128 -46 -101 -83 -120 hhcurveto
          -27 -24 4 7 -21 hvcurveto
          30 18 21 34 39 vvcurveto
          71 -51 53 -64 -74 -52 -56 -77 -110 92 -93 151 vhcurveto
          -1105 -1581 rmoveto
          186 callsubr
        </CharString>
        <CharString name="Imacron">
          735 437 -75 callgsubr
          89 -1559 -92 callsubr
          -99 callsubr
          -93 callsubr
        </CharString>
        <CharString name="Iocyrillic">
          1277 807 -15 callsubr
          92 callsubr
          346 hmoveto
          66 55 54 69 92 callsubr
          304 -152 -98 callsubr
        </CharString>
        <CharString name="Iogonek">
          735 315 -486 -84 callgsubr
          -62 -39 56 84 72 30 76 68 66 hvcurveto
          246 hlineto
          20 97 -148 17 -12 17 18 86 rlinecurve
          215 1010 18 86 20 17 155 17 rlinecurve
          -99 callsubr
          rlineto
          148 -14 12 -20 -18 -86 -215 -1010 rcurveline
          -18 -86 -20 -17 -155 -17 -21 -97 rcurveline
          271 90 callgsubr
        </CharString>
        <CharString name="Iotadieresisgreek">
          735 550 36 callsubr
          -338 -1379 -92 callsubr
          -99 callsubr
          -93 callsubr
        </CharString>
        <CharString name="Iotagreek">
          735 558 17 callsubr
          -99 callsubr
          -93 callsubr
        </CharString>
        <CharString name="Iotatonosgreek">
          1114 937 17 callsubr
          -22 callgsubr
          20 97 -147 17 -12 17 18 86 rlinecurve
          -544 1227 3 callsubr
        </CharString>
        <CharString name="Itilde">
          735 831 117 callsubr
          -94 hlineto
          -93 -14 15 callgsubr
          14 23 22 30 hhcurveto
          22 18 -11 -20 23 hvcurveto
          25 64 callsubr
          -273 -1379 -92 callsubr
          -99 callsubr
          -93 callsubr
        </CharString>
        <CharString name="Itildebelow">
          735 558 17 callsubr
          -99 callsubr
          148 -14 12 -20 -18 -86 rlinecurve
          -215 47 callsubr
          -65 callgsubr
          -143 -661 rmoveto
          96 -40 callgsubr
          -26 -25 -35 102 callgsubr
          -12 callgsubr
          55 hhcurveto
          endchar
        </CharString>
        <CharString name="J">
          735 568 266 -4 callsubr
          107 callsubr
        </CharString>
        <CharString name="Jacute">
          735 802 -85 callsubr
          -482 -1593 -4 callsubr
          107 callsubr
        </CharString>
        <CharString name="Jcircumflex">
          735 523 -88 callsubr
          -30 callsubr
          154 -1298 -4 callsubr
          107 callsubr
        </CharString>
        <CharString name="Jecyrillic">
          735 568 266 -4 callsubr
          107 callsubr
        </CharString>
        <CharString name="K">
          1412 558 217 -10 callsubr
        </CharString>
        <CharString name="Kaacutecyrillic">
          1412 1251 -78 callsubr
          -77 callsubr
          -941 -1642 -10 callsubr
        </CharString>
        <CharString name="Kacute">
          1412 1251 -78 callsubr
          -77 callsubr
          -941 -1642 -10 callsubr
        </CharString>
        <CharString name="Kacyrillic">
          1412 558 217 -10 callsubr
        </CharString>
        <CharString name="Kappagreek">
          1412 558 217 -10 callsubr
        </CharString>
        <CharString name="Kcaron">
          1412 1381 -84 callsubr
          -25 callsubr
          63 callsubr
          -937 -1664 -10 callsubr
        </CharString>
        <CharString name="Kcommaaccent">
          127 callsubr
          194 -708 -40 callsubr
          -103 -69 -53 51 callsubr
          27 hhcurveto
          57 8 callsubr
        </CharString>
        <CharString name="Kdotbelow">
          127 callsubr
          232 -397 -74 callsubr
        </CharString>
        <CharString name="Klinebelow">
          127 callsubr
          -69 -593 48 callsubr
        </CharString>
        <CharString name="L">
          2 callsubr
          endchar
        </CharString>
        <CharString name="Lacute">
          1186 814 -78 callsubr
          -77 callsubr
          68 -1859 rmoveto
          -33 callsubr
          -7 callsubr
          endchar
        </CharString>
        <CharString name="Lambdagreek">
          1464 1316 262 rmoveto
          -163 1182 -233 0 -653 -1169 -80 -141 -27 -22 -135 -15 rlinecurve
          -21 -97 487 0 21 97 -166 21 -7 21 102 188 rlinecurve
          461 857 112 -921 15 -126 -20 -22 -162 -18 rlinecurve
          -20 -97 633 0 20 97 -131 14 -16 23 -17 128 rlinecurve
          endchar
        </CharString>
        <CharString name="Lcaron">
          1186 1197 -81 callgsubr
          31 -1118 rmoveto
          -33 callsubr
          -7 callsubr
          endchar
        </CharString>
        <CharString name="Lcircumflexbelow">
          2 callsubr
          284 -477 116 callsubr
        </CharString>
        <CharString name="Lcommaaccent">
          2 callsubr
          459 -491 rmoveto
          170 98 18 callsubr
          -103 -68 -54 -21 -36 -42 hvcurveto
          -18 -80 rlineto
          5 17 32 5 28 hhcurveto
          57 40 -29 -44 -46 -45 -29 -70 -46 -43 15 17 -33 hvcurveto
          -19 -85 rlineto
          -26 40 65 -20 76 hhcurveto
          endchar
        </CharString>
        <CharString name="Ldot">
          2 callsubr
          1080 708 rmoveto
          85 68 68 86 78 -60 60 -81 -85 -69 -68 -85 -78 60 -61 82 hvcurveto
          endchar
        </CharString>
        <CharString name="Ldotbelow">
          2 callsubr
          496 -180 -48 callsubr
        </CharString>
        <CharString name="Ldotbelowmacron">
          1186 443 -75 callgsubr
          655 -1776 rmoveto
          -33 callsubr
          -7 callsubr
          496 -180 -48 callsubr
        </CharString>
        <CharString name="Ljecyrillic">
          2106 54 130 rmoveto
          -94 63 -67 105 215 120 194 493 133 vhcurveto
          81 301 46 182 42 183 rrcurveto
          419 hlineto
          -234 -1106 rlineto
          86 callgsubr
          196 307 214 -156 172 -376 hvcurveto
          -167 hlineto
          71 338 19 89 25 13 157 18 rlinecurve
          21 97 -1213 211 callsubr
          hvcurveto
          1813 370 -67 callgsubr
          78 callgsubr
        </CharString>
        <CharString name="Llinebelow">
          2 callsubr
          195 -376 -43 callsubr
        </CharString>
        <CharString name="Lslash">
          1186 179 591 rmoveto
          180 49 -90 -423 -18 -85 -20 -18 -155 -17 rlinecurve
          -21 -97 1075 0 -33 callsubr
          130 612 368 101 27 118 -370 -101 82 386 18 85 21 17 166 18 rlinecurve
          20 96 -636 0 -20 -97 148 -16 12 -17 -18 -87 rlinecurve
          -100 -469 -178 -49 rlineto
          endchar
        </CharString>
        <CharString name="M">
          1853 854 1444 24 callsubr
        </CharString>
        <CharString name="Macute">
          1853 1375 -78 callsubr
          363 285 rlineto
          10 vlineto
          -768 -415 24 callsubr
        </CharString>
        <CharString name="Mdotaccent">
          1853 1290 -26 callsubr
          -71 -71 -60 -57 -74 -65 52 -51 70 hvcurveto
          -436 -144 24 callsubr
        </CharString>
        <CharString name="Mdotbelow">
          1853 854 1444 rmoveto
          -484 hlineto
          -20 -97 140 -15 10 -28 -24 -104 rlinecurve
          -223 -972 -21 -91 -23 -21 -145 -19 rlinecurve
          -21 -97 465 0 21 97 -141 19 -10 21 19 91 rlinecurve
          197 952 182 -1180 148 0 200 365 464 813 -187 -964 -17 -85 -19 -18 -156 -14 rlinecurve
          -21 -97 618 0 20 97 -20 callgsubr
          -221 -564 16 callsubr
        </CharString>
        <CharString name="Mugreek">
          1853 854 1444 24 callsubr
        </CharString>
        <CharString name="N">
          1540 779 1444 71 callsubr
          endchar
        </CharString>
        <CharString name="Nacute">
          1540 1175 -78 callsubr
          -77 callsubr
          -644 -415 71 callsubr
          endchar
        </CharString>
        <CharString name="Ncaron">
          1540 1305 -84 callsubr
          -25 callsubr
          63 callsubr
          -640 -437 71 callsubr
          endchar
        </CharString>
        <CharString name="Ncircumflexbelow">
          105 callsubr
          -793 -777 8 callgsubr
        </CharString>
        <CharString name="Ncommaaccent">
          105 callsubr
          -618 -791 -40 callsubr
          -103 -69 -78 callgsubr
          8 callsubr
        </CharString>
        <CharString name="Ndotaccent">
          1540 1090 -26 callsubr
          -19 callsubr
          -311 -144 71 callsubr
          endchar
        </CharString>
        <CharString name="Ndotbelow">
          105 callsubr
          -581 -480 rmoveto
          -71 -59 97 callsubr
        </CharString>
        <CharString name="Ngrave">
          1540 1027 1860 -53 callgsubr
          -358 -121 71 callsubr
          endchar
        </CharString>
        <CharString name="Njecyrillic">
          2199 578 217 rmoveto
          105 495 559 0 -105 -496 rlineto
          -19 -87 -20 -15 -154 -17 -20 -97 rcurveline
          633 hlineto
          412 299 184 290 202 -156 160 -376 hvcurveto
          -179 hlineto
          83 391 19 89 26 13 156 18 rlinecurve
          20 97 -630 0 -21 -97 143 -17 17 -15 -19 -88 rlinecurve
          -83 -391 -558 0 82 391 20 88 22 16 147 16 15 callsubr
          142 -17 17 -15 -18 -88 rlinecurve
          -214 -1010 -19 -88 -21 -15 -153 -17 rlinecurve
          -20 -97 618 0 20 97 -136 16 -19 16 18 88 rlinecurve
          1382 253 rmoveto
          -191 -148 -153 -300 -9 vhcurveto
          -108 -4 128 604 rlineto
          129 hlineto
          187 112 -81 -166 hvcurveto
          endchar
        </CharString>
        <CharString name="Nlinebelow">
          105 callsubr
          -882 -676 -43 callsubr
        </CharString>
        <CharString name="Ntilde">
          1540 1198 117 callsubr
          -95 hlineto
          -93 -13 15 callgsubr
          14 22 -38 callgsubr
          64 callsubr
          -419 -152 71 callsubr
          endchar
        </CharString>
        <CharString name="Nugreek">
          1540 779 1444 71 callsubr
          endchar
        </CharString>
        <CharString name="O">
          1612 903 -27 -101 callsubr
        </CharString>
        <CharString name="OE">
          2069 255 658 rmoveto
          -382 256 -307 424 vhcurveto
          143 89 31 153 hhcurveto
          661 hlineto
          102 420 rlineto
          -83 hlineto
          -106 -253 -77 -36 -252 -10 rrcurveto
          -243 -9 121 566 rlineto
          243 hlineto
          68 18 -28 -169 -9 hvcurveto
          83 hlineto
          109 512 rlineto
          -83 hlineto
          -170 -68 -27 -26 -66 hhcurveto
          -243 hlineto
          113 535 228 -9 238 -9 31 -41 9 -208 rlinecurve
          85 hlineto
          69 379 rlineto
          -767 hlineto
          -132 -85 31 -160 hhcurveto
          -516 -326 -362 -455 hvcurveto
          308 -27 rmoveto
          370 195 345 379 63 53 -7 -15 39 vhcurveto
          -259 -1222 rlineto
          -3 -20 -18 -1 -21 hhcurveto
          -271 -140 226 307 hvcurveto
          endchar
        </CharString>
        <CharString name="Oacute">
          1612 1193 -85 callsubr
          -538 -1886 -101 callsubr
        </CharString>
        <CharString name="Obreve">
          1612 1124 -44 callsubr
          7 hvcurveto
          -96 hlineto
          -96 -18 -68 -56 -107 hhcurveto
          -95 -64 56 70 10 1 10 -70 callgsubr
          109 -94 151 hhcurveto
          -221 -1610 -101 callsubr
        </CharString>
        <CharString name="Ocaron">
          1612 1323 -84 callsubr
          -41 callsubr
          -534 -1908 -101 callsubr
        </CharString>
        <CharString name="Ocircumflex">
          1612 914 -88 callsubr
          -30 callsubr
          98 -1591 -101 callsubr
        </CharString>
        <CharString name="Ocircumflexacute">
          1612 1450 1839 rmoveto
          31 -18 callsubr
          -56 -270 rmoveto
          330 91 292 -91 18 85 -250 145 -63 0 -309 -145 rlineto
          130 -1601 -101 callsubr
        </CharString>
        <CharString name="Ocircumflexdotbelow">
          1612 914 -88 callsubr
          -30 callsubr
          98 -1591 130 callsubr
          -76 -285 -48 callsubr
        </CharString>
        <CharString name="Ocircumflexgrave">
          1612 828 1839 rmoveto
          606 65 callsubr
          -102 -493 rmoveto
          330 91 292 -91 18 85 -250 145 -63 0 -309 -145 rlineto
          130 -1601 -101 callsubr
        </CharString>
        <CharString name="Ocircumflexhookabove">
          1612 1422 1958 rmoveto
          -77 -74 -24 -28 -47 hvcurveto
          -15 -67 rlineto
          13 31 55 13 49 hhcurveto
          67 32 -22 -34 -7 hvcurveto
          -8 -33 -40 -22 -84 -17 rrcurveto
          72 -52 125 28 80 callgsubr
          330 91 292 -91 18 85 -250 145 -63 0 -309 -145 rlineto
          130 -1601 -101 callsubr
        </CharString>
        <CharString name="Ocircumflextilde">
          1612 1258 1782 rmoveto
          105 90 62 121 60 callsubr
          -42 hhcurveto
          -26 -26 7 13 -35 -77 callgsubr
          -26 hvcurveto
          110 hlineto
          43 9 30 19 41 123 callsubr
          42 42 -11 50 hhcurveto
          -503 -293 rmoveto
          330 91 292 -91 18 85 -250 145 -63 0 -309 -145 rlineto
          130 -1601 -101 callsubr
        </CharString>
        <CharString name="Ocyrillic">
          1612 903 -27 -101 callsubr
        </CharString>
        <CharString name="Odblgrave">
          1612 925 45 callsubr
          95 hlineto
          216 297 rmoveto
          -182 -7 hlineto
          108 -290 rlineto
          88 hlineto
          -346 -1591 -101 callsubr
        </CharString>
        <CharString name="Odieresis">
          1612 936 -15 callsubr
          35 callsubr
          112 callsubr
          -379 -1623 -101 callsubr
        </CharString>
        <CharString name="Odieresismacron">
          1612 827 1835 124 callsubr
          51 -397 rmoveto
          56 53 37 51 11 hvcurveto
          50 12 -38 38 -56 hhcurveto
          -13 hlineto
          -85 callgsubr
          -4 callgsubr
          -328 -1576 -101 callsubr
        </CharString>
        <CharString name="Odotaccent">
          1612 1109 33 callsubr
          -206 -1615 -101 callsubr
        </CharString>
        <CharString name="Odotaccentmacron">
          1612 822 1810 rmoveto
          623 hlineto
          24 111 rlineto
          -624 hlineto
          255 -380 rmoveto
          61 47 41 55 -1 hvcurveto
          54 -51 41 -62 -60 -48 -41 -54 1 vhcurveto
          -55 1 49 -41 63 hhcurveto
          -197 -1568 -101 callsubr
        </CharString>
        <CharString name="Odotbelow">
          1612 903 -27 130 callsubr
          -76 -285 -48 callsubr
        </CharString>
        <CharString name="Ograve">
          1612 1046 -32 callsubr
          -253 -1592 -101 callsubr
        </CharString>
        <CharString name="Ohookabove">
          1612 1143 102 callsubr
          28 44 80 callsubr
          -240 -1927 -101 callsubr
        </CharString>
        <CharString name="Ohorn">
          1633 244 642 38 callsubr
        </CharString>
        <CharString name="Ohornacute">
          1633 1193 -85 callsubr
          -1197 -1217 38 callsubr
        </CharString>
        <CharString name="Ohorndotbelow">
          1633 244 642 rmoveto
          -363 -2 234 -306 427 hhcurveto
          178 callsubr
          264 -753 -74 callsubr
        </CharString>
        <CharString name="Ohorngrave">
          1633 1046 -32 callsubr
          -912 -923 38 callsubr
        </CharString>
        <CharString name="Ohornhookabove">
          1633 1143 102 callsubr
          28 44 80 callsubr
          -899 -1258 38 callsubr
        </CharString>
        <CharString name="Ohorntilde">
          1633 1216 1596 rmoveto
          87 68 -62 callgsubr
          -23 -18 11 21 79 callsubr
          -972 -954 38 callsubr
        </CharString>
        <CharString name="Ohungarumlaut">
          1612 1016 32 callgsubr
          -189 -297 106 0 292 290 rlineto
          7 vlineto
          -638 -1888 -101 callsubr
        </CharString>
        <CharString name="Oinvertedbreve">
          1612 1112 110 callsubr
          -7 hvcurveto
          96 hlineto
          98 17 69 55 37 callgsubr
          -209 -1925 -101 callsubr
        </CharString>
        <CharString name="Omacron">
          1612 822 -46 callsubr
          49 -1803 -101 callsubr
        </CharString>
        <CharString name="Omacronacute">
          1612 1455 1860 rmoveto
          31 -18 callsubr
          -43 -198 rmoveto
          623 hlineto
          24 111 rlineto
          -623 hlineto
          106 -1720 -101 callsubr
        </CharString>
        <CharString name="Omacrongrave">
          1612 832 1860 rmoveto
          607 65 callsubr
          -89 -421 rmoveto
          623 hlineto
          24 111 rlineto
          -623 hlineto
          106 -1720 -101 callsubr
        </CharString>
        <CharString name="Omegagreek">
          1677 145 18 callgsubr
          290 238 150 -156 -259 -309 -155 -246 -272 -67 vhcurveto
          -65 -303 620 0 113 344 rlineto
          -78 hlineto
          -108 -152 -85 -31 -317 -3 13 65 rcurveline
          410 67 callgsubr
          -317 218 callsubr
          -16 -82 -318 3 -47 31 -47 152 rlinecurve
          -77 hlineto
          endchar
        </CharString>
        <CharString name="Omegatonosgreek">
          1921 389 18 callgsubr
          291 237 151 -156 -259 -309 -156 -246 -271 -67 vhcurveto
          -66 -303 621 0 112 344 rlineto
          -78 hlineto
          -107 -152 -86 -31 -317 -3 14 65 rcurveline
          409 67 callgsubr
          -316 218 callsubr
          -17 -82 -318 3 -47 31 -46 152 rlinecurve
          -78 hlineto
          -29 1100 3 callsubr
        </CharString>
        <CharString name="Omicrongreek">
          1612 903 -27 -101 callsubr
        </CharString>
        <CharString name="Omicrontonosgreek">
          1818 1109 -27 rmoveto
          477 296 400 428 364 -233 306 -426 -477 -294 -400 -428 -2 hvcurveto
          -364 -1 233 -306 427 hhcurveto
          -716 1471 rmoveto
          -170 -397 148 0 292 384 rlineto
          13 vlineto
          429 -1339 rmoveto
          -199 -133 154 313 389 189 378 291 198 134 -153 -314 -389 -193 -378 -287 hvcurveto
          endchar
        </CharString>
        <CharString name="Oogonek">
          1612 819 -486 -84 callgsubr
          184 callsubr
        </CharString>
        <CharString name="Oogonekmacron">
          1612 822 -46 callsubr
          -35 -2262 -84 callgsubr
          184 callsubr
        </CharString>
        <CharString name="Oslash">
          1612 903 -27 167 callsubr
        </CharString>
        <CharString name="Oslashacute">
          1612 1193 -85 callsubr
          -538 -1886 167 callsubr
        </CharString>
        <CharString name="Otilde">
          1612 1216 1596 rmoveto
          87 68 -62 callgsubr
          -23 -18 11 21 79 callsubr
          -313 -1623 -101 callsubr
        </CharString>
        <CharString name="Otildeacute">
          1612 1455 42 callsubr
          -41 callgsubr
          132 callsubr
        </CharString>
        <CharString name="Otildedieresis">
          1612 955 1803 rmoveto
          57 53 -61 callgsubr
          114 callgsubr
          -37 38 -57 hhcurveto
          -13 hlineto
          -58 -51 -38 72 callgsubr
          132 callsubr
        </CharString>
        <CharString name="Otildemacron">
          1612 827 1835 124 callsubr
          357 -397 rmoveto
          105 90 61 122 132 callsubr
        </CharString>
        <CharString name="P">
          1357 703 hmoveto
          22 callsubr
        </CharString>
        <CharString name="Pacute">
          1357 1089 -78 callsubr
          -77 callsubr
          -634 -1859 rmoveto
          22 callsubr
        </CharString>
        <CharString name="Pdotaccent">
          1357 1004 1588 rmoveto
          71 60 57 73 66 -51 51 -70 -72 -59 -57 -73 -66 51 -51 70 hvcurveto
          -301 -1588 rmoveto
          22 callsubr
        </CharString>
        <CharString name="Pecyrillic">
          1624 1442 217 rmoveto
          214 1010 19 90 24 15 150 15 rlinecurve
          20 97 -1509 0 -20 -97 145 -17 17 -15 -19 -88 rlinecurve
          -215 -1010 -19 -88 -20 -14 -155 -18 rlinecurve
          -21 -97 619 0 20 97 -135 16 -18 16 18 88 rlinecurve
          236 1105 596 0 -236 -1105 -19 -90 -19 -14 -150 -16 rlinecurve
          -21 -97 619 0 20 97 -141 15 -19 16 19 89 rlinecurve
          endchar
        </CharString>
        <CharString name="Phigreek">
          1824 242 719 rmoveto
          -41 -315 218 -165 416 -19 rrcurveto
          -3 -13 -18 -87 -19 -17 -138 -17 rlinecurve
          -20 -90 551 0 19 90 rlineto
          -134 16 -11 18 18 87 3 12 rcurveline
          469 10 295 173 41 322 40 317 -234 163 -400 19 rrcurveto
          3 12 18 87 19 17 139 15 rlinecurve
          18 90 -551 0 -18 -90 133 -14 12 -18 -18 -87 rlinecurve
          -2 -10 -452 -10 -312 -169 -41 -327 rlinecurve
          311 8 rmoveto
          29 236 153 144 288 3 rrcurveto
          -163 -774 -240 21 -98 133 31 237 rlinecurve
          1025 -6 rmoveto
          -32 -240 -153 -144 -286 -4 rrcurveto
          163 775 242 -22 95 -132 -29 -233 rlinecurve
          endchar
        </CharString>
        <CharString name="Pigreek">
          1673 1477 217 rmoveto
          214 1009 18 89 25 16 163 16 rlinecurve
          20 97 -1547 0 -21 -97 156 -18 17 -14 -18 -88 rlinecurve
          -214 -1010 -19 -88 -24 -14 -163 -18 rlinecurve
          -21 -97 645 0 21 97 -150 16 -19 16 19 88 rlinecurve
          233 1105 609 0 -233 -1105 -19 -88 -22 -15 -160 -17 rlinecurve
          -20 -97 644 0 20 97 -155 16 -18 16 19 88 rlinecurve
          endchar
        </CharString>
        <CharString name="Psigreek">
          1794 575 hmoveto
          633 hlineto
          21 96 rlineto
          -163 17 -16 18 19 85 56 264 rcurveline
          336 17 192 134 132 356 71 192 rcurveline
          46 123 30 28 98 7 21 97 rcurveline
          5 -30 -56 4 -60 hhcurveto
          -157 -76 -43 -188 -69 hvcurveto
          -77 -212 -93 -253 -94 -120 -188 -25 rlinecurve
          132 626 19 86 17 18 131 15 rlinecurve
          21 97 -548 0 -20 -97 rlineto
          125 -15 10 -18 -18 -86 -133 -626 rcurveline
          -176 26 -41 119 15 253 13 198 rcurveline
          189 11 -60 56 -164 hhcurveto
          -53 -62 -4 -5 -31 hvcurveto
          -20 -97 96 -7 25 -28 -7 -123 rlinecurve
          -12 -192 -22 -356 134 -134 329 -17 rlinecurve
          -56 -264 -19 -85 -21 -18 -170 -17 rlinecurve
          endchar
        </CharString>
        <CharString name="Q">
          1615 1295 -391 rmoveto
          92 80 18 27 60 hvcurveto
          19 88 rlineto
          -128 4 -75 26 -140 132 -102 94 rcurveline
          359 93 215 345 365 vvcurveto
          76 callgsubr
          vhcurveto
          -2 -319 180 -274 331 -63 168 -172 rcurveline
          -160 155 102 -46 117 hhcurveto
          -410 496 rmoveto
          -198 -133 154 313 389 188 378 292 198 133 -153 -314 -389 -192 -378 -288 hvcurveto
          endchar
        </CharString>
        <CharString name="R">
          1417 1088 hmoveto
          21 callsubr
          endchar
        </CharString>
        <CharString name="Racute">
          1417 1090 -85 callsubr
          -250 -1859 rmoveto
          21 callsubr
          endchar
        </CharString>
        <CharString name="Rcaron">
          1417 1220 -84 callsubr
          -41 callsubr
          -246 -1881 rmoveto
          21 callsubr
          endchar
        </CharString>
        <CharString name="Rcommaaccent">
          1417 1088 hmoveto
          21 callsubr
          -484 -1553 84 callsubr
        </CharString>
        <CharString name="Rdblgrave">
          1417 822 45 callsubr
          94 callsubr
          87 hlineto
          -58 -1564 rmoveto
          21 callsubr
          endchar
        </CharString>
        <CharString name="Rdotaccent">
          1417 1006 33 callsubr
          82 -1588 rmoveto
          21 callsubr
          endchar
        </CharString>
        <CharString name="Rdotbelow">
          1417 1088 hmoveto
          21 callsubr
          -447 -1242 -74 callsubr
        </CharString>
        <CharString name="Rdotbelowmacron">
          1417 719 -46 callsubr
          337 -1776 rmoveto
          21 callsubr
          -447 -1242 -74 callsubr
        </CharString>
        <CharString name="Rhogreek">
          1357 703 hmoveto
          22 callsubr
        </CharString>
        <CharString name="Rinvertedbreve">
          1417 1009 110 callsubr
          -88 callgsubr
          37 callgsubr
          79 -1898 rmoveto
          21 callsubr
          endchar
        </CharString>
        <CharString name="Rlinebelow">
          1417 1088 hmoveto
          21 callsubr
          -748 -1438 115 callsubr
        </CharString>
        <CharString name="S">
          1169 612 -31 68 callsubr
          endchar
        </CharString>
        <CharString name="Sacute">
          1169 1008 -78 callsubr
          -77 callsubr
          -644 -1890 68 callsubr
          endchar
        </CharString>
        <CharString name="Sacutedotaccent">
          1169 961 1765 rmoveto
          62 47 41 55 -1 hvcurveto
          55 -1 -50 40 -62 hhcurveto
          -61 -47 -40 -55 1 hvcurveto
          -55 51 -41 61 vhcurveto
          256 -151 rmoveto
          31 142 -654 -139 -17 -83 rlineto
          35 -1565 68 callsubr
          endchar
        </CharString>
        <CharString name="Scaron">
          1169 1138 -84 callsubr
          -25 callsubr
          63 callsubr
          -640 -1912 68 callsubr
          endchar
        </CharString>
        <CharString name="Scarondotaccent">
          1169 965 215 callsubr
          -61 hhcurveto
          -62 -46 -41 -55 hvcurveto
          -55 1 51 -41 60 hhcurveto
          294 -17 rmoveto
          -338 -91 -299 91 -18 -85 256 -145 65 0 317 145 rlineto
          -630 -1715 68 callsubr
          endchar
        </CharString>
        <CharString name="Scedilla">
          1169 482 -491 rmoveto
          177 -51 callgsubr
          69 74 rlineto
          295 12 231 176 269 vvcurveto
          167 -83 120 -193 118 vhcurveto
          -77 47 rlineto
          -146 90 -55 72 98 vvcurveto
          124 107 79 144 181 107 -104 -199 11 vhcurveto
          86 hlineto
          51 320 rlineto
          62 -77 -172 55 -185 hhcurveto
          -344 -189 -188 -236 -169 91 -118 193 -119 hvcurveto
          78 -47 rlineto
          145 -90 46 -74 -103 vvcurveto
          -143 -123 -85 -151 -190 -133 112 200 -10 vhcurveto
          -86 hlineto
          -53 -325 70 -53 154 -50 158 -14 rlinecurve
          -102 -109 -17 -85 rlineto
          26 hlineto
          81 44 -30 -51 -46 -17 callsubr
          -36 22 -20 -92 rcurveline
          -36 49 69 -23 83 hhcurveto
          endchar
        </CharString>
        <CharString name="Schwa">
          1525 794 -31 rmoveto
          466 301 364 453 415 -240 274 -422 -171 -171 -45 -67 -105 hvcurveto
          -75 -329 rlineto
          88 hlineto
          226 98 140 80 178 hhcurveto
          255 109 -203 -316 -39 -1 -37 -3 -37 hvcurveto
          -992 hlineto
          -22 -75 -13 -75 -70 vvcurveto
          -290 185 -229 395 vhcurveto
          -310 479 rmoveto
          47 6 48 9 46 vhcurveto
          728 hlineto
          -294 -49 -148 -198 -234 hhcurveto
          -208 -104 141 210 hvcurveto
          endchar
        </CharString>
        <CharString name="Scircumflex">
          1169 729 -88 callsubr
          102 -66 callsubr
          -7 -1595 68 callsubr
          endchar
        </CharString>
        <CharString name="Scommaaccent">
          1169 612 -31 68 callsubr
          -123 -460 -40 callsubr
          -103 -69 -53 51 callsubr
          27 hhcurveto
          57 8 callsubr
        </CharString>
        <CharString name="Sdotaccent">
          1169 923 -26 callsubr
          -19 callsubr
          -311 -1619 68 callsubr
          endchar
        </CharString>
        <CharString name="Sdotbelow">
          1169 612 -31 68 callsubr
          -86 -149 16 callsubr
        </CharString>
        <CharString name="Sdotbelowdotaccent">
          1169 923 -26 callsubr
          -19 callsubr
          -311 -1619 68 callsubr
          -86 -149 16 callsubr
        </CharString>
        <CharString name="Shacyrillic">
          2356 481 1227 rmoveto
          -215 -1010 -19 -90 -24 -15 -149 -15 rlinecurve
          -21 -97 2250 0 21 97 -143 17 -17 15 19 88 rlinecurve
          214 1010 -79 callgsubr
          197 callsubr
        </CharString>
        <CharString name="Shchacyrillic">
          2379 157 callsubr
          1927 hlineto
          180 11 -38 -266 20 hvcurveto
          103 hlineto
          79 426 -211 0 235 1105 -79 callgsubr
          197 callsubr
        </CharString>
        <CharString name="Sigmagreek">
          217 callsubr
          -91 340 -646 -581 -615 -19 -92 1128 0 116 475 rlineto
          -97 hlineto
          -244 -101 -73 -32 -267 hhcurveto
          -405 hlineto
          553 576 7 35 -272 523 370 -9 230 -6 44 -46 8 -208 rlinecurve
          88 hlineto
          endchar
        </CharString>
        <CharString name="Softsigncyrillic">
          1328 189 callsubr
          -309 -3 -67 callgsubr
          77 callgsubr
        </CharString>
        <CharString name="T">
          -36 callsubr
          endchar
        </CharString>
        <CharString name="Taugreek">
          -36 callsubr
          endchar
        </CharString>
        <CharString name="Tbar">
          1353 418 685 rmoveto
          259 hlineto
          -99 -469 -18 -85 -23 -18 -170 -17 rlinecurve
          -21 -96 661 0 20 96 -164 17 -14 18 18 85 rlinecurve
          99 469 261 0 22 110 -259 0 114 537 51 -1 249 -8 55 -34 -8 -225 rlinecurve
          87 hlineto
          70 380 -1250 0 -12 callsubr
          55 callsubr
          -114 -537 rlineto
          -260 hlineto
          endchar
        </CharString>
        <CharString name="Tcaron">
          1353 1249 -84 callsubr
          -139 145 -108 -103 callgsubr
          245 -437 rmoveto
          -1250 hlineto
          -12 callsubr
          55 callsubr
          103 callsubr
          661 0 20 96 -164 18 -14 17 18 85 rlinecurve
          91 callsubr
          endchar
        </CharString>
        <CharString name="Tcedilla">
          1353 575 12 callsubr
          99 105 243 0 20 96 -164 18 -14 17 18 85 rlinecurve
          91 callsubr
          70 380 -1250 0 -12 callsubr
          55 callsubr
          103 callsubr
          294 0 -126 -136 -18 -85 rlineto
          25 hlineto
          83 43 -30 -51 -46 -36 callgsubr
        </CharString>
        <CharString name="Tcircumflexbelow">
          -36 callsubr
          -1131 -1541 31 callsubr
        </CharString>
        <CharString name="Tcommaaccent">
          -36 callsubr
          -957 -1555 rmoveto
          171 98 18 callsubr
          -103 -68 -54 -21 -36 -42 hvcurveto
          146 callsubr
          75 hhcurveto
          endchar
        </CharString>
        <CharString name="Tdotaccent">
          1353 1035 -26 callsubr
          -71 -71 -59 -57 -74 -65 51 -51 70 hvcurveto
          573 -144 rmoveto
          -1250 hlineto
          -12 callsubr
          55 callsubr
          103 callsubr
          661 0 20 96 -164 18 -14 17 18 85 rlinecurve
          91 callsubr
          endchar
        </CharString>
        <CharString name="Tdotbelow">
          -36 callsubr
          -919 -1244 -74 callsubr
        </CharString>
        <CharString name="Tecyrillic">
          -36 callsubr
          endchar
        </CharString>
        <CharString name="Thetagreek">
          1679 908 -31 rmoveto
          455 345 383 444 15 hvcurveto
          15 388 -246 293 -420 -2 -456 -2 -345 -381 -15 -444 rrcurveto
          -388 -14 245 -291 421 hhcurveto
          14 122 rmoveto
          -244 -123 205 327 12 hvcurveto
          367 13 168 363 309 hhcurveto
          245 123 -205 -327 -12 hvcurveto
          -368 -13 -171 -362 -307 hhcurveto
          -289 367 rmoveto
          78 hlineto
          160 62 30 27 67 hhcurveto
          185 hlineto
          66 20 -27 -160 -7 hvcurveto
          77 hlineto
          107 502 rlineto
          -77 hlineto
          -163 -67 -28 -24 -64 hhcurveto
          -185 hlineto
          -64 -18 24 163 3 hvcurveto
          -78 hlineto
          endchar
        </CharString>
        <CharString name="Thorn">
          1378 276 216 rmoveto
          -18 -88 -21 -14 -153 -18 rrcurveto
          -20 -97 622 0 20 97 rlineto
          -139 16 -20 16 18 88 23 108 rcurveline
          168 hlineto
          366 324 153 293 232 -195 134 -320 hvcurveto
          -171 hlineto
          20 91 18 88 24 15 150 17 rlinecurve
          20 96 -622 0 -20 -96 142 -17 17 -15 -18 -88 rlinecurve
          648 -455 rmoveto
          -156 -96 -169 -314 -8 vhcurveto
          -117 -3 125 588 117 -3 rlineto
          173 -4 112 -97 -148 vvcurveto
          endchar
        </CharString>
        <CharString name="Tlinebelow">
          -36 callsubr
          -1220 -1440 48 callsubr
        </CharString>
        <CharString name="Tsecyrillic">
          1637 157 callsubr
          1188 hlineto
          180 12 -38 -266 19 hvcurveto
          103 hlineto
          78 426 -214 0 236 1105 -79 callgsubr
          18 -16 -19 -88 rlinecurve
          -235 -1105 -596 150 callsubr
        </CharString>
        <CharString name="Tshecyrillic">
          1851 1620 1444 rmoveto
          -1264 hlineto
          204 callsubr
          454 rcurveline
          16 69 72 9 81 hhcurveto
          216 77 -114 -234 -49 hvcurveto
          -74 -347 456 0 20 97 rlineto
          -143 14 -14 16 17 88 26 129 rcurveline
          327 66 -155 156 -386 hhcurveto
          -102 -78 -13 -18 -73 hvcurveto
          114 536 106 -3 220 -6 43 -25 -3 -234 rlinecurve
          87 hlineto
          endchar
        </CharString>
        <CharString name="U">
          1522 795 -31 -94 callsubr
        </CharString>
        <CharString name="Uacute">
          1522 1245 -85 callsubr
          -698 -1890 -94 callsubr
        </CharString>
        <CharString name="Ubreve">
          1522 1176 -44 callsubr
          166 callsubr
          -381 -1614 -94 callsubr
        </CharString>
        <CharString name="Ubrevecyrillic">
          1464 1122 1581 rmoveto
          177 54 callgsubr
          -23 4 7 -21 59 callgsubr
          152 vhcurveto
          -891 -1460 175 callsubr
        </CharString>
        <CharString name="Ucaron">
          1522 1375 -84 callsubr
          -41 callsubr
          -694 -1912 -94 callsubr
        </CharString>
        <CharString name="Ucircumflex">
          1522 966 -88 callsubr
          103 -66 callsubr
          -62 -1595 -94 callsubr
        </CharString>
        <CharString name="Ucircumflexbelow">
          73 callsubr
          -267 -446 116 callsubr
        </CharString>
        <CharString name="Ucyrillic">
          1464 231 121 175 callsubr
        </CharString>
        <CharString name="Udblgrave">
          1522 977 45 callsubr
          94 callsubr
          88 hlineto
          -507 -1595 -94 callsubr
        </CharString>
        <CharString name="Udieresis">
          1522 988 -15 callsubr
          92 callsubr
          346 hmoveto
          66 55 54 69 92 callsubr
          -539 -1627 -94 callsubr
        </CharString>
        <CharString name="Udieresisacute">
          1522 1507 42 callsubr
          86 -231 rmoveto
          224 callsubr
          -85 callgsubr
          158 callsubr
          -488 -1580 -94 callsubr
        </CharString>
        <CharString name="Udieresisbelow">
          73 callsubr
          -270 -397 10 callgsubr
        </CharString>
        <CharString name="Udieresiscaron">
          1522 1539 2002 rmoveto
          -330 16 callgsubr
          53 37 51 10 139 callsubr
          -488 -1580 -94 callsubr
        </CharString>
        <CharString name="Udieresisgrave">
          1522 885 49 callgsubr
          53 37 51 10 139 callsubr
          -488 -1580 -94 callsubr
        </CharString>
        <CharString name="Udieresismacron">
          1522 879 1835 rmoveto
          54 callsubr
          51 -397 rmoveto
          224 callsubr
          -85 callgsubr
          158 callsubr
          -488 -1580 -94 callsubr
        </CharString>
        <CharString name="Udotbelow">
          73 callsubr
          -55 -149 rmoveto
          -71 -59 -58 -72 -66 50 -52 71 71 59 57 73 67 -51 51 -70 hvcurveto
          endchar
        </CharString>
        <CharString name="Ugrave">
          1522 1098 -32 callsubr
          -413 -1596 -94 callsubr
        </CharString>
        <CharString name="Uhookabove">
          1522 1195 207 callsubr
          -400 -1931 -94 callsubr
        </CharString>
        <CharString name="Uhorn">
          1620 319 600 rmoveto
          -23 callsubr
          25 callsubr
        </CharString>
        <CharString name="Uhornacute">
          1620 1240 -85 callsubr
          -1169 -1259 rmoveto
          -23 callsubr
          25 callsubr
        </CharString>
        <CharString name="Uhorndotbelow">
          1620 319 600 rmoveto
          -23 callsubr
          322 238 202 371 82 hvcurveto
          187 833 rlineto
          -1 11 11 -1 12 hhcurveto
          166 108 80 141 84 -42 80 -52 46 hvcurveto
          -91 hlineto
          8 -17 3 -28 -29 vvcurveto
          -154 -106 -132 -212 vhcurveto
          -117 hlineto
          27 callsubr
          127 -21 16 -19 -21 -93 rlinecurve
          281 -1394 rmoveto
          -71 -59 97 callsubr
        </CharString>
        <CharString name="Uhorngrave">
          1620 1093 -32 callsubr
          -884 -965 rmoveto
          -23 callsubr
          25 callsubr
        </CharString>
        <CharString name="Uhornhookabove">
          1620 1190 102 callsubr
          29 43 80 callsubr
          -871 -1300 rmoveto
          -23 callsubr
          25 callsubr
        </CharString>
        <CharString name="Uhorntilde">
          1620 1263 99 callsubr
          79 callsubr
          -944 -996 rmoveto
          -23 callsubr
          25 callsubr
        </CharString>
        <CharString name="Uhungarumlaut">
          1522 1068 32 callgsubr
          -188 -297 105 0 292 290 rlineto
          7 vlineto
          -798 -1892 -94 callsubr
        </CharString>
        <CharString name="Uinvertedbreve">
          1522 1164 110 callsubr
          -88 callgsubr
          36 callgsubr
          -369 -1929 -94 callsubr
        </CharString>
        <CharString name="Umacron">
          1522 874 -46 callsubr
          -111 -1807 -94 callsubr
        </CharString>
        <CharString name="Umacrondieresis">
          1522 1008 1803 rmoveto
          57 53 -61 callgsubr
          -53 -38 -51 -10 hvcurveto
          -50 -12 37 -37 57 -54 callgsubr
          -97 callgsubr
          -51 -12 hvcurveto
          -50 -10 36 71 callgsubr
          -76 -1724 -94 callsubr
        </CharString>
        <CharString name="Uogonek">
          1522 750 -486 rmoveto
          83 64 29 35 36 hvcurveto
          20 95 rlineto
          -16 -20 -29 -11 -32 hhcurveto
          -61 -41 55 80 64 27 67 57 59 hvcurveto
          292 24 215 199 76 348 rrcurveto
          149 672 20 93 23 19 135 21 rlinecurve
          20 97 -461 0 27 callsubr
          127 -21 16 -19 -21 -93 rlinecurve
          -130 -614 -83 -389 203 -215 297 -25 rlinecurve
          -127 -79 -80 -97 -101 vvcurveto
          -106 91 -74 130 vhcurveto
          endchar
        </CharString>
        <CharString name="Upsilondieresisgreek">
          1356 904 -15 callsubr
          35 callsubr
          112 callsubr
          -781 -434 -75 callsubr
        </CharString>
        <CharString name="Upsilongreek">
          1356 469 1162 -75 callsubr
        </CharString>
        <CharString name="Upsilontonosgreek">
          1771 883 1162 rmoveto
          197 -541 -86 -405 -18 -85 -22 -17 -171 -18 rlinecurve
          -21 -96 661 0 20 96 -164 18 -14 17 18 85 rlinecurve
          87 410 423 536 117 147 36 22 117 16 rlinecurve
          20 97 -456 0 -20 -97 146 -17 -1 -33 -102 -134 rlinecurve
          -316 -420 -140 420 -45 134 14 33 154 17 rlinecurve
          21 97 -622 0 -20 -97 109 -16 27 -27 51 -142 rlinecurve
          -490 282 3 callsubr
        </CharString>
        <CharString name="Uring">
          1522 926 1750 rmoveto
          -117 97 -74 137 163 101 95 callgsubr
          157 -5 rmoveto
          73 49 49 55 49 32 -35 -56 -74 -49 -49 -55 -50 -31 35 57 vhcurveto
          -288 -1776 -94 callsubr
        </CharString>
        <CharString name="Utilde">
          1522 1268 99 callsubr
          -21 122 callsubr
          -68 callgsubr
          111 callgsubr
          -473 -1627 -94 callsubr
        </CharString>
        <CharString name="Utildeacute">
          1522 1507 42 callsubr
          -41 callgsubr
          60 callsubr
          -41 hhcurveto
          -26 -26 7 12 -36 hvcurveto
          -31 11 rlineto
          15 -42 -42 11 -51 hhcurveto
          -103 -92 -62 -121 -25 hvcurveto
          109 hlineto
          43 9 30 19 41 hhcurveto
          26 225 callsubr
          -465 -1580 -94 callsubr
        </CharString>
        <CharString name="Utildebelow">
          73 callsubr
          56 -413 rmoveto
          95 75 66 222 26 hvcurveto
          -101 hlineto
          -104 -15 212 callsubr
          35 hhcurveto
          25 112 callgsubr
        </CharString>
        <CharString name="V">
          216 callsubr
          endchar
        </CharString>
        <CharString name="Vdotbelow">
          216 callsubr
          217 -1332 -74 callsubr
        </CharString>
        <CharString name="Vecyrillic">
          1398 1403 453 76 callsubr
        </CharString>
        <CharString name="Vtilde">
          1425 1240 117 callsubr
          -94 hlineto
          -93 -14 -23 -22 -31 hhcurveto
          -22 -18 11 21 -22 122 callsubr
          -69 -60 -202 -22 hvcurveto
          95 hlineto
          93 13 23 22 30 hhcurveto
          22 18 -11 -20 23 hvcurveto
          25 64 callsubr
          -798 -444 rmoveto
          190 callsubr
          endchar
        </CharString>
        <CharString name="W">
          2157 438 1152 -11 callsubr
        </CharString>
        <CharString name="Wacute">
          2157 1607 -85 callsubr
          -1417 -707 -11 callsubr
        </CharString>
        <CharString name="Wcircumflex">
          2157 1328 -88 callsubr
          -30 callsubr
          -781 -412 -11 callsubr
        </CharString>
        <CharString name="Wdieresis">
          2157 1350 -15 callsubr
          35 callsubr
          112 callsubr
          -1258 -444 -11 callsubr
        </CharString>
        <CharString name="Wdotaccent">
          2157 1522 1 callsubr
          -1084 -436 -11 callsubr
        </CharString>
        <CharString name="Wdotbelow">
          2157 438 1152 rmoveto
          101 -1152 235 0 531 1044 73 -1044 239 0 589 1148 82 161 35 23 126 15 rlinecurve
          21 97 -466 0 -21 -97 144 -16 7 -29 -71 -147 rlinecurve
          -430 -893 -55 889 -9 150 15 25 157 21 rlinecurve
          20 97 -599 0 -21 -97 144 -16 6 -29 -70 -147 rlinecurve
          -429 -893 -55 889 -10 150 16 25 156 21 rlinecurve
          21 97 -619 0 -20 -97 114 -15 29 -23 14 -157 rlinecurve
          585 -1332 -48 callsubr
        </CharString>
        <CharString name="Wgrave">
          2157 1460 -32 callsubr
          -1132 -413 -11 callsubr
        </CharString>
        <CharString name="X">
          1386 338 298 20 callsubr
        </CharString>
        <CharString name="Xdieresis">
          1386 951 1596 rmoveto
          82 callgsubr
          346 hmoveto
          82 callgsubr
          -959 -1298 20 callsubr
        </CharString>
        <CharString name="Xdotaccent">
          1386 1124 1 callsubr
          -786 -1290 20 callsubr
        </CharString>
        <CharString name="Xigreek">
          1364 1611 1444 rmoveto
          -1212 hlineto
          230 callsubr
          378 hlineto
          227 60 -34 -199 5 hvcurveto
          91 hlineto
          -811 -342 rmoveto
          235 -2 callgsubr
          -235 -3 callgsubr
          585 -668 rmoveto
          108 callgsubr
          -311 hlineto
          -269 -56 28 246 2 hvcurveto
          -90 hlineto
          -82 -475 rlineto
          endchar
        </CharString>
        <CharString name="Xigreek.1">
          1403 91 hmoveto
          1218 hlineto
          108 callgsubr
          -104 hlineto
          98 467 rlineto
          68 -2 callgsubr
          -66 hlineto
          96 456 rlineto
          139 hlineto
          227 60 -34 -199 5 hvcurveto
          91 hlineto
          76 434 -1212 0 230 callsubr
          139 hlineto
          -96 -456 rlineto
          -69 -3 callgsubr
          68 hlineto
          -99 -467 rlineto
          -107 hlineto
          -269 -56 28 246 2 hvcurveto
          -90 hlineto
          endchar
        </CharString>
        <CharString name="Y">
          1357 469 1162 -75 callsubr
        </CharString>
        <CharString name="Yacute">
          1356 1161 -85 callsubr
          -940 -697 -75 callsubr
        </CharString>
        <CharString name="Ycircumflex">
          1356 882 -88 callsubr
          -30 callsubr
          -304 -402 -75 callsubr
        </CharString>
        <CharString name="Ydieresis">
          1356 904 -15 callsubr
          35 callsubr
          112 callsubr
          -781 -434 -75 callsubr
        </CharString>
        <CharString name="Ydotaccent">
          1356 1077 33 callsubr
          -608 -426 -75 callsubr
        </CharString>
        <CharString name="Ydotbelow">
          1356 469 1162 rmoveto
          196 -541 -85 -405 -18 -85 -22 -17 -172 -18 rlinecurve
          -20 -96 660 0 21 96 -164 18 -15 17 18 85 rlinecurve
          87 410 192 callsubr
          152 -1342 -74 callsubr
        </CharString>
        <CharString name="Yericyrillic">
          2009 189 callsubr
          437 -286 -92 callsubr
          -22 callgsubr
          21 97 -148 17 -12 17 18 86 rlinecurve
          -746 283 -67 callgsubr
          77 callgsubr
        </CharString>
        <CharString name="Ygrave">
          1356 1014 -32 callsubr
          -655 -403 -75 callsubr
        </CharString>
        <CharString name="Yhookabove">
          1356 1111 102 callsubr
          29 43 80 callsubr
          -642 -738 -75 callsubr
        </CharString>
        <CharString name="Yicyrillic">
          735 550 36 callsubr
          -338 -1379 -92 callsubr
          -99 callsubr
          -93 callsubr
        </CharString>
        <CharString name="Ymacron">
          1356 790 -46 callsubr
          -353 -614 -75 callsubr
        </CharString>
        <CharString name="Ytilde">
          1356 1184 99 callsubr
          79 callsubr
          -715 -434 -75 callsubr
        </CharString>
        <CharString name="Z">
          1226 1146 hmoveto
          101 -54 callsubr
          203 callsubr
          endchar
        </CharString>
        <CharString name="Zacute">
          1226 1036 -85 callsubr
          -138 -1859 rmoveto
          101 -54 callsubr
          203 callsubr
          endchar
        </CharString>
        <CharString name="Zcaron">
          1226 1166 -84 callsubr
          -41 callsubr
          -134 -1881 rmoveto
          101 -54 callsubr
          203 callsubr
          endchar
        </CharString>
        <CharString name="Zcircumflex">
          1226 757 -88 callsubr
          -30 callsubr
          498 -1564 rmoveto
          101 -54 callsubr
          203 callsubr
          endchar
        </CharString>
        <CharString name="Zdotaccent">
          1226 952 33 callsubr
          194 -1588 rmoveto
          101 -54 callsubr
          203 callsubr
          endchar
        </CharString>
        <CharString name="Zdotbelow">
          63 callgsubr
          480 -180 -48 callsubr
        </CharString>
        <CharString name="Zecyrillic">
          1319 664 -31 rmoveto
          383 275 187 300 167 -130 111 -200 27 hvcurveto
          227 40 170 119 218 vvcurveto
          209 -174 128 -302 -182 -177 -59 -73 -105 vhcurveto
          -77 -324 rlineto
          88 hlineto
          230 100 135 92 174 hhcurveto
          142 80 -87 -134 -209 -139 -114 -219 hvcurveto
          -153 hlineto
          -25 -119 rlineto
          152 hlineto
          196 110 -76 -173 -174 -108 -151 -251 -3 hvcurveto
          -175 -2 -135 90 -11 229 rrcurveto
          -88 hlineto
          -46 -326 rlineto
          -55 70 182 -68 213 hhcurveto
          endchar
        </CharString>
        <CharString name="Zetagreek">
          1226 1146 hmoveto
          101 -54 callsubr
          203 callsubr
          endchar
        </CharString>
        <CharString name="Zhecyrillic">
          2130 347 hmoveto
          610 676 113 0 -97 -460 -19 -87 -23 -14 -164 -18 rlinecurve
          -20 -97 650 0 20 97 -154 17 -19 15 18 87 rlinecurve
          98 460 115 0 309 -676 345 0 20 91 -66 27 -40 49 -99 210 rlinecurve
          -229 487 246 226 220 201 60 35 144 21 rlinecurve
          21 97 -517 0 -20 -97 149 -14 1 -33 -155 -151 rlinecurve
          -359 -351 -119 0 91 430 19 87 25 15 161 17 rlinecurve
          20 97 -649 0 -21 -97 157 -15 17 -17 -19 -87 rlinecurve
          -91 -430 -113 0 -219 351 -101 160 46 26 142 12 rlinecurve
          20 97 -532 0 -20 -97 139 -24 47 -29 138 -203 rlinecurve
          146 -211 -453 -503 rlineto
          -185 -207 -54 -53 -75 -26 -20 -91 rcurveline
          endchar
        </CharString>
        <CharString name="Zlinebelow">
          63 callgsubr
          179 -376 -43 callsubr
        </CharString>
        <CharString name="a">
          1191 -81 callsubr
          -107 callsubr
          -103 callsubr
        </CharString>
        <CharString name="a.dnum">
          768 127 201 rmoveto
          -140 78 -75 93 89 69 52 88 39 vhcurveto
          -2 -5 -2 47 callgsubr
          -27 -6 -18 hhcurveto
          -29 -10 20 40 9 hvcurveto
          87 404 -104 0 -68 -62 rlineto
          41 -23 -48 35 -79 hhcurveto
          -183 -133 24 callgsubr
          -16 -19 56 callgsubr
        </CharString>
        <CharString name="a.numr">
          768 263 844 rmoveto
          -141 78 -74 93 89 69 51 88 39 vhcurveto
          -1 -5 -3 47 callgsubr
          -26 -5 -19 hhcurveto
          -29 -10 19 40 9 hvcurveto
          87 405 -104 0 -68 -63 rlineto
          42 -23 -48 34 -79 hhcurveto
          -183 -133 -169 -219 1 hvcurveto
          191 9 rmoveto
          120 -2 50 165 112 hhcurveto
          41 27 -17 -19 7 hvcurveto
          -50 -231 rlineto
          -80 -17 -47 -45 -49 hhcurveto
          -42 -28 28 79 -2 hvcurveto
          endchar
        </CharString>
        <CharString name="a.sups">
          768 302 1023 rmoveto
          -141 77 -74 94 88 70 52 88 39 vhcurveto
          -2 -5 -3 -15 -7 vvcurveto
          -71 -9 33 -39 70 hhcurveto
          66 70 31 42 36 hvcurveto
          15 69 rlineto
          -13 -20 -26 -6 -19 hhcurveto
          -28 -10 19 40 9 hvcurveto
          86 405 -104 0 -68 -63 rlineto
          42 -22 -48 35 -80 hhcurveto
          -183 -132 24 callgsubr
          -17 -18 56 callgsubr
        </CharString>
        <CharString name="aacute">
          1191 931 -83 callsubr
          -1047 -1204 -106 callsubr
          -107 callsubr
          -103 callsubr
        </CharString>
        <CharString name="abreve">
          1191 848 1180 rmoveto
          195 126 136 230 9 -45 callgsubr
          -105 -71 155 callsubr
          167 vhcurveto
          -660 -828 -106 callsubr
          -107 callsubr
          -103 callsubr
        </CharString>
        <CharString name="abreveacute">
          1191 1183 6 callsubr
          238 -313 rmoveto
          186 56 callsubr
          -17 -93 -46 -112 hhcurveto
          -111 57 callsubr
          105 -103 185 hhcurveto
          -605 -786 -106 callsubr
          -107 callsubr
          -103 callsubr
        </CharString>
        <CharString name="abrevecyrillic">
          1191 807 33 callgsubr
          -619 -825 -106 callsubr
          -107 callsubr
          -103 callsubr
        </CharString>
        <CharString name="abrevedotbelow">
          1191 848 1180 rmoveto
          195 126 136 230 9 -45 callgsubr
          -105 -71 155 callsubr
          167 vhcurveto
          -660 -828 -106 callsubr
          -107 callsubr
          44 callsubr
          160 -804 58 callsubr
        </CharString>
        <CharString name="abrevegrave">
          1191 576 5 callsubr
          182 -575 rmoveto
          186 56 callsubr
          -17 -93 -46 -112 hhcurveto
          -111 57 callsubr
          105 -103 185 hhcurveto
          -605 -786 -106 callsubr
          -107 callsubr
          -103 callsubr
        </CharString>
        <CharString name="abrevehookabove">
          1191 890 1705 rmoveto
          -78 -77 -27 -33 -49 hvcurveto
          -17 -79 rlineto
          15 32 57 15 49 hhcurveto
          69 32 -25 -40 -8 hvcurveto
          -9 -39 -42 -25 -88 -20 rrcurveto
          72 -61 130 32 87 50 19 93 rlinecurve
          93 20 -86 51 -113 hhcurveto
          -97 -567 rmoveto
          186 56 callsubr
          -17 -93 -46 -112 hhcurveto
          -111 57 callsubr
          105 -103 185 hhcurveto
          -605 -786 -106 callsubr
          -107 callsubr
          -103 callsubr
        </CharString>
        <CharString name="abrevetilde">
          -31 callgsubr
          -199 -338 rmoveto
          186 56 callsubr
          -17 -93 -46 -112 hhcurveto
          -111 57 callsubr
          105 -103 185 hhcurveto
          -605 -786 -106 callsubr
          -107 callsubr
          -103 callsubr
        </CharString>
        <CharString name="acaron">
          1191 1068 103 callgsubr
          -56 callgsubr
          -1002 -1204 -106 callsubr
          -107 callsubr
          -103 callsubr
        </CharString>
        <CharString name="acircumflex">
          1191 615 0 callsubr
          -304 -820 -106 callsubr
          -107 callsubr
          -103 callsubr
        </CharString>
        <CharString name="acircumflexacute">
          1191 1183 6 callsubr
          -64 -311 rmoveto
          327 107 281 -107 21 100 50 callsubr
          -325 -888 -106 callsubr
          -107 callsubr
          -103 callsubr
        </CharString>
        <CharString name="acircumflexdotbelow">
          1191 615 0 callsubr
          -304 -820 -106 callsubr
          -107 callsubr
          44 callsubr
          160 -804 58 callsubr
        </CharString>
        <CharString name="acircumflexgrave">
          1191 576 5 callsubr
          -120 -573 rmoveto
          327 107 281 -107 21 100 50 callsubr
          -325 -888 -106 callsubr
          -107 callsubr
          -103 callsubr
        </CharString>
        <CharString name="acircumflexhookabove">
          1191 1133 1705 rmoveto
          -76 -78 -27 -33 -49 hvcurveto
          -17 -79 rlineto
          15 32 56 15 49 hhcurveto
          70 32 -25 -40 -9 hvcurveto
          -8 -39 -42 -25 -88 -20 rrcurveto
          72 -61 130 32 86 50 20 93 rlinecurve
          93 20 -86 51 -114 hhcurveto
          -642 -565 rmoveto
          327 107 281 -107 21 100 50 callsubr
          -325 -888 -106 callsubr
          -107 callsubr
          -103 callsubr
        </CharString>
        <CharString name="acircumflextilde">
          -31 callgsubr
          -501 -336 rmoveto
          327 107 281 -107 21 100 50 callsubr
          -325 -888 -106 callsubr
          -107 callsubr
          -103 callsubr
        </CharString>
        <CharString name="acute">
          1024 891 61 callsubr
          125 -13 callsubr
          endchar
        </CharString>
        <CharString name="acutecmb">
          0 379 61 callsubr
          125 -13 callsubr
          endchar
        </CharString>
        <CharString name="acutecmb.short">
          0 354 1433 rmoveto
          -220 -296 104 0 -77 callsubr
          endchar
        </CharString>
        <CharString name="acutedotaccentcmb">
          4 callgsubr
          107 callgsubr
          endchar
        </CharString>
        <CharString name="acutedotaccentcmb.short">
          0 398 1765 rmoveto
          61 47 41 55 hvcurveto
          55 -1 -51 40 -61 hhcurveto
          -62 -46 -40 -55 1 hvcurveto
          -55 50 -41 62 vhcurveto
          255 -151 rmoveto
          31 142 -653 -139 -17 -83 rlineto
          endchar
        </CharString>
        <CharString name="acyrillic">
          1191 -81 callsubr
          -107 callsubr
          -103 callsubr
        </CharString>
        <CharString name="adblgrave">
          1191 611 -45 callsubr
          88 callsubr
          -826 -820 -106 callsubr
          -107 callsubr
          -103 callsubr
        </CharString>
        <CharString name="adieresis">
          1191 613 -82 callsubr
          -79 -65 -59 callsubr
          -76 callsubr
          -16 callsubr
          -871 -873 -106 callsubr
          -107 callsubr
          -103 callsubr
        </CharString>
        <CharString name="adieresismacron">
          1191 567 1503 53 callsubr
          18 -477 rmoveto
          60 58 45 59 12 hvcurveto
          60 13 10 callsubr
          -13 hvcurveto
          -59 -12 38 -45 60 hhcurveto
          373 hmoveto
          60 -5 callgsubr
          -772 -805 -106 callsubr
          -107 callsubr
          -103 callsubr
        </CharString>
        <CharString name="adotaccent">
          1191 836 -87 callsubr
          -60 61 -81 -96 callgsubr
          -648 -864 -106 callsubr
          -107 callsubr
          -103 callsubr
        </CharString>
        <CharString name="adotbelow">
          1191 -81 callsubr
          -107 callsubr
          44 callsubr
          160 -804 58 callsubr
        </CharString>
        <CharString name="adotmacron">
          1191 564 1491 rmoveto
          609 hlineto
          28 131 rlineto
          -609 hlineto
          230 -465 rmoveto
          65 51 48 65 64 -51 48 -65 -65 -51 -48 -64 -65 51 -48 65 hvcurveto
          -634 -805 -106 callsubr
          -107 callsubr
          -103 callsubr
        </CharString>
        <CharString name="ae">
          1553 265 791 125 callsubr
        </CharString>
        <CharString name="aeacute">
          1553 1159 -47 callsubr
          -1199 -765 125 callsubr
        </CharString>
        <CharString name="aemacron">
          1553 746 43 callsubr
          -515 -636 125 callsubr
        </CharString>
        <CharString name="agrave">
          1191 807 -65 callsubr
          -39 callsubr
          -729 -820 -106 callsubr
          -107 callsubr
          -103 callsubr
        </CharString>
        <CharString name="ahookabove">
          1191 879 1561 rmoveto
          -97 117 callgsubr
          -123 vhcurveto
          -691 -1209 -106 callsubr
          -107 callsubr
          -103 callsubr
        </CharString>
        <CharString name="ainvertedbreve">
          1191 840 46 callsubr
          -10 hvcurveto
          104 hlineto
          110 20 77 64 120 hhcurveto
          106 69 -65 -80 -11 0 -12 -2 -6 hvcurveto
          104 hlineto
          11 -50 callgsubr
          -165 vhcurveto
          -652 -1194 -106 callsubr
          -107 callsubr
          -103 callsubr
        </CharString>
        <CharString name="alphagreek">
          1271 489 -23 169 callsubr
        </CharString>
        <CharString name="alphatonosgreek">
          1271 907 -95 callgsubr
          148 0 293 384 rlineto
          14 vlineto
          -688 -1579 169 callsubr
        </CharString>
        <CharString name="amacron">
          1191 517 43 callsubr
          -363 -1075 -106 callsubr
          -107 callsubr
          -103 callsubr
        </CharString>
        <CharString name="ampersand">
          1547 145 340 rmoveto
          -209 150 -162 270 171 139 80 150 153 vhcurveto
          167 -199 332 0 16 76 -106 67 -86 105 -109 131 rlinecurve
          -19 22 155 179 145 164 47 25 122 20 rlinecurve
          20 97 -479 0 -20 -97 160 -18 10 -28 -101 -129 rlinecurve
          -117 -144 -290 347 rlineto
          260 90 121 118 147 vvcurveto
          182 -149 121 -248 -264 -162 -161 -205 -5 vhcurveto
          -2 -98 33 -103 83 -121 rrcurveto
          -252 -85 -145 -141 -221 vvcurveto
          543 828 rmoveto
          108 70 68 106 111 54 -89 -100 -112 -61 -86 -149 -71 vhcurveto
          -98 126 -33 79 77 vvcurveto
          -283 -735 rmoveto
          135 80 81 113 63 vhcurveto
          7 -9 7 -9 8 -9 351 -418 rcurveline
          -71 -81 -74 -48 -104 hhcurveto
          -181 -126 124 161 hvcurveto
          endchar
        </CharString>
        <CharString name="anoteleiagreek">
          567 470 721 rmoveto
          93 76 73 95 88 -72 72 -95 -93 -76 -73 -95 -88 72 -72 95 hvcurveto
          endchar
        </CharString>
        <CharString name="aogonek">
          1191 -81 callsubr
          -107 callsubr
          9 9 0 1 9 hvcurveto
          -181 -107 -74 -95 -100 vvcurveto
          -102 80 -66 116 84 72 30 34 33 vhcurveto
          20 95 rlineto
          -17 -22 -32 -10 -34 hhcurveto
          -48 -36 35 64 98 87 107 173 139 hvcurveto
          1 1 1 1 1 1 21 99 rcurveline
          -29 -37 210 callsubr
          endchar
        </CharString>
        <CharString name="approxequal">
          1225 1021 819 rmoveto
          -143 -120 204 -199 hhcurveto
          -167 -140 -124 -273 -33 hvcurveto
          155 74 callgsubr
          140 125 272 33 hvcurveto
          -156 hlineto
          -144 -24 -75 -60 -80 hhcurveto
          -105 -490 rmoveto
          -142 -120 204 -199 hhcurveto
          -168 -139 -124 -273 -34 hvcurveto
          156 74 callgsubr
          139 125 272 33 hvcurveto
          -155 hlineto
          -144 -24 -75 -60 -81 hhcurveto
          endchar
        </CharString>
        <CharString name="aring">
          1191 565 11 callsubr
          -71 callgsubr
          164 callsubr
          62 54 35 -39 -64 -83 -56 -56 -61 -55 -34 40 63 vhcurveto
          -551 -994 -106 callsubr
          -107 callsubr
          -103 callsubr
        </CharString>
        <CharString name="aringacute">
          1191 1184 1548 rmoveto
          36 168 -644 -163 -20 -98 rlineto
          277 -342 rmoveto
          136 100 61 92 20 hvcurveto
          93 19 -74 60 -136 hhcurveto
          -89 hlineto
          -134 -102 -60 -93 -19 hvcurveto
          -92 -20 76 -61 134 hhcurveto
          96 97 rmoveto
          -63 hlineto
          -44 -20 23 33 7 hvcurveto
          34 7 31 85 callgsubr
          -652 -858 -106 callsubr
          -107 callsubr
          -103 callsubr
        </CharString>
        <CharString name="aringbelow">
          1191 -81 callsubr
          -107 callsubr
          44 callsubr
          -115 -682 rmoveto
          -112 3 109 100 callgsubr
          -109 27 callgsubr
          60 hhcurveto
          55 69 callgsubr
        </CharString>
        <CharString name="asciicircum">
          1225 836 1444 rmoveto
          -543 -600 110 -99 486 505 271 -505 130 99 -287 600 rlineto
          endchar
        </CharString>
        <CharString name="asciitilde">
          1225 969 576 rmoveto
          -143 -119 205 -199 hhcurveto
          -168 -140 -124 -273 -33 hvcurveto
          155 hlineto
          144 25 75 61 80 143 120 -205 199 hhcurveto
          168 139 124 273 33 hvcurveto
          -155 hlineto
          -144 -25 -74 -61 -81 hhcurveto
          endchar
        </CharString>
        <CharString name="asterisk">
          793 686 1473 rmoveto
          -56 -34 -39 -66 -18 1 -19 2 -28 hvcurveto
          17 -183 31 0 94 186 rlineto
          20 38 6 25 22 vvcurveto
          47 -33 35 -48 vhcurveto
          -288 -126 rmoveto
          -50 -33 -40 -44 -40 25 -36 77 -25 hvcurveto
          182 -69 17 27 -96 141 rlineto
          65 -43 -42 21 -37 hhcurveto
          516 -55 rmoveto
          -39 -29 -16 -46 -57 hvcurveto
          -142 -110 11 -29 184 23 rlineto
          111 9 44 37 54 vvcurveto
          45 -34 33 -49 vhcurveto
          -571 -399 rmoveto
          39 29 15 47 58 hvcurveto
          141 110 -11 28 -184 -22 rlineto
          -111 -9 -44 -37 -54 vvcurveto
          -45 34 -33 49 vhcurveto
          599 28 rmoveto
          40 -25 36 -76 25 vhcurveto
          -183 69 -18 -26 96 -141 rlineto
          -66 44 41 -20 37 hhcurveto
          51 33 40 43 hvcurveto
          -371 -210 rmoveto
          56 35 40 66 18 -2 19 -2 28 hvcurveto
          -18 183 -30 0 -94 -186 rlineto
          -20 -38 -6 -25 -22 vvcurveto
          -47 33 -36 48 vhcurveto
          endchar
        </CharString>
        <CharString name="at">
          2046 1474 -291 rmoveto
          2 97 rlineto
          -65 -126 -127 -23 -168 hhcurveto
          -399 -285 271 452 430 317 442 541 428 265 -233 -380 -340 -203 -190 -170 -82 -10 47 67 14 hvcurveto
          148 693 -147 0 -94 -125 rlineto
          95 -29 -80 59 -116 hhcurveto
          -267 -190 -314 -310 -216 94 -122 157 116 101 71 154 81 hvcurveto
          -4 -22 -2 -20 -22 vvcurveto
          -120 111 -62 123 315 281 268 424 430 -330 296 -513 -627 -375 -496 -515 -514 349 -327 454 183 183 52 68 81 vhcurveto
          -532 672 rmoveto
          230 111 285 156 80 46 -60 -91 -2 vhcurveto
          -63 -294 rlineto
          -148 -31 -90 -107 -92 hhcurveto
          -82 -33 74 111 hvcurveto
          endchar
        </CharString>
        <CharString name="atilde">
          1191 963 1207 rmoveto
          103 81 -39 callgsubr
          14 callsubr
          5 callgsubr
          37 hhcurveto
          28 22 -14 -26 29 hvcurveto
          32 -29 rlineto
          -40 46 49 -25 59 hhcurveto
          -775 -855 -106 callsubr
          -107 callsubr
          -103 callsubr
        </CharString>
        <CharString name="austral">
          1444 86 374 rmoveto
          231 hlineto
          -73 -130 -61 -109 -25 -26 -130 -12 rlinecurve
          -20 -97 457 0 21 97 -136 15 -15 22 58 109 rlinecurve
          71 131 542 0 15 -131 12 -112 -15 -18 -155 -16 rlinecurve
          -19 -97 582 0 20 97 -126 12 -14 25 -14 110 rlinecurve
          -16 130 240 0 18 85 -269 0 -24 194 335 0 18 85 -364 0 -89 706 -223 0 -397 -706 -357 0 -19 -85 329 0 -109 -194 rlineto
          -260 hlineto
          555 279 rmoveto
          252 469 53 -469 rlineto
          -456 -279 rmoveto
          105 194 360 0 22 -194 rlineto
          endchar
        </CharString>
        <CharString name="austral.tnum">
          1244 95 455 rmoveto
          -19 -84 190 0 -65 -127 -55 -110 -20 -27 -107 -10 rlinecurve
          -21 -97 405 0 20 97 -122 13 -9 20 55 113 rlinecurve
          63 128 450 0 8 -128 6 -113 -16 -18 -133 -15 rlinecurve
          -20 -97 540 0 21 97 -104 10 -8 26 -9 111 rlinecurve
          -10 127 190 0 19 84 -215 0 -16 194 271 0 19 85 -297 0 -56 710 -240 0 -360 -710 -296 0 -19 -85 272 0 -98 -194 rlineto
          278 279 rmoveto
          224 458 28 -458 rlineto
          -388 -279 rmoveto
          95 194 298 0 11 -194 rlineto
          endchar
        </CharString>
        <CharString name="b">
          129 callsubr
          endchar
        </CharString>
        <CharString name="backslash">
          706 449 -280 rmoveto
          187 hlineto
          -103 1860 rlineto
          -187 hlineto
          endchar
        </CharString>
        <CharString name="baht">
          -21 callgsubr
          159 -114 109 -256 31 rrcurveto
          48 226 -84 0 -47 -220 rlineto
          1 -24 -24 1 -26 hhcurveto
          -516 hlineto
          -21 -97 rlineto
          147 -17 14 -17 -19 -87 -204 -949 rcurveline
          -18 -86 -20 -17 -154 -17 -21 -97 rcurveline
          575 hlineto
          6 5 0 6 hhcurveto
          -47 -219 85 0 47 222 rlineto
          373 23 233 152 250 vvcurveto
          -682 350 rmoveto
          105 497 96 -3 rlineto
          21 20 -2 -3 18 hvcurveto
          -104 -489 rlineto
          -9 -9 0 -9 hhcurveto
          329 284 rmoveto
          -135 -77 -101 -137 -35 vhcurveto
          97 456 rlineto
          78 -31 39 -60 -94 vvcurveto
          -481 -394 rmoveto
          128 hlineto
          9 10 -1 9 hhcurveto
          -118 -553 rlineto
          -20 -1 -20 -1 -21 -1 -98 -2 rcurveline
          534 306 rmoveto
          -157 -91 -98 -197 -35 vhcurveto
          113 529 rlineto
          116 -32 59 -85 -122 vvcurveto
          endchar
        </CharString>
        <CharString name="baht.tnum">
          -18 callgsubr
          156 -102 104 -229 30 vhcurveto
          48 227 -84 0 -47 -220 rlineto
          1 -23 -23 1 -24 hhcurveto
          -491 hlineto
          -21 -97 rlineto
          142 -16 14 -18 -18 -87 -204 -949 rcurveline
          -19 -86 -19 -18 -150 -16 -20 -97 rcurveline
          553 hlineto
          3 3 0 3 hhcurveto
          -47 -219 84 0 48 222 rlineto
          348 23 220 152 250 vvcurveto
          -632 350 rmoveto
          104 497 89 -2 rlineto
          20 -1 18 -1 17 -3 -104 -490 rcurveline
          -8 -9 0 -9 hhcurveto
          304 294 rmoveto
          -134 -68 -104 -122 -39 vhcurveto
          96 450 rlineto
          63 -31 31 -57 -85 vvcurveto
          -445 -404 rmoveto
          111 hlineto
          11 11 -1 -1 10 hvcurveto
          -117 -553 rlineto
          -1 -17 -18 -1 -18 hhcurveto
          -95 -2 rlineto
          497 320 rmoveto
          -161 -85 -106 -177 -37 vhcurveto
          112 526 rlineto
          101 -33 49 -80 -109 vvcurveto
          endchar
        </CharString>
        <CharString name="bar">
          706 200 -280 rmoveto
          187 hlineto
          395 1860 rlineto
          -187 hlineto
          endchar
        </CharString>
        <CharString name="bdotaccent">
          1188 694 1643 rmoveto
          85 68 68 85 78 113 callsubr
          522 -977 rmoveto
          53 callgsubr
          678 -435 115 callgsubr
          202 callsubr
          endchar
        </CharString>
        <CharString name="bdotbelow">
          129 callsubr
          -359 -1083 -29 callsubr
        </CharString>
        <CharString name="becyrillic">
          1169 1184 583 rmoveto
          254 -143 185 -241 -196 -146 -117 -163 -79 vhcurveto
          24 247 106 189 303 21 rrcurveto
          132 8 267 18 102 75 44 212 rlinecurve
          -95 hlineto
          -21 -47 -65 -17 -120 -3 rrcurveto
          -574 -11 -275 -435 -520 vvcurveto
          -307 141 -195 281 327 228 280 326 vhcurveto
          -275 67 rmoveto
          -234 -95 -314 -179 -96 -61 83 167 234 96 314 179 96 60 -83 -167 vhcurveto
          endchar
        </CharString>
        <CharString name="betagreek">
          1160 18 -460 rmoveto
          276 hlineto
          100 554 rlineto
          -62 56 106 -55 121 hhcurveto
          304 193 223 255 10 hvcurveto
          12 206 -109 145 -192 35 197 59 121 129 6 181 rrcurveto
          188 10 -126 132 -250 hhcurveto
          -260 -186 -170 -347 -74 hvcurveto
          276 72 rmoveto
          197 43 56 115 128 hhcurveto
          93 55 -69 -137 -9 hvcurveto
          -8 -188 -102 -107 -197 -3 rrcurveto
          -39 -183 202 -2 87 -89 -9 -190 rlinecurve
          -192 -7 -130 -125 -152 hhcurveto
          -83 -64 28 65 -57 hvcurveto
          endchar
        </CharString>
        <CharString name="bitcoin">
          -21 callgsubr
          134 -81 99 -178 46 rrcurveto
          53 246 -85 0 -50 -230 rlineto
          8 -54 -62 4 -68 hhcurveto
          46 219 -85 -1 -47 -218 -432 0 -21 -97 147 -17 14 -17 -19 -87 rlinecurve
          -204 -949 -18 -86 -20 -17 -154 -17 rlinecurve
          -21 -97 435 0 -47 -219 85 0 47 219 rlineto
          55 hlineto
          46 44 2 3 43 hvcurveto
          -48 -224 86 0 49 234 rlineto
          303 46 185 144 223 vvcurveto
          -224 634 rmoveto
          -170 -120 -114 -209 vhcurveto
          -129 hlineto
          105 497 96 -3 rlineto
          172 -5 85 -66 -139 vvcurveto
          -68 -647 rmoveto
          -192 -137 -105 -299 -7 vhcurveto
          -98 -2 121 559 rlineto
          128 hlineto
          189 -1 96 -96 -156 vvcurveto
          endchar
        </CharString>
        <CharString name="bitcoin.tnum">
          -18 callgsubr
          131 -72 94 -158 44 vhcurveto
          53 248 -85 0 -49 -230 rlineto
          8 -51 -58 4 -64 hhcurveto
          -12 hlineto
          46 219 -85 -1 -46 -218 -394 0 -21 -97 142 -16 14 -18 -18 -87 rlinecurve
          -204 -949 -19 -86 -19 -18 -150 -16 rlinecurve
          -20 -97 395 0 -47 -219 85 0 47 219 rlineto
          73 hlineto
          40 38 2 3 37 hvcurveto
          -48 -224 86 0 49 234 rlineto
          285 45 175 145 223 vvcurveto
          -210 644 rmoveto
          -171 -112 -123 -192 vhcurveto
          -118 hlineto
          104 497 89 -3 rlineto
          153 -7 76 -61 -132 vvcurveto
          -70 -643 rmoveto
          -197 -130 -111 -272 -9 vhcurveto
          -95 -3 122 559 rlineto
          111 hlineto
          178 -2 86 -93 -144 vvcurveto
          endchar
        </CharString>
        <CharString name="blinebelow">
          129 callsubr
          -651 -1024 48 callsubr
        </CharString>
        <CharString name="braceleft">
          706 707 1041 rmoveto
          51 235 rlineto
          142 32 44 65 159 hhcurveto
          21 97 rlineto
          -48 hlineto
          -250 -150 -102 -207 -46 hvcurveto
          -66 -303 rlineto
          -155 -33 -91 -58 -112 hhcurveto
          -19 -89 rlineto
          114 64 -58 -155 -32 hvcurveto
          -79 -370 rlineto
          -221 -46 96 -142 253 hhcurveto
          48 hlineto
          20 97 rlineto
          -164 -4 108 145 31 hvcurveto
          59 271 rlineto
          45 212 -62 115 -189 41 202 31 106 95 46 206 rrcurveto
          endchar
        </CharString>
        <CharString name="braceright">
          706 441 1041 rmoveto
          -42 -206 66 -95 188 -31 -206 -41 -110 -115 -45 -212 -57 -271 rcurveline
          -145 -31 -49 -108 -165 hhcurveto
          -21 -97 rlineto
          48 hlineto
          252 158 142 221 47 hvcurveto
          79 370 rlineto
          155 33 90 58 113 hhcurveto
          19 89 rlineto
          -112 -65 58 155 32 hvcurveto
          62 303 rlineto
          207 43 -106 102 -250 hhcurveto
          -48 hlineto
          -22 -97 rlineto
          160 17 -65 -142 -30 hvcurveto
          endchar
        </CharString>
        <CharString name="bracketleft">
          706 145 -280 rmoveto
          472 hlineto
          20 97 -257 0 356 1666 257 0 21 97 rlineto
          -472 hlineto
          endchar
        </CharString>
        <CharString name="bracketright">
          706 837 1580 rmoveto
          -472 hlineto
          -21 -97 258 0 -356 -1666 -258 0 -20 -97 rlineto
          472 hlineto
          endchar
        </CharString>
        <CharString name="breve">
          1024 808 -27 callsubr
          165 callsubr
          -103 hlineto
          -12 -69 callgsubr
          endchar
        </CharString>
        <CharString name="breveacutecmb">
          -90 callgsubr
          239 -313 81 callsubr
        </CharString>
        <CharString name="breveacutecmb.short">
          0 706 42 callsubr
          257 -256 rmoveto
          -6 callgsubr
        </CharString>
        <CharString name="brevebelowcmb">
          0 -60 -469 rmoveto
          183 115 122 207 7 hvcurveto
          -96 hlineto
          -100 -17 -71 -57 -112 hhcurveto
          -98 -66 58 73 -1 hvcurveto
          10 2 10 1 6 vhcurveto
          229 callsubr
          154 hhcurveto
          endchar
        </CharString>
        <CharString name="brevecmb">
          0 296 -27 callsubr
          165 callsubr
          -103 hlineto
          -12 -69 callgsubr
          endchar
        </CharString>
        <CharString name="brevecmb.short">
          0 285 1156 rmoveto
          177 112 118 197 6 hvcurveto
          -95 hlineto
          -96 -18 -68 -56 -108 hhcurveto
          -94 57 callgsubr
          endchar
        </CharString>
        <CharString name="brevecyrilliccmb">
          0 255 1177 rmoveto
          172 164 96 197 65 hvcurveto
          -102 34 rlineto
          -143 -52 -108 -75 -122 hhcurveto
          -33 -29 7 11 -26 hvcurveto
          41 19 30 44 52 vvcurveto
          77 -59 56 -71 -86 -58 -33 callgsubr
          endchar
        </CharString>
        <CharString name="brevecyrilliccmb.short">
          0 325 1582 rmoveto
          178 148 96 195 63 hvcurveto
          -103 30 rlineto
          -129 -46 -101 -83 -120 hhcurveto
          -27 -24 4 7 -21 hvcurveto
          30 19 21 33 39 vvcurveto
          71 -51 53 -64 -74 -52 -56 -77 -109 92 -93 151 vhcurveto
          endchar
        </CharString>
        <CharString name="brevegravecmb">
          0 24 5 callsubr
          183 -575 81 callsubr
        </CharString>
        <CharString name="brevegravecmb.short">
          0 84 1859 rmoveto
          606 -79 18 82 -595 140 rlineto
          211 -478 rmoveto
          -6 callgsubr
        </CharString>
        <CharString name="brevehookabovecmb">
          0 338 1705 rmoveto
          -77 -78 -27 -33 -49 hvcurveto
          -17 -79 rlineto
          15 33 56 15 49 hhcurveto
          69 32 -25 -40 -8 hvcurveto
          -9 -39 -42 -25 -87 -20 rrcurveto
          72 -61 129 32 87 50 20 93 rlinecurve
          93 19 -86 51 -113 hhcurveto
          -96 -567 81 callsubr
        </CharString>
        <CharString name="brevehookabovecmb.short">
          0 401 2001 rmoveto
          -79 -79 -23 -28 -48 hvcurveto
          -16 -67 rlineto
          12 33 57 14 51 hhcurveto
          70 35 -22 -34 -8 hvcurveto
          -7 -10 callgsubr
          -6 callgsubr
        </CharString>
        <CharString name="brevetildecmb">
          0 441 -52 callgsubr
          -108 hlineto
          -50 -10 -30 -22 83 callsubr
          1 callgsubr
          -199 -338 81 callsubr
        </CharString>
        <CharString name="brevetildecmb.short">
          0 513 61 callgsubr
          -42 hhcurveto
          -25 -26 7 13 -36 -77 callgsubr
          -25 hvcurveto
          110 hlineto
          43 9 29 19 41 123 callsubr
          42 42 -11 50 hhcurveto
          -189 -278 rmoveto
          -6 callgsubr
        </CharString>
        <CharString name="brokenbar">
          706 427 789 rmoveto
          187 hlineto
          168 791 rlineto
          -187 hlineto
          -395 -1860 rmoveto
          187 hlineto
          168 791 rlineto
          -187 hlineto
          endchar
        </CharString>
        <CharString name="bullet">
          836 543 365 rmoveto
          130 38 callgsubr
          133 hvcurveto
          endchar
        </CharString>
        <CharString name="c">
          967 606 -23 -5 callsubr
        </CharString>
        <CharString name="cacute">
          967 900 -83 callsubr
          -598 -1579 -5 callsubr
        </CharString>
        <CharString name="caret">
          567 215 hmoveto
          -333 -362 83 -84 295 295 171 -295 100 84 -178 362 rlineto
          endchar
        </CharString>
        <CharString name="caron">
          1024 1028 -62 callsubr
          40 callsubr
          endchar
        </CharString>
        <CharString name="caroncmb">
          0 516 -62 callsubr
          40 callsubr
          endchar
        </CharString>
        <CharString name="caroncmb.short">
          0 484 1454 rmoveto
          -205 -145 -25 callsubr
          186 0 253 297 rlineto
          endchar
        </CharString>
        <CharString name="carondotaccentcmb">
          4 callgsubr
          12 callgsubr
          endchar
        </CharString>
</ttFont>
